<svg width="22" height="27" viewBox="0 0 22 27" fill="none" xmlns="http://www.w3.org/2000/svg">
<path d="M21 11.0443C21 16.4292 16.25 21.8127 13.2972 24.639C12.0083 25.8736 9.99167 25.8736 8.70278 24.639C5.75 21.8127 1 16.4278 1 11.0443C1 5.66084 5.47778 1 11 1C16.5222 1 21 5.49762 21 11.0443Z" stroke="#ED255C" stroke-width="1.5" stroke-linecap="round" stroke-linejoin="round"/>
<path d="M10.9991 14.3934C13.4537 14.3934 15.4436 12.3947 15.4436 9.92923C15.4436 7.46375 13.4537 5.46509 10.9991 5.46509C8.54453 5.46509 6.55469 7.46375 6.55469 9.92923C6.55469 12.3947 8.54453 14.3934 10.9991 14.3934Z" stroke="#ED255C" stroke-width="1.5" stroke-linecap="round" stroke-linejoin="round"/>
</svg>
