<svg width="22" height="22" viewBox="0 0 22 22" fill="none" xmlns="http://www.w3.org/2000/svg">
<g clip-path="url(#clip0_714_26553)">
<path d="M7.51953 19.14C7.51953 18.78 7.80953 18.49 8.16953 18.49H12.5195C13.1395 18.49 13.6495 19 13.6495 19.62C13.6495 20.24 13.1395 20.75 12.5195 20.75H8.16953C7.80953 20.75 7.51953 20.46 7.51953 20.1V19.13V19.14Z" stroke="#ED255C" stroke-width="1.5" stroke-linecap="round" stroke-linejoin="round"/>
<path d="M2.03994 7.42999C1.15994 7.84999 0.619944 8.79999 0.779944 9.80999L1.37994 13.73C1.56994 14.94 2.67994 15.78 3.88994 15.63L4.28994 15.58" stroke="#ED255C" stroke-width="1.5" stroke-linecap="round" stroke-linejoin="round"/>
<path d="M19.459 7.42999C20.339 7.84999 20.879 8.79999 20.719 9.80999L20.119 13.73C19.929 14.94 18.819 15.78 17.609 15.63L17.209 15.58" stroke="#ED255C" stroke-width="1.5" stroke-linecap="round" stroke-linejoin="round"/>
<path d="M17.1898 15.56C17.1898 15.56 17.6498 12.07 18.1698 8.17C18.6598 4.47 14.8498 0.75 10.7498 0.75C6.64976 0.75 2.83976 4.47 3.32976 8.17C3.84976 12.07 4.30976 15.56 4.30976 15.56L4.77976 18.68C4.86976 19.31 5.41976 19.78 6.05976 19.78H7.52976" stroke="#ED255C" stroke-width="1.5" stroke-linecap="round" stroke-linejoin="round"/>
</g>
<defs>
<clipPath id="clip0_714_26553">
<rect width="21.5" height="21.5" fill="white"/>
</clipPath>
</defs>
</svg>
