<svg width="22" height="22" viewBox="0 0 22 22" fill="none" xmlns="http://www.w3.org/2000/svg">
<path d="M20.9014 17.7603C21.0969 17.0922 20.9764 16.4092 20.7605 15.7558C20.6673 15.4752 20.4412 15.257 20.1548 15.1797L15.4059 13.8843C15.124 13.807 14.8229 13.8775 14.6036 14.0695L13.107 15.19C12.8126 15.4479 12.3695 15.4615 12.0615 15.2195C11.0115 14.3957 10.0422 13.7014 9.14441 12.8332C8.27621 11.9355 7.6012 11.0241 6.77733 9.97304C6.53528 9.66509 6.54892 9.22192 6.80687 8.92761L7.93075 7.39583C8.1228 7.17652 8.19212 6.87539 8.11599 6.59358L6.82051 1.84483C6.7421 1.55961 6.52505 1.33235 6.24437 1.2403C5.59208 1.0244 4.90798 0.902812 4.23979 1.09826C2.96704 1.47098 2.01362 2.35732 1.47156 3.35389C0.685189 4.79931 1.02269 6.68221 1.47156 8.5833C2.37953 11.2798 3.91933 13.7082 6.16255 15.8377C8.29212 18.0808 10.7206 19.6205 13.4172 20.5285C15.3172 20.9773 17.2014 21.3148 18.6468 20.5285C19.6434 19.9864 20.5298 19.033 20.9025 17.7603H20.9014Z" stroke="#ED255C" stroke-width="1.5" stroke-linecap="round" stroke-linejoin="round"/>
</svg>
