<svg width="89" height="74" viewBox="0 0 89 74" fill="none" xmlns="http://www.w3.org/2000/svg">
<path d="M1.5 72H86.72M45.63 72H6.06V6.57C6.06 4.04 8.11 2 10.63 2H41.07H41.06C43.59 2 45.63 4.05 45.63 6.57V72ZM45.63 72V32.43H77.59C80.12 32.43 82.16 34.48 82.16 37V72H45.64H45.63ZM12.16 50.7H39.55M12.16 59.83H39.55M12.16 41.57H39.55M12.16 32.44H39.55M12.16 23.31H39.55M12.15 14.17H39.54M51.71 50.69H76.06M51.71 41.56H76.06M63.89 8.09V20.26M69.98 14.17H57.81M56.29 27.86V30.9M71.51 27.86V30.9M74.55 61.35C74.55 60.51 73.87 59.83 73.03 59.83H54.77C53.93 59.83 53.25 60.51 53.25 61.35V72H74.55V61.35ZM72.59 26.34H55.2C53.28 26.34 51.72 24.78 51.72 22.86V5.48C51.72 3.56 53.28 2 55.2 2H72.59C74.51 2 76.07 3.56 76.07 5.48V22.87C76.07 24.79 74.51 26.35 72.59 26.35V26.34Z" stroke="#ED255C" stroke-width="3" stroke-linecap="round" stroke-linejoin="round"/>
</svg>
