<svg width="68" height="73" viewBox="0 0 68 73" fill="none" xmlns="http://www.w3.org/2000/svg">
<path d="M37.8545 34.0171C34.7894 37.9267 31.9995 40.4793 31.9995 40.4793C31.9995 40.4793 29.3805 38.0785 26.4198 34.3682C24.3227 36.0858 22.9941 38.6953 22.9941 41.6181C22.9941 46.7993 27.1884 50.9936 32.3696 50.9936C37.5508 50.9936 41.7451 46.7993 41.7451 41.6181C41.7451 38.4961 40.2173 35.7252 37.864 34.0266L37.8545 34.0171Z" stroke="#FF205D" stroke-width="3" stroke-linecap="round" stroke-linejoin="round"/>
<path d="M31.9995 40.4794C31.9995 40.4794 45.7686 27.887 45.7686 15.7691C45.7686 8.1586 39.6005 2 31.9995 2C24.3986 2 18.2305 8.16809 18.2305 15.7691C18.2305 27.8775 31.9995 40.4794 31.9995 40.4794Z" stroke="#FF205D" stroke-width="3" stroke-linecap="round" stroke-linejoin="round"/>
<path d="M11.3594 31.939L22.6327 37.1296" stroke="#FF205D" stroke-width="3" stroke-linecap="round" stroke-linejoin="round"/>
<path d="M16.1895 54.9127L25.0335 48.5264" stroke="#FF205D" stroke-width="3" stroke-linecap="round" stroke-linejoin="round"/>
<path d="M45.7774 61.6311L37.9297 50.4052" stroke="#FF205D" stroke-width="3" stroke-linecap="round" stroke-linejoin="round"/>
<path d="M52.2865 39.2267L42 40.5837" stroke="#FF205D" stroke-width="3" stroke-linecap="round" stroke-linejoin="round"/>
<path d="M34.7551 21.7233C37.8269 20.4295 39.2683 16.8905 37.9745 13.8187C36.6807 10.7468 33.1417 9.30546 30.0698 10.5993C26.998 11.8931 25.5566 15.4321 26.8504 18.5039C28.1442 21.5757 31.6833 23.0171 34.7551 21.7233Z" stroke="#FF205D" stroke-width="3" stroke-linecap="round" stroke-linejoin="round"/>
<path d="M6.42498 34.596C9.14497 34.596 11.35 32.391 11.35 29.671C11.35 26.951 9.14497 24.746 6.42498 24.746C3.70499 24.746 1.5 26.951 1.5 29.671C1.5 32.391 3.70499 34.596 6.42498 34.596Z" stroke="#FF205D" stroke-width="3" stroke-linecap="round" stroke-linejoin="round"/>
<path d="M53.9376 67.1386C54.3734 64.4538 52.5502 61.924 49.8653 61.4882C47.1805 61.0523 44.6507 62.8756 44.2149 65.5604C43.7791 68.2452 45.6023 70.775 48.2871 71.2109C50.972 71.6467 53.5018 69.8235 53.9376 67.1386Z" stroke="#FF205D" stroke-width="3" stroke-linecap="round" stroke-linejoin="round"/>
<path d="M16.8644 59.2847C17.355 56.2424 15.2864 53.3784 12.2441 52.8879C9.20177 52.3973 6.3378 54.4659 5.84724 57.5082C5.35667 60.5505 7.42527 63.4145 10.4676 63.905C13.5099 64.3956 16.3738 62.327 16.8644 59.2847Z" stroke="#FF205D" stroke-width="3" stroke-linecap="round" stroke-linejoin="round"/>
<path d="M59.4905 45.1007C63.2639 45.1007 66.3229 42.0418 66.3229 38.2684C66.3229 34.495 63.2639 31.436 59.4905 31.436C55.7171 31.436 52.6582 34.495 52.6582 38.2684C52.6582 42.0418 55.7171 45.1007 59.4905 45.1007Z" stroke="#FF205D" stroke-width="3" stroke-linecap="round" stroke-linejoin="round"/>
</svg>
