<svg width="22" height="22" viewBox="0 0 22 22" fill="none" xmlns="http://www.w3.org/2000/svg">
<g clip-path="url(#clip0_714_26512)">
<path d="M17.1995 5.27V3.01L14.9395 0.75H7.51953V5.27" stroke="#ED255C" stroke-width="1.5" stroke-linecap="round" stroke-linejoin="round"/>
<path d="M17.1995 9.82999H7.51953V12.41H17.1995V9.82999Z" stroke="#ED255C" stroke-width="1.5" stroke-linecap="round" stroke-linejoin="round"/>
<path d="M5.75 17.52H19.14C20.03 17.52 20.75 16.8 20.75 15.91V8.17C20.75 7.28 20.03 6.56 19.14 6.56H5.75" stroke="#ED255C" stroke-width="1.5" stroke-linecap="round" stroke-linejoin="round"/>
<path d="M2.35938 18.17V18.98C2.35938 19.96 3.14938 20.75 4.12938 20.75C5.10938 20.75 5.89938 19.96 5.89938 18.98V17.53" stroke="#ED255C" stroke-width="1.5" stroke-linecap="round" stroke-linejoin="round"/>
<path d="M2.69 5.91H2.04C1.32755 5.91 0.75 6.48756 0.75 7.2V16.88C0.75 17.5925 1.32755 18.17 2.04 18.17H2.69C3.40245 18.17 3.98 17.5925 3.98 16.88V7.2C3.98 6.48756 3.40245 5.91 2.69 5.91Z" stroke="#ED255C" stroke-width="1.5" stroke-linecap="round" stroke-linejoin="round"/>
</g>
<defs>
<clipPath id="clip0_714_26512">
<rect width="21.5" height="21.5" fill="white"/>
</clipPath>
</defs>
</svg>
