<svg width="204" height="71" viewBox="0 0 204 71" fill="none" xmlns="http://www.w3.org/2000/svg">
<path fill-rule="evenodd" clip-rule="evenodd" d="M6.10711 14.6125H0.0673828V43.9443H6.10711V14.6125ZM30.266 14.6125H24.2263V43.9443H30.266V14.6125ZM48.3386 55.047L48.4628 55.0626C49.5963 55.3121 50.4968 55.8734 51.1644 56.7623C51.8165 57.6667 52.1426 58.805 52.1426 60.1617C52.1426 61.5183 51.8165 62.6567 51.1489 63.5611C50.4813 64.4655 49.5807 65.0269 48.4318 65.2608L48.3231 65.2764C47.9815 65.3388 47.6399 65.37 47.2828 65.37C46.9257 65.37 46.5686 65.3388 46.2426 65.2764L46.1494 65.2608C45.5284 65.1361 45.0005 64.8866 44.5657 64.5123V70.2664H42.4231V54.9534H44.5657V55.8111C45.0005 55.4524 45.5128 55.2029 46.1184 55.0626L46.2271 55.047C46.5686 54.9846 46.9257 54.9534 47.2828 54.9534C47.6399 54.9534 47.9971 54.9846 48.3386 55.047ZM47.2828 63.2336C48.3076 63.2336 49.0373 62.8906 49.4876 62.2201C49.8292 61.7055 49.9999 61.0193 49.9999 60.1617C49.9999 59.304 49.8292 58.6179 49.4876 58.1033C49.0373 57.4328 48.2921 57.0897 47.2828 57.0897C46.2736 57.0897 45.5439 57.4172 45.0936 58.0877C44.7521 58.6023 44.5813 59.2884 44.5813 60.1461V60.1929C44.5813 61.0505 44.7521 61.7366 45.0936 62.2356C45.5439 62.9062 46.2736 63.2336 47.2828 63.2336ZM60.682 55.8111C60.2473 55.4368 59.7194 55.2029 59.1139 55.0626L59.0052 55.0314C58.6791 54.969 58.322 54.9534 57.9649 54.9534C57.6078 54.9534 57.2662 54.9846 56.9247 55.0314L56.816 55.0626C55.667 55.2965 54.7665 55.8578 54.0989 56.7467C53.4312 57.6511 53.1052 58.7894 53.1052 60.1617C53.1052 61.5183 53.4312 62.6567 54.0989 63.5455C54.751 64.4499 55.636 65.0113 56.7849 65.2608L56.9091 65.2764C57.2507 65.3388 57.5923 65.37 57.9649 65.37C58.3375 65.37 58.6791 65.3388 59.0207 65.2764L59.1449 65.2608C59.7349 65.1205 60.2473 64.871 60.682 64.5123V65.37H62.8246V54.9534H60.682V55.8111ZM60.682 60.1773C60.682 61.0349 60.5112 61.7211 60.1696 62.2201C59.7194 62.8906 58.9896 63.218 57.9804 63.218C56.9712 63.218 56.226 62.875 55.7757 62.2045C55.4341 61.7055 55.2633 61.0193 55.2633 60.1617C55.2633 59.304 55.4341 58.6179 55.7757 58.1033C56.226 57.4328 56.9557 57.1053 57.9804 57.1053C58.9896 57.1053 59.7194 57.4328 60.1696 58.1033C60.5112 58.6179 60.682 59.304 60.682 60.1617V60.1773ZM65.3554 51.6475H67.4981V55.1405L69.0041 54.9534V57.1053L67.4981 57.2924V61.3156V62.1265C67.4981 62.5631 67.5912 62.875 67.7775 63.0465C67.9173 63.1712 68.1346 63.2336 68.4296 63.2336H68.9886V65.3855H68.4296C67.4981 65.3855 66.7528 65.0737 66.1938 64.4811C65.6349 63.8886 65.3554 63.0933 65.3554 62.1265V61.3156V57.2924L63.8494 57.1053V54.9534L65.3554 55.1405V51.6475ZM76.7517 55.4056C76.1462 55.0937 75.4786 54.9534 74.7489 54.9534C74.0036 54.9534 73.336 55.1093 72.746 55.4056L72.4665 55.5927V50.0726H70.3239V65.3855H72.4665V60.0993C72.4665 59.2572 72.6218 58.5867 72.9168 58.0877C73.3049 57.4328 73.9104 57.1053 74.7644 57.1053C75.6183 57.1053 76.2394 57.4484 76.6275 58.1189C76.9225 58.6335 77.0623 59.3196 77.0623 60.1773V65.3855H79.2049V60.1773C79.2049 59.0389 78.9875 58.0565 78.5528 57.23C78.1181 56.4036 77.5281 55.7954 76.7517 55.4056ZM81.6581 56.3724C82.5431 55.4212 83.7231 54.9534 85.1981 54.9534C86.673 54.9534 87.853 55.4212 88.738 56.3724C89.623 57.308 90.0578 58.5711 90.0578 60.1617C90.0578 61.7366 89.623 63.0153 88.738 63.951C87.853 64.9022 86.673 65.37 85.1981 65.37C83.7231 65.37 82.5431 64.9022 81.6581 63.951C80.7731 63.0153 80.3383 61.7522 80.3383 60.1617C80.3383 58.5867 80.7731 57.308 81.6581 56.3724ZM85.1981 63.2336C86.2228 63.2336 86.9525 62.9062 87.4028 62.2356C87.7444 61.7211 87.9151 61.0193 87.9151 60.1773C87.9151 59.3196 87.7444 58.6335 87.4028 58.1189C86.9525 57.4484 86.2073 57.1209 85.1981 57.1209C84.1733 57.1209 83.4436 57.4484 82.9933 58.1189C82.6517 58.6335 82.4809 59.3196 82.4809 60.1773C82.4809 61.0349 82.6517 61.7211 82.9933 62.2356C83.4436 62.9062 84.1888 63.2336 85.1981 63.2336ZM93.458 50.0726H91.3154V65.3855H93.458V50.0726ZM96.051 56.3724C96.936 55.4212 98.116 54.9534 99.591 54.9534C101.066 54.9534 102.246 55.4212 103.131 56.3724C104.016 57.308 104.451 58.5711 104.451 60.1617C104.451 61.7366 104.016 63.0153 103.131 63.951C102.246 64.9022 101.066 65.37 99.591 65.37C98.116 65.37 96.936 64.9022 96.051 63.951C95.166 63.0153 94.7312 61.7522 94.7312 60.1617C94.7312 58.5867 95.166 57.308 96.051 56.3724ZM99.591 63.2336C100.616 63.2336 101.345 62.9062 101.796 62.2356C102.137 61.7211 102.308 61.0193 102.308 60.1773C102.308 59.3196 102.137 58.6335 101.796 58.1189C101.345 57.4484 100.6 57.1209 99.591 57.1209C98.5663 57.1209 97.8365 57.4484 97.3862 58.1189C97.0447 58.6335 96.8739 59.3196 96.8739 60.1773C96.8739 61.0349 97.0447 61.7211 97.3862 62.2356C97.8365 62.9062 98.5818 63.2336 99.591 63.2336ZM113.052 55.8266C112.618 55.4524 112.09 55.2029 111.484 55.0781L111.391 55.0626C111.065 55.0002 110.708 54.969 110.351 54.969C109.994 54.969 109.652 55.0002 109.31 55.0626L109.202 55.0781C108.053 55.312 107.152 55.8734 106.485 56.7779C105.817 57.6823 105.491 58.8206 105.491 60.1773C105.491 61.5339 105.817 62.6723 106.469 63.5767C107.121 64.4655 108.022 65.0425 109.171 65.2764L109.279 65.292C109.621 65.3544 109.978 65.3856 110.335 65.3856C110.692 65.3856 111.049 65.3544 111.375 65.292L111.5 65.2764C112.105 65.1361 112.618 64.8866 113.037 64.5279V65.6974C113.037 67.7402 112.028 68.7538 110.009 68.7538C109.45 68.7538 108.953 68.6602 108.534 68.4887C107.975 68.2548 107.571 67.8806 107.323 67.3504L105.398 68.3016C105.817 69.1436 106.423 69.783 107.214 70.2352C108.006 70.6874 108.953 70.9057 110.025 70.9057C111.593 70.9057 112.85 70.4379 113.782 69.4867C114.714 68.5511 115.195 67.2724 115.195 65.6974V54.9534H113.052V55.8266ZM113.052 60.1929C113.052 61.0505 112.881 61.7366 112.54 62.2356C112.09 62.9062 111.36 63.2492 110.351 63.2492C109.341 63.2492 108.596 62.9062 108.146 62.2356C107.804 61.7211 107.634 61.0349 107.634 60.1773C107.634 59.3196 107.804 58.6335 108.146 58.1189C108.596 57.4484 109.326 57.1053 110.351 57.1053C111.36 57.1053 112.09 57.4328 112.54 58.1033C112.881 58.6179 113.052 59.2884 113.052 60.1461V60.1929ZM123.408 60.2552V54.969H125.551V65.9157C125.551 67.366 125.116 68.5355 124.247 69.4087C123.393 70.282 122.244 70.7186 120.784 70.7186C119.806 70.7186 118.937 70.5159 118.207 70.1104C117.462 69.6894 116.918 69.0969 116.53 68.3172L118.455 67.366C118.673 67.8182 119.014 68.1456 119.496 68.3484C119.853 68.4887 120.287 68.5667 120.769 68.5667C122.523 68.5667 123.393 67.6778 123.393 65.9157V64.7618C123.3 64.8242 123.206 64.8866 123.113 64.9333C122.523 65.2296 121.84 65.3856 121.11 65.3856C120.381 65.3856 119.713 65.2452 119.107 64.9333C118.347 64.5435 117.741 63.9509 117.322 63.1245C116.887 62.298 116.67 61.3156 116.67 60.1773V54.969H118.812V60.1773C118.812 61.0349 118.952 61.721 119.247 62.2356C119.635 62.9062 120.256 63.2336 121.11 63.2336C121.964 63.2336 122.57 62.9062 122.958 62.2668C123.253 61.7678 123.408 61.0973 123.408 60.2552Z" fill="#033572"/>
<path fill-rule="evenodd" clip-rule="evenodd" d="M91.8439 14.8465L92.1389 14.9401C95.3684 15.5794 97.9147 17.17 99.7934 19.6961C101.657 22.2379 102.588 25.4502 102.588 29.2862C102.588 33.1067 101.672 36.2878 99.8244 38.814C97.9923 41.3402 95.4615 42.9463 92.2476 43.6168L91.9215 43.6792C90.9589 43.8507 89.9807 43.9443 88.9405 43.9443C87.9002 43.9443 86.9065 43.8507 85.9594 43.6792L85.6644 43.6168C83.9721 43.2426 82.5281 42.5409 81.3171 41.5273V43.9599H75.2773V0.905762H81.3171V17.0296C82.5436 16.0004 84.0186 15.2987 85.7421 14.9401L86.006 14.8465C86.9376 14.6906 87.9157 14.6126 88.9249 14.6126C89.9342 14.6126 90.9123 14.6906 91.8439 14.8465ZM88.9249 37.894C91.7663 37.894 93.8313 36.9427 95.1044 35.0559C96.0515 33.6213 96.5328 31.6877 96.5328 29.2862C96.5328 26.8692 96.0515 24.9356 95.1044 23.4854C93.8468 21.6142 91.7818 20.6785 88.9249 20.6785C86.0836 20.6785 84.0342 21.6142 82.761 23.4854C81.7829 24.92 81.3015 26.8536 81.3015 29.2551V29.3174C81.3015 31.7345 81.7829 33.6525 82.761 35.0871C84.0342 36.9583 86.0836 37.894 88.9249 37.894ZM12.1475 14.6126H18.1872V26.2455H12.1475V14.6126ZM12.1475 32.3114H18.1872V43.9443H12.1475V32.3114ZM63.6172 17.0296C62.3906 16.0004 60.9156 15.2987 59.2077 14.9401L58.9127 14.8465C57.9811 14.6906 57.003 14.6126 55.9937 14.6126C54.9845 14.6126 54.0064 14.6906 53.0748 14.8465L52.7798 14.9401C49.5503 15.5794 47.004 17.1544 45.1409 19.6961C43.2777 22.2379 42.3461 25.4502 42.3461 29.2862C42.3461 33.1067 43.2777 36.2878 45.1409 38.814C46.9574 41.3401 49.4882 42.9463 52.7022 43.6168L53.0282 43.6792C53.9753 43.8507 54.969 43.9443 56.0093 43.9443C57.0495 43.9443 58.0277 43.8507 58.9903 43.6792L59.3164 43.6168C60.9777 43.2426 62.4216 42.5409 63.6327 41.5273V43.9443H69.6724V14.6438H63.6327V17.0296H63.6172ZM63.6172 29.3174C63.6172 31.7344 63.1358 33.6525 62.1577 35.0871C60.8845 36.9583 58.8351 37.8939 56.0093 37.8939C53.1524 37.8939 51.0874 36.9427 49.8298 35.0559C48.8827 33.6213 48.4014 31.7033 48.4014 29.2862C48.4014 26.8692 48.8827 24.9356 49.8298 23.4854C51.103 21.6141 53.1524 20.6785 56.0093 20.6785C58.8506 20.6785 60.9 21.6141 62.1577 23.4854C63.1358 24.92 63.6172 26.838 63.6172 29.255V29.3174ZM125.055 14.9401L124.76 14.8465C123.828 14.6906 122.85 14.6126 121.841 14.6126C120.831 14.6126 119.853 14.6906 118.922 14.8621L118.658 14.9557C116.934 15.3143 115.459 16.016 114.233 17.0452V0.905762H108.193V43.9599H114.233V41.5273C115.444 42.5409 116.888 43.2426 118.58 43.6168L118.875 43.6792C119.822 43.8507 120.816 43.9443 121.856 43.9443C122.896 43.9443 123.875 43.8507 124.837 43.6792L125.163 43.6168C128.377 42.9463 130.908 41.3402 132.74 38.814C134.588 36.2878 135.504 33.1067 135.504 29.2862C135.504 25.4502 134.572 22.2379 132.709 19.6961C130.83 17.17 128.284 15.5794 125.055 14.9401ZM128.02 35.0559C126.747 36.9427 124.682 37.894 121.841 37.894C118.999 37.894 116.95 36.9583 115.677 35.0871C114.699 33.6525 114.217 31.7345 114.217 29.3174V29.2551C114.217 26.8536 114.699 24.92 115.677 23.4854C116.95 21.6142 118.999 20.6785 121.841 20.6785C124.698 20.6785 126.763 21.6142 128.02 23.4854C128.967 24.9356 129.449 26.8692 129.449 29.2862C129.449 31.6877 128.983 33.6213 128.02 35.0559ZM143.593 18.6202C146.077 15.9536 149.384 14.6126 153.53 14.6126C157.675 14.6126 160.998 15.9536 163.467 18.6202C165.951 21.2711 167.193 24.8264 167.193 29.2862C167.193 33.746 165.951 37.3014 163.467 39.9523C160.983 42.6188 157.675 43.9599 153.53 43.9599C149.384 43.9599 146.077 42.6188 143.593 39.9523C141.124 37.3014 139.882 33.746 139.882 29.2862C139.882 24.8264 141.109 21.2711 143.593 18.6202ZM153.53 37.8783C156.387 37.8783 158.452 36.9427 159.725 35.0715C160.703 33.6213 161.184 31.6877 161.184 29.2706C161.184 26.8536 160.703 24.92 159.725 23.4698C158.452 21.5985 156.387 20.6629 153.53 20.6629C150.689 20.6629 148.624 21.5985 147.35 23.4698C146.403 24.92 145.922 26.8536 145.922 29.2706C145.922 31.6877 146.403 33.6213 147.35 35.0715C148.608 36.9427 150.673 37.8783 153.53 37.8783ZM180.608 5.31878H174.584V15.1116L170.36 14.597V20.6629L174.584 21.1775V32.4985V34.7752C174.584 37.5041 175.375 39.7184 176.959 41.4025C178.543 43.0867 180.639 43.9443 183.232 43.9443H184.8V37.8784H183.232C182.424 37.8784 181.819 37.7068 181.415 37.3638C180.887 36.8648 180.608 35.9915 180.608 34.7596V32.483V21.1619L184.831 20.6474V14.5814L180.608 15.096V5.31878ZM203.726 20.6786L199.503 21.1931H199.488V32.4986V34.7752C199.488 36.0071 199.752 36.8804 200.295 37.3794C200.699 37.7224 201.304 37.894 202.112 37.894H203.695V43.9599H202.112C199.519 43.9599 197.423 43.1179 195.839 41.4181C194.255 39.734 193.464 37.5197 193.464 34.7908V32.5142V21.1931L189.24 20.6786V14.6126L193.464 15.1272V5.33439H199.503V15.1272L203.726 14.6126V20.6786Z" fill="#ED255C"/>
</svg>
