<svg width="207" height="70" viewBox="0 0 207 70" fill="none" xmlns="http://www.w3.org/2000/svg">
<path fill-rule="evenodd" clip-rule="evenodd" d="M5.99273 13.7039H0V42.8692H5.99273V13.7039ZM29.9637 13.7039H23.9709V42.8692H29.9637V13.7039ZM47.8957 54.2313L48.0189 54.2468C49.1435 54.4949 50.037 55.053 50.6995 55.9368C51.3465 56.8361 51.67 57.968 51.67 59.317C51.67 60.6659 51.3465 61.7978 50.6841 62.6971C50.0216 63.5964 49.1281 64.1546 47.9881 64.3872L47.8803 64.4027C47.5413 64.4647 47.2024 64.4957 46.8481 64.4957C46.4938 64.4957 46.1394 64.4647 45.8159 64.4027L45.7235 64.3872C45.1073 64.2631 44.5835 64.0151 44.1521 63.6429V69.3644H42.0262V54.1382H44.1521V54.991C44.5835 54.6344 45.0919 54.3863 45.6927 54.2468L45.8005 54.2313C46.1394 54.1692 46.4938 54.1382 46.8481 54.1382C47.2024 54.1382 47.5567 54.1692 47.8957 54.2313ZM46.8481 62.3715C47.8649 62.3715 48.5889 62.0304 49.0357 61.3637C49.3746 60.852 49.544 60.1698 49.544 59.317C49.544 58.4642 49.3746 57.782 49.0357 57.2703C48.5889 56.6036 47.8494 56.2624 46.8481 56.2624C45.8467 56.2624 45.1227 56.5881 44.6759 57.2548C44.337 57.7665 44.1675 58.4487 44.1675 59.3015V59.348C44.1675 60.2008 44.337 60.883 44.6759 61.3792C45.1227 62.0459 45.8467 62.3715 46.8481 62.3715ZM60.1429 54.991C59.7116 54.6189 59.1878 54.3863 58.587 54.2468L58.4791 54.2158C58.1556 54.1537 57.8013 54.1382 57.447 54.1382C57.0927 54.1382 56.7537 54.1692 56.4148 54.2158L56.307 54.2468C55.167 54.4793 54.2734 55.0375 53.611 55.9213C52.9486 56.8206 52.6251 57.9525 52.6251 59.317C52.6251 60.6659 52.9486 61.7978 53.611 62.6816C54.258 63.5809 55.1362 64.1391 56.2762 64.3872L56.3994 64.4027C56.7383 64.4647 57.0772 64.4957 57.447 64.4957C57.8167 64.4957 58.1556 64.4647 58.4945 64.4027L58.6178 64.3872C59.2032 64.2476 59.7116 63.9996 60.1429 63.6429V64.4957H62.2689V54.1382H60.1429V54.991ZM60.1429 59.3325C60.1429 60.1853 59.9735 60.8675 59.6346 61.3637C59.1878 62.0304 58.4637 62.356 57.4624 62.356C56.461 62.356 55.7216 62.0149 55.2748 61.3482C54.9359 60.852 54.7664 60.1698 54.7664 59.317C54.7664 58.4642 54.9359 57.782 55.2748 57.2703C55.7216 56.6036 56.4456 56.278 57.4624 56.278C58.4637 56.278 59.1878 56.6036 59.6346 57.2703C59.9735 57.782 60.1429 58.4642 60.1429 59.317V59.3325ZM64.7801 50.8511H66.906V54.3242L68.4004 54.1382V56.2779L66.906 56.464V60.4643V61.2706C66.906 61.7047 66.9985 62.0148 67.1833 62.1854C67.322 62.3094 67.5377 62.3715 67.8304 62.3715H68.385V64.5112H67.8304C66.906 64.5112 66.1666 64.2011 65.612 63.6119C65.0574 63.0227 64.7801 62.2319 64.7801 61.2706V60.4643V56.464L63.2858 56.2779V54.1382L64.7801 54.3242V50.8511ZM76.1031 54.5879C75.5023 54.2778 74.8398 54.1383 74.1158 54.1383C73.3763 54.1383 72.7139 54.2933 72.1285 54.5879L71.8512 54.774V49.2851H69.7252V64.5113H71.8512V59.255C71.8512 58.4177 72.0052 57.751 72.2979 57.2548C72.6831 56.6036 73.2839 56.278 74.1312 56.278C74.9785 56.278 75.5947 56.6191 75.9798 57.2858C76.2725 57.7975 76.4112 58.4797 76.4112 59.3325V64.5113H78.5372V59.3325C78.5372 58.2006 78.3215 57.2238 77.8901 56.402C77.4434 55.5802 76.858 54.9755 76.1031 54.5879ZM80.9557 55.5492C81.8339 54.6034 83.0047 54.1382 84.4682 54.1382C85.9317 54.1382 87.1025 54.6034 87.9806 55.5492C88.8587 56.4795 89.2901 57.7354 89.2901 59.317C89.2901 60.883 88.8587 62.1544 87.9806 63.0847C87.1025 64.0306 85.9317 64.4957 84.4682 64.4957C83.0047 64.4957 81.8339 64.0306 80.9557 63.0847C80.0776 62.1544 79.6463 60.8985 79.6463 59.317C79.6463 57.7509 80.0776 56.4795 80.9557 55.5492ZM84.4682 62.3715C85.4849 62.3715 86.209 62.0459 86.6558 61.3792C86.9947 60.852 87.1641 60.1698 87.1641 59.3325C87.1641 58.4797 86.9947 57.7975 86.6558 57.2858C86.209 56.6191 85.4695 56.2935 84.4682 56.2935C83.4514 56.2935 82.7274 56.6191 82.2806 57.2858C81.9417 57.7975 81.7722 58.4797 81.7722 59.3325C81.7722 60.1853 81.9417 60.8675 82.2806 61.3792C82.7274 62.0459 83.4668 62.3715 84.4682 62.3715ZM92.664 49.2851H90.538V64.5113H92.664V49.2851ZM95.2367 55.5492C96.1148 54.6034 97.2856 54.1382 98.7491 54.1382C100.213 54.1382 101.383 54.6034 102.262 55.5492C103.14 56.4795 103.571 57.7354 103.571 59.317C103.571 60.883 103.14 62.1544 102.262 63.0847C101.383 64.0306 100.213 64.4957 98.7491 64.4957C97.2856 64.4957 96.1148 64.0306 95.2367 63.0847C94.3585 62.1544 93.9272 60.8985 93.9272 59.317C93.9272 57.7509 94.3585 56.4795 95.2367 55.5492ZM98.7491 62.3715C99.7659 62.3715 100.49 62.0459 100.937 61.3792C101.276 60.852 101.445 60.1698 101.445 59.3325C101.445 58.4797 101.276 57.7975 100.937 57.2858C100.49 56.6191 99.7505 56.2935 98.7491 56.2935C97.7324 56.2935 97.0083 56.6191 96.5615 57.2858C96.2226 57.7975 96.0532 58.4797 96.0532 59.3325C96.0532 60.1853 96.2226 60.8675 96.5615 61.3792C97.0083 62.0459 97.7478 62.3715 98.7491 62.3715ZM112.106 55.0065C111.674 54.6344 111.15 54.3863 110.55 54.2623L110.457 54.2468C110.134 54.1847 109.779 54.1537 109.425 54.1537C109.071 54.1537 108.732 54.1847 108.393 54.2468L108.285 54.2623C107.145 54.4949 106.252 55.053 105.589 55.9523C104.927 56.8516 104.603 57.9835 104.603 59.3325C104.603 60.6814 104.927 61.8133 105.574 62.7126C106.221 63.5964 107.114 64.1701 108.254 64.4027L108.362 64.4182C108.701 64.4802 109.055 64.5112 109.41 64.5112C109.764 64.5112 110.118 64.4802 110.442 64.4182L110.565 64.4027C111.166 64.2631 111.674 64.0151 112.09 63.6584V64.8213C112.09 66.8525 111.089 67.8603 109.086 67.8603C108.532 67.8603 108.039 67.7673 107.623 67.5968C107.068 67.3642 106.667 66.9921 106.421 66.4649L104.511 67.4107C104.927 68.248 105.527 68.8837 106.313 69.3333C107.099 69.783 108.039 70.0001 109.102 70.0001C110.657 70.0001 111.905 69.5349 112.83 68.5891C113.754 67.6588 114.232 66.3874 114.232 64.8213V54.1382H112.106V55.0065ZM112.106 59.348C112.106 60.2008 111.936 60.883 111.597 61.3792C111.15 62.0459 110.426 62.387 109.425 62.387C108.424 62.387 107.684 62.0459 107.237 61.3792C106.899 60.8675 106.729 60.1853 106.729 59.3325C106.729 58.4797 106.899 57.7975 107.237 57.2858C107.684 56.6191 108.408 56.278 109.425 56.278C110.426 56.278 111.15 56.6036 111.597 57.2703C111.936 57.782 112.106 58.4487 112.106 59.3015V59.348ZM122.381 59.3945V54.1382H124.507V65.0229C124.507 66.4649 124.076 67.6278 123.213 68.4961C122.366 69.3644 121.226 69.7985 119.778 69.7985C118.807 69.7985 117.944 69.5969 117.22 69.1938C116.481 68.7752 115.942 68.186 115.556 67.4107L117.467 66.4649C117.682 66.9145 118.021 67.2401 118.499 67.4417C118.853 67.5813 119.285 67.6588 119.762 67.6588C121.503 67.6588 122.366 66.775 122.366 65.0229V63.8755C122.273 63.9375 122.181 63.9995 122.088 64.0461C121.503 64.3407 120.825 64.4957 120.101 64.4957C119.377 64.4957 118.715 64.3562 118.114 64.0461C117.359 63.6584 116.758 63.0692 116.342 62.2475C115.911 61.4257 115.695 60.4489 115.695 59.317V54.1382H117.821V59.317C117.821 60.1698 117.96 60.852 118.252 61.3637C118.638 62.0304 119.254 62.356 120.101 62.356C120.948 62.356 121.549 62.0304 121.934 61.3947C122.227 60.8985 122.381 60.2318 122.381 59.3945Z" fill="#033572"/>
<path fill-rule="evenodd" clip-rule="evenodd" d="M41.949 0H47.9417V42.8099H41.949V0ZM17.9781 13.7038H11.9854V25.2707H17.9781V13.7038ZM17.9781 31.4013H11.9854V42.9682H17.9781V31.4013ZM73.407 16.0324C72.19 15.009 70.7265 14.3113 69.0319 13.9547L68.7392 13.8616C67.8148 13.7066 66.8443 13.6291 65.8429 13.6291C64.8416 13.6291 63.871 13.7066 62.9467 13.8616L62.654 13.9547C59.4497 14.5904 56.9232 16.1564 55.0745 18.6838C53.2258 21.2266 52.3015 24.4052 52.3015 28.2195C52.3015 32.0183 53.2258 35.1813 55.0745 37.6932C56.8769 40.205 59.388 41.802 62.577 42.4688L62.9005 42.5308C63.8402 42.7169 64.8262 42.7944 65.8583 42.7944C66.8751 42.7944 67.8611 42.7013 68.8162 42.5308L69.1397 42.4688C70.7881 42.0966 72.2208 41.3989 73.4224 40.3911V42.7944H79.4152V13.6601H73.407V16.0324ZM73.407 28.2505C73.407 30.6538 72.9295 32.5609 71.9589 33.9874C70.6957 35.848 68.6621 36.7783 65.8583 36.7783C63.0237 36.7783 60.9748 35.8325 59.7116 33.9564C58.7718 32.5299 58.2943 30.6228 58.2943 28.2195C58.2943 25.8162 58.7718 23.909 59.7116 22.4515C60.9748 20.5909 63.0237 19.6606 65.8583 19.6606C68.6775 19.6606 70.7111 20.5909 71.9589 22.4515C72.9295 23.878 73.407 25.7852 73.407 28.1885V28.2505ZM90.1065 13.6601L97.3316 33.9564L104.618 13.6601H110.996L100.521 42.7944H94.1427L83.7594 13.6601H90.1065ZM134.212 16.7146C131.855 14.6524 128.867 13.6291 125.277 13.6291C121.164 13.6291 117.883 14.9625 115.418 17.6139C112.953 20.2498 111.736 23.785 111.736 28.2195C111.736 32.654 112.999 36.1892 115.51 38.825C118.006 41.4764 121.364 42.8099 125.57 42.8099C128.482 42.8099 131.07 42.1742 133.334 40.9027C135.599 39.6623 137.263 37.9102 138.357 35.6775L132.98 33.0261C132.41 34.189 131.47 35.1193 130.176 35.786C128.851 36.4372 127.326 36.7629 125.57 36.7629C121.256 36.7629 118.73 34.7782 117.96 30.8244H138.819V28.204V27.9404C138.819 26.9636 138.742 26.0332 138.588 25.1184C138.033 21.5677 136.585 18.7613 134.212 16.7146ZM118.052 25.1339C118.899 21.4902 121.303 19.6761 125.277 19.6761C129.252 19.6761 131.655 21.4902 132.502 25.1339H118.052ZM149.171 16.0944C150.373 15.0866 151.805 14.3888 153.485 13.9857L153.777 13.9082C154.733 13.7376 155.703 13.6446 156.735 13.6446V19.6761C153.916 19.6761 151.883 20.6064 150.619 22.4671C149.649 23.8935 149.171 25.8007 149.171 28.204V42.7944H143.178V13.6911H149.171V16.0944ZM171.247 4.38798H165.27V14.1253L161.08 13.6136V19.6451L165.27 20.1568V31.4136V33.6773C165.27 36.3907 166.056 38.5925 167.627 40.267C169.198 41.9571 171.278 42.7944 173.851 42.7944H175.407V36.7629H173.851C173.05 36.7629 172.449 36.5923 172.048 36.2512C171.524 35.755 171.247 34.8867 171.247 33.6618V31.3981V20.1413L175.437 19.6296V13.5981L171.247 14.1097V4.38798ZM197.745 34.065C198.561 32.654 198.992 30.7778 199.008 28.4211V13.6601H205.001V44.2674C205.001 48.3453 203.784 51.6014 201.365 54.0357C198.977 56.47 195.742 57.6949 191.69 57.6949C188.948 57.6949 186.545 57.1212 184.496 55.9738C182.447 54.7954 180.891 53.1209 179.828 50.9501L185.205 48.2987C185.821 49.5392 186.791 50.454 188.132 51.0277C189.164 51.4463 190.35 51.6479 191.706 51.6479C196.589 51.6479 199.023 49.1825 199.023 44.2519V41.0423C198.761 41.2284 198.499 41.3834 198.222 41.523C196.543 42.3758 194.679 42.7944 192.615 42.7944C190.55 42.7944 188.671 42.3758 187.007 41.523C184.866 40.4531 183.202 38.763 182.016 36.4683C180.814 34.1425 180.213 31.3981 180.213 28.204V13.6446H186.206V28.204C186.206 30.6228 186.622 32.5454 187.423 33.9719C188.486 35.8326 190.211 36.7629 192.615 36.7629C194.972 36.7629 196.682 35.8636 197.745 34.065Z" fill="#ED255C"/>
</svg>
