<svg width="159" height="70" viewBox="0 0 159 70" fill="none" xmlns="http://www.w3.org/2000/svg">
<path fill-rule="evenodd" clip-rule="evenodd" d="M124.516 0H130.545V43.0445H124.516V0ZM18.0866 13.7038H12.0576V25.334H18.0866V13.7038ZM18.0866 31.3986H12.0576V43.0289H18.0866V31.3986ZM63.4358 13.7038H69.4337V56.7171H63.4048V40.5657C62.1804 41.5946 60.7235 42.3118 59.0186 42.6859L58.7242 42.7483C57.7942 42.9198 56.8178 43.0133 55.8104 43.0133C54.803 43.0133 53.8266 42.9198 52.8967 42.7483L52.6022 42.6859C49.3784 42.0312 46.8367 40.4409 44.9768 37.9153C43.117 35.3741 42.1871 32.1781 42.1871 28.3585C42.1871 24.5389 43.117 21.3585 44.9768 18.8018C46.8057 16.3073 49.3165 14.7015 52.5247 14.0311L52.8502 13.9688C53.8111 13.7973 54.7875 13.7038 55.8259 13.7038C56.8643 13.7038 57.8562 13.7973 58.8017 13.9688L59.1271 14.0311C60.7855 14.4053 62.2269 15.1069 63.4358 16.1202V13.7038ZM55.8259 36.9799C58.6622 36.9799 60.708 36.0445 61.9789 34.1737C62.9553 32.755 63.4358 30.853 63.4358 28.4365V28.3118C63.4358 25.8953 62.9553 23.9777 61.9789 22.5434C60.708 20.6726 58.6622 19.7372 55.8259 19.7372C52.9896 19.7372 50.9283 20.6882 49.6574 22.5746C48.712 24.0089 48.2315 25.9421 48.2315 28.3741C48.2315 30.7906 48.712 32.7082 49.6574 34.1425C50.9128 36.0289 52.9741 36.9799 55.8259 36.9799ZM81.0888 43.0445V28.1714C81.1043 25.8017 81.5382 23.9153 82.3597 22.5278C83.4291 20.7037 85.1494 19.7839 87.5207 19.7839C89.9385 19.7839 91.6744 20.7349 92.7438 22.6213C93.5497 24.0556 93.9682 25.9732 93.9682 28.3897V43.0601H99.9972V28.3897V28.265C100.013 25.8797 100.431 23.9777 101.237 22.559C102.322 20.7037 104.058 19.7839 106.429 19.7839C108.847 19.7839 110.583 20.7349 111.652 22.6213C112.489 24.0556 112.892 25.9732 112.892 28.3897V43.0601H118.89V28.3897C118.89 25.2093 118.286 22.4498 117.077 20.1113C115.883 17.8039 114.209 16.1046 112.055 14.9977C110.397 14.1402 108.506 13.7193 106.414 13.7193C104.337 13.7193 102.461 14.1402 100.772 14.9977C99.2997 15.7928 98.1218 16.9777 97.2074 18.5523C96.1225 16.9933 94.7586 15.8084 93.1468 14.9977C91.4729 14.1402 89.5821 13.7193 87.5052 13.7193C85.4284 13.7193 83.5531 14.1402 81.8637 14.9977C81.5847 15.1536 81.3213 15.3251 81.0578 15.5122V13.7505H75.0288V43.0445H81.0888Z" fill="#ED255C"/>
<path fill-rule="evenodd" clip-rule="evenodd" d="M6.02899 13.7037H0V43.0289H6.02899V13.7037ZM30.1449 13.7037H24.1159V43.0289H30.1449V13.7037ZM83.8169 62.657C83.1504 63.5612 82.2515 64.1225 81.1046 64.3563L80.9961 64.3719C80.6552 64.4343 80.3142 64.4655 79.9577 64.4655C79.6012 64.4655 79.2448 64.4343 78.9193 64.3719L78.8263 64.3563C78.2064 64.2316 77.6794 63.9822 77.2454 63.608V69.3608H75.1066V54.0512H77.2454V54.9087C77.6794 54.5501 78.1909 54.3007 78.7953 54.1603L78.9038 54.1448C79.2448 54.0824 79.6012 54.0512 79.9577 54.0512C80.3142 54.0512 80.6707 54.0824 81.0116 54.1448L81.1356 54.1603C82.2825 54.3942 83.1814 54.971 83.8324 55.8597C84.4833 56.7639 84.8088 57.902 84.8088 59.2583C84.8088 60.6147 84.4833 61.7528 83.8169 62.657ZM77.2609 59.2739C77.2609 60.1314 77.4314 60.8174 77.7724 61.3162C78.2219 61.971 78.9503 62.314 79.9577 62.2984C80.9806 62.2984 81.7091 61.9554 82.1585 61.2851C82.4995 60.7862 82.67 60.1002 82.67 59.2428C82.67 58.3853 82.4995 57.6993 82.1585 57.1848C81.7091 56.5145 80.9651 56.1715 79.9577 56.1715C78.9503 56.1715 78.2219 56.4989 77.7724 57.1693C77.4314 57.6837 77.2609 58.3697 77.2609 59.2272V59.2739ZM95.4874 64.4498V54.0511H93.3486V54.893C92.9146 54.5188 92.3877 54.285 91.7832 54.1447L91.6747 54.1135C91.3493 54.0511 90.9928 54.0355 90.6363 54.0355C90.2798 54.0355 89.9389 54.0667 89.5979 54.1135L89.4894 54.1447C88.3425 54.3785 87.4436 54.9398 86.7771 55.8284C86.1107 56.7326 85.7852 57.8707 85.7852 59.2427C85.7852 60.599 86.1107 61.7371 86.7771 62.6257C87.4281 63.53 88.3115 64.0912 89.4584 64.3407L89.5824 64.3563C89.9234 64.4186 90.2643 64.4498 90.6363 64.4498C91.0083 64.4498 91.3493 64.4186 91.6902 64.3563L91.8142 64.3407C92.4032 64.2004 92.9146 63.9509 93.3486 63.5923V64.4498H95.4874ZM92.8216 61.3162C92.3722 61.9865 91.6437 62.3139 90.6363 62.3139C89.6289 62.3139 88.885 61.971 88.4355 61.3006C88.0945 60.7861 87.924 60.1001 87.924 59.2583C87.924 58.4008 88.0945 57.7148 88.4355 57.2004C88.885 56.53 89.6134 56.2026 90.6363 56.2026C91.6437 56.2026 92.3722 56.53 92.8216 57.2004C93.1626 57.7148 93.3331 58.4008 93.3331 59.2583V59.2739C93.3331 60.1157 93.1626 60.8017 92.8216 61.3162ZM101.067 62.314H101.625V64.4655H101.067C100.137 64.4655 99.3931 64.1537 98.8351 63.5613C98.2772 62.9688 97.9982 62.1737 97.9982 61.2071V60.3964V56.3742L96.4948 56.1871V54.0356L97.9982 54.2227V50.7305H100.137V54.2227L101.64 54.0356V56.1871L100.137 56.3742V60.3964V61.2071C100.137 61.6437 100.23 61.9555 100.416 62.127C100.555 62.2517 100.772 62.314 101.067 62.314ZM111.808 64.4654V59.2583C111.808 58.1202 111.591 57.138 111.157 56.3118C110.738 55.4855 110.134 54.8775 109.374 54.4877C108.77 54.1759 108.103 54.0356 107.375 54.0356C106.631 54.0356 105.965 54.1915 105.376 54.4877L105.097 54.6748V49.1558H102.958V64.4654H105.097V59.1804C105.097 58.3385 105.252 57.6681 105.546 57.1692C105.934 56.5144 106.538 56.187 107.39 56.187C108.243 56.187 108.863 56.53 109.25 57.2004C109.545 57.7149 109.684 58.4008 109.684 59.2583V64.4654H111.808ZM121.339 55.4699C122.223 56.4053 122.657 57.6681 122.657 59.2583C122.657 60.833 122.207 62.0958 121.339 63.0468C120.456 63.9978 119.278 64.4655 117.806 64.4655C116.333 64.4655 115.155 63.9978 114.272 63.0468C113.388 62.1113 112.954 60.8485 112.954 59.2583C112.954 57.6837 113.388 56.4053 114.272 55.4699C115.155 54.5189 116.333 54.0512 117.806 54.0512C119.278 54.0512 120.456 54.5189 121.339 55.4699ZM117.806 62.314C118.828 62.314 119.557 61.9866 120.006 61.3162C120.347 60.8018 120.518 60.1158 120.518 59.2583C120.518 58.4009 120.347 57.7149 120.006 57.2004C119.557 56.5301 118.813 56.2027 117.806 56.2027C116.783 56.2027 116.054 56.5301 115.605 57.2004C115.264 57.7149 115.093 58.4009 115.093 59.2583C115.093 60.1158 115.264 60.8018 115.605 61.3162C116.054 61.9866 116.798 62.314 117.806 62.314ZM126.051 49.1558H123.912V64.4654H126.051V49.1558ZM135.706 55.4699C136.59 56.4053 137.024 57.6681 137.024 59.2583C137.024 60.833 136.59 62.0958 135.706 63.0468C134.823 63.9978 133.645 64.4655 132.173 64.4655C130.7 64.4655 129.522 63.9978 128.639 63.0468C127.756 62.1113 127.322 60.8485 127.322 59.2583C127.322 57.6837 127.756 56.4053 128.639 55.4699C129.522 54.5189 130.7 54.0512 132.173 54.0512C133.645 54.0512 134.823 54.5189 135.706 55.4699ZM132.173 62.314C133.196 62.314 133.924 61.9866 134.374 61.3162C134.715 60.8018 134.901 60.1158 134.885 59.2583C134.885 58.4009 134.715 57.7149 134.374 57.2004C133.924 56.5301 133.18 56.2027 132.173 56.2027C131.15 56.2027 130.421 56.5301 129.972 57.2004C129.631 57.7149 129.461 58.4009 129.461 59.2583C129.461 60.1158 129.631 60.8018 129.972 61.3162C130.421 61.9866 131.165 62.314 132.173 62.314ZM139.783 69.3296C140.573 69.7817 141.518 70 142.588 70C144.153 70 145.409 69.5323 146.339 68.5813C147.269 67.6459 147.749 66.3675 147.749 64.7929V54.0512H145.61V54.9087C145.176 54.5345 144.649 54.2851 144.045 54.1603L143.952 54.1448C143.626 54.0824 143.27 54.0512 142.913 54.0512C142.557 54.0512 142.216 54.0824 141.875 54.1448L141.766 54.1603C140.62 54.3942 139.721 54.9554 139.054 55.8597C138.388 56.7639 138.062 57.902 138.062 59.2583C138.062 60.6147 138.388 61.7528 139.039 62.657C139.69 63.5456 140.589 64.1225 141.735 64.3563L141.844 64.3719C142.185 64.4343 142.541 64.4655 142.898 64.4655C143.254 64.4655 143.611 64.4343 143.936 64.3719L144.06 64.3563C144.665 64.216 145.176 63.9666 145.595 63.608V64.7929C145.595 66.8352 144.587 67.8485 142.572 67.8485C142.014 67.8485 141.518 67.755 141.1 67.5835C140.542 67.3497 140.139 66.9755 139.891 66.4454L137.969 67.3964C138.388 68.2383 138.992 68.8775 139.783 69.3296ZM145.099 61.3162C144.649 61.9866 143.921 62.3296 142.913 62.3296C141.906 62.3296 141.162 61.9866 140.713 61.3162C140.372 60.8018 140.201 60.1158 140.201 59.2583C140.201 58.4009 140.372 57.7149 140.713 57.2004C141.162 56.5301 141.89 56.1871 142.913 56.1871C143.921 56.1871 144.649 56.5145 145.099 57.1848C145.44 57.6993 145.61 58.3697 145.61 59.2272V59.2739C145.61 60.1314 145.44 60.8174 145.099 61.3162ZM155.498 61.3318C155.793 60.8329 155.948 60.1625 155.948 59.3206V54.0355H158.087V64.9799C158.087 66.4298 157.653 67.599 156.785 68.4721C155.932 69.3451 154.785 69.7817 153.328 69.7817C152.352 69.7817 151.484 69.579 150.756 69.1736C150.012 68.7527 149.469 68.1603 149.082 67.3808L151.004 66.4298C151.221 66.8819 151.562 67.2093 152.042 67.4119C152.399 67.5522 152.833 67.6302 153.313 67.6302C155.064 67.6302 155.932 66.7416 155.932 64.9799V63.8262L155.932 63.8263C155.839 63.8886 155.746 63.9509 155.653 63.9977C155.064 64.2939 154.382 64.4498 153.654 64.4498C152.926 64.4498 152.259 64.3095 151.655 63.9977C150.895 63.6079 150.291 63.0155 149.872 62.1892C149.438 61.3629 149.221 60.3808 149.221 59.2427V54.0355H151.36V59.2427C151.36 60.1001 151.5 60.7861 151.794 61.3006C152.182 61.971 152.802 62.2984 153.654 62.2984C154.506 62.2984 155.111 61.971 155.498 61.3318Z" fill="#033572"/>
</svg>
