<svg width="127" height="70" viewBox="0 0 127 70" fill="none" xmlns="http://www.w3.org/2000/svg">
<path fill-rule="evenodd" clip-rule="evenodd" d="M112.307 0H118.368V43.0541H112.307V0ZM46.6583 4.41301H52.7029V14.1902L56.9403 13.6757V19.7416L52.7029 20.2562V31.5772V33.8539C52.7029 35.1014 52.9833 35.959 53.513 36.458C53.918 36.8011 54.5256 36.9726 55.3357 36.9726H56.9248V43.0385H55.3357C52.7341 43.0385 50.6309 42.1965 49.0419 40.4968C47.4528 38.8127 46.6583 36.5984 46.6583 33.8695V31.5928V20.2718L42.4209 19.7572V13.6912L46.6583 14.2058V4.41301ZM18.1803 13.7068H12.1201V25.3397H18.1803V13.7068ZM18.1803 31.4057H12.1201V43.0385H18.1803V31.4057ZM99.8132 15.0011C98.1463 14.1434 96.2457 13.7224 94.1425 13.7224C92.055 13.7224 90.1699 14.1434 88.4718 15.0011C86.9919 15.7963 85.8079 16.9815 84.8887 18.5564C83.7982 16.997 82.4273 15.8119 80.8071 15.0011C79.1246 14.1434 77.2239 13.7224 75.1364 13.7224C73.0488 13.7224 71.1638 14.1434 69.4657 15.0011C69.1853 15.157 68.9204 15.3285 68.6556 15.5156V13.7536H62.5954V43.0541H68.6556V28.1777C68.6712 25.8075 69.1074 23.9206 69.9331 22.5328C71.008 20.7083 72.7372 19.7883 75.1208 19.7883C77.5511 19.7883 79.2959 20.7395 80.3709 22.6264C81.181 24.061 81.6016 25.979 81.6016 28.396V43.0697H87.6618V28.396V28.2713C87.6773 25.8854 88.0979 23.983 88.908 22.564C89.9986 20.7083 91.7434 19.7883 94.127 19.7883C96.5572 19.7883 98.3021 20.7395 99.377 22.6264C100.218 24.061 100.623 25.979 100.623 28.396V43.0697H106.652V28.396C106.652 25.2149 106.045 22.4548 104.83 20.1158C103.661 17.7923 101.979 16.0926 99.8132 15.0011Z" fill="#ED255C"/>
<path fill-rule="evenodd" clip-rule="evenodd" d="M6.06015 13.7068H0V43.0385H6.06015V13.7068ZM30.3008 13.7068H24.2406V43.0385H30.3008V13.7068ZM51.2543 62.6553C50.5844 63.5597 49.6808 64.1211 48.528 64.355L48.4189 64.3706C48.0762 64.433 47.7334 64.4642 47.3751 64.4642C47.0168 64.4642 46.6585 64.433 46.3314 64.3706L46.2379 64.355C45.6147 64.2303 45.0851 63.9808 44.6488 63.6065V69.3606H42.499V54.0476H44.6488V54.9052C45.0851 54.5466 45.5992 54.2971 46.2067 54.1567L46.3158 54.1411C46.6585 54.0788 47.0168 54.0476 47.3751 54.0476C47.7334 54.0476 48.0918 54.0788 48.4345 54.1411L48.5591 54.1567C49.712 54.3906 50.6155 54.9676 51.2698 55.8564C51.9241 56.7609 52.2513 57.8992 52.2513 59.2559C52.2513 60.6125 51.9241 61.7509 51.2543 62.6553ZM44.6644 59.2871C44.6644 60.1447 44.8358 60.8308 45.1785 61.3298C45.6303 61.9848 46.3625 62.3278 47.3751 62.3122C48.4033 62.3122 49.1355 61.9692 49.5873 61.2986C49.9301 60.7996 50.1014 60.1135 50.1014 59.2559C50.1014 58.3982 49.9301 57.7121 49.5873 57.1975C49.1355 56.527 48.3878 56.1839 47.3751 56.1839C46.3625 56.1839 45.6303 56.5114 45.1785 57.1819C44.8358 57.6965 44.6644 58.3826 44.6644 59.2403V59.2871ZM60.8197 54.0632V54.9052C60.3835 54.531 59.8538 54.2971 59.2462 54.1567L59.1371 54.1255C58.81 54.0632 58.4517 54.0476 58.0934 54.0476C57.7351 54.0476 57.3923 54.0788 57.0496 54.1255L56.9405 54.1567C55.7877 54.3906 54.8841 54.952 54.2142 55.8409C53.5444 56.7453 53.2172 57.8836 53.2172 59.2559C53.2172 60.6125 53.5444 61.7509 54.2142 62.6397C54.8686 63.5441 55.7565 64.1055 56.9094 64.355L57.034 64.3706C57.3767 64.433 57.7195 64.4642 58.0934 64.4642C58.4673 64.4642 58.81 64.433 59.1527 64.3706L59.2774 64.355C59.8694 64.2147 60.3835 63.9652 60.8197 63.6065V64.4642H62.9695V54.0476H60.8197V54.0632ZM60.8197 59.2715C60.8197 60.1291 60.6483 60.8152 60.3056 61.3142C59.8538 61.9848 59.1216 62.3122 58.1089 62.3122C57.0963 62.3122 56.3485 61.9692 55.8968 61.2986C55.554 60.7996 55.3827 60.1135 55.3827 59.2559C55.3827 58.3982 55.554 57.7121 55.8968 57.1975C56.3485 56.527 57.0807 56.1995 58.1089 56.1995C59.1216 56.1995 59.8538 56.527 60.3056 57.1975C60.6483 57.7121 60.8197 58.3982 60.8197 59.2559V59.2715ZM67.9392 62.1408C68.0794 62.2655 68.2975 62.3279 68.5935 62.3279H69.1543V64.4798H68.5935C67.6587 64.4798 66.911 64.1679 66.3501 63.5754C65.7893 62.9828 65.5089 62.1875 65.5089 61.2207V60.4099V56.3867L63.9977 56.1996V54.0477L65.5089 54.2348V50.7418H67.6588V54.2348L69.1699 54.0477V56.1996L67.6588 56.3867V60.4099V61.2207C67.6588 61.6574 67.7522 61.9692 67.9392 62.1408ZM78.7508 56.3243C78.3302 55.4978 77.7226 54.8897 76.9593 54.4998C76.3517 54.188 75.6818 54.0476 74.9496 54.0476C74.2018 54.0476 73.5319 54.2035 72.9399 54.4998L72.6595 54.687V49.1668H70.5097V64.4798H72.6595V59.1935C72.6595 58.3515 72.8153 57.6809 73.1113 57.1819C73.5008 56.527 74.1084 56.1995 74.9652 56.1995C75.822 56.1995 76.4452 56.5426 76.8346 57.2131C77.1306 57.7277 77.2709 58.4138 77.2709 59.2715V64.4798H79.4207V59.2715C79.3896 58.1332 79.1715 57.1508 78.7508 56.3243ZM88.9705 55.4666C89.8585 56.4022 90.2948 57.6653 90.2948 59.2559C90.2948 60.8464 89.843 62.1095 88.9705 63.0451C88.0826 63.9963 86.8986 64.4642 85.4186 64.4642C83.9386 64.4642 82.7546 63.9963 81.8666 63.0451C80.9786 62.1095 80.5424 60.8464 80.5424 59.2559C80.5424 57.6809 80.9786 56.4022 81.8666 55.4666C82.7546 54.5154 83.9386 54.0476 85.4186 54.0476C86.8986 54.0476 88.0826 54.5154 88.9705 55.4666ZM85.4186 62.3278C86.4468 62.3278 87.179 62.0004 87.6308 61.3298C87.9735 60.7996 88.1449 60.1135 88.1449 59.2715C88.1449 58.4138 87.9735 57.7277 87.6308 57.2131C87.179 56.5426 86.4312 56.2151 85.4186 56.2151C84.3904 56.2151 83.6582 56.5426 83.2064 57.2131C82.8637 57.7277 82.6923 58.4138 82.6923 59.2715C82.6923 60.1291 82.8637 60.8152 83.2064 61.3298C83.6582 62.0004 84.406 62.3278 85.4186 62.3278ZM93.7065 49.1668H91.5566V64.4798H93.7065V49.1668ZM103.412 55.4666C104.3 56.4022 104.736 57.6653 104.736 59.2559C104.736 60.8464 104.3 62.1095 103.412 63.0451C102.524 63.9963 101.34 64.4642 99.8601 64.4642C98.3802 64.4642 97.1962 63.9963 96.3082 63.0451C95.4202 62.1095 94.984 60.8464 94.984 59.2559C94.984 57.6809 95.4202 56.4022 96.3082 55.4666C97.1962 54.5154 98.3802 54.0476 99.8601 54.0476C101.34 54.0476 102.524 54.5154 103.412 55.4666ZM99.8601 62.3278C100.888 62.3278 101.621 62.0004 102.072 61.3298C102.415 60.7996 102.586 60.1135 102.586 59.2715C102.586 58.4138 102.415 57.7277 102.072 57.2131C101.621 56.5426 100.873 56.2151 99.8601 56.2151C98.8319 56.2151 98.0997 56.5426 97.6479 57.2131C97.3052 57.7277 97.1339 58.4138 97.1339 59.2715C97.1339 60.1291 97.3052 60.8152 97.6479 61.3298C98.0997 62.0004 98.8475 62.3278 99.8601 62.3278ZM115.517 54.0632H113.367V54.9209C112.931 54.5466 112.401 54.2972 111.793 54.1724L111.7 54.1568C111.373 54.0944 111.015 54.0632 110.656 54.0632C110.298 54.0632 109.955 54.0944 109.612 54.1568L109.503 54.1724C108.351 54.4063 107.447 54.9677 106.777 55.8721C106.107 56.7765 105.78 57.9149 105.78 59.2715C105.78 60.6282 106.107 61.7665 106.762 62.671C107.416 63.5598 108.319 64.1368 109.472 64.3707L109.581 64.3863C109.924 64.4486 110.282 64.4798 110.641 64.4798C110.999 64.4798 111.357 64.4486 111.684 64.3863L111.809 64.3707C112.417 64.2303 112.931 63.9808 113.351 63.6222V64.7917C113.351 66.8345 112.339 67.8481 110.313 67.8481C109.753 67.8481 109.254 67.7545 108.833 67.583C108.273 67.3491 107.868 66.9748 107.618 66.4446L105.687 67.3958C106.107 68.2379 106.715 68.8772 107.509 69.3295C108.304 69.7817 109.254 70 110.329 70C111.903 70 113.164 69.5322 114.099 68.581C115.034 67.6453 115.517 66.3667 115.517 64.7917V54.0632ZM112.853 61.3299C112.401 62.0004 111.669 62.3435 110.656 62.3435C109.644 62.3435 108.896 62.0004 108.444 61.3299C108.101 60.8153 107.93 60.1292 107.93 59.2715C107.93 58.4139 108.101 57.7278 108.444 57.2132C108.896 56.5426 109.628 56.1996 110.656 56.1996C111.669 56.1996 112.401 56.5271 112.853 57.1976C113.196 57.7122 113.367 58.3827 113.367 59.2403V59.2871C113.367 60.1448 113.196 60.8153 112.853 61.3299ZM123.758 54.0632H125.908V65.01C125.908 66.4602 125.472 67.6297 124.599 68.503C123.742 69.3762 122.59 69.8129 121.125 69.8129C120.144 69.8129 119.271 69.6101 118.539 69.2047C117.791 68.7837 117.246 68.1911 116.857 67.4114L118.788 66.4602C119.006 66.9124 119.349 67.2399 119.832 67.4426C120.19 67.583 120.627 67.6609 121.11 67.6609C122.87 67.6609 123.742 66.7721 123.742 65.01V63.8561C123.649 63.9185 123.555 63.9808 123.462 64.0276C122.87 64.3239 122.185 64.4798 121.452 64.4798C120.72 64.4798 120.05 64.3395 119.443 64.0276C118.679 63.6378 118.072 63.0452 117.651 62.2187C117.215 61.3923 116.997 60.4099 116.997 59.2715V54.0632H119.147V59.2715C119.147 60.1292 119.287 60.8153 119.583 61.3299C119.972 62.0004 120.595 62.3279 121.452 62.3279C122.309 62.3279 122.917 62.0004 123.306 61.3611C123.602 60.8621 123.758 60.1916 123.758 59.3495V54.0632Z" fill="#033572"/>
</svg>
