<svg width="260" height="70" viewBox="0 0 260 70" fill="none" xmlns="http://www.w3.org/2000/svg">
<path fill-rule="evenodd" clip-rule="evenodd" d="M6.01833 13.7068H0V43.0385H6.01833V13.7068ZM50.4323 47.765V53.8896C49.9699 53.4901 49.4085 53.2405 48.7645 53.0907L48.6489 53.0574C48.3022 52.9908 47.9224 52.9742 47.5426 52.9742C47.1628 52.9742 46.7996 53.0075 46.4363 53.0574L46.3207 53.0907C45.0988 53.3403 44.1411 53.9395 43.4311 54.8881C42.721 55.8534 42.3743 57.0684 42.3743 58.5329C42.3743 59.9809 42.721 61.1958 43.4311 62.1444C44.1246 63.1097 45.0658 63.7089 46.2877 63.9752L46.4198 63.9918C46.7831 64.0584 47.1463 64.0917 47.5426 64.0917C47.9389 64.0917 48.3022 64.0584 48.6655 63.9918L48.7976 63.9752C49.425 63.8254 49.9699 63.5591 50.4323 63.1763V64.0917H52.711V47.7483H50.4323V47.765ZM50.4323 58.5496C50.4323 59.4649 50.2506 60.1972 49.8874 60.7298C49.4085 61.4454 48.6324 61.7949 47.5591 61.7949C46.4858 61.7949 45.6932 61.4288 45.2144 60.7131C44.8511 60.1639 44.6695 59.4316 44.6695 58.5329C44.6695 57.6176 44.8511 56.8853 45.2144 56.3361C45.6932 55.6204 46.4693 55.2709 47.5591 55.2709C48.6324 55.2709 49.4085 55.6204 49.8874 56.3361C50.2506 56.8853 50.4323 57.6176 50.4323 58.5329V58.5496ZM56.1455 52.9742H53.8668V64.1083H56.1455V52.9742ZM55.8813 51.1934C55.6502 51.4264 55.3529 51.5596 55.0062 51.5596C54.6594 51.5596 54.3622 51.4431 54.1145 51.1934C53.8834 50.9438 53.7513 50.6442 53.7513 50.2947C53.7513 49.9452 53.8668 49.6456 54.1145 49.396C54.3622 49.1463 54.6594 49.0299 55.0062 49.0299C55.3529 49.0299 55.6337 49.163 55.8813 49.396C56.1125 49.6456 56.2446 49.9452 56.2446 50.2947C56.2446 50.6442 56.129 50.9438 55.8813 51.1934ZM65.3428 52.9908V53.8896C64.8805 53.4901 64.3191 53.2405 63.6751 53.0907L63.5595 53.0574C63.2127 52.9909 62.833 52.9742 62.4532 52.9742C62.0734 52.9742 61.7101 53.0075 61.3469 53.0574L61.2313 53.0907C60.0094 53.3404 59.0517 53.9395 58.3416 54.8881C57.6316 55.8534 57.2848 57.0684 57.2848 58.5329C57.2848 59.9809 57.6316 61.1958 58.3416 62.1444C59.0351 63.1097 59.9763 63.7089 61.1982 63.9752L61.3303 63.9918C61.6936 64.0584 62.0569 64.0917 62.4532 64.0917C62.8495 64.0917 63.2127 64.0584 63.576 63.9918L63.7081 63.9752C64.3356 63.8254 64.8805 63.5591 65.3428 63.1763V64.0917H67.6215V52.9742H65.3428V52.9908ZM65.3428 58.5496C65.3428 59.4649 65.1612 60.1972 64.7979 60.7298C64.3191 61.4454 63.543 61.7949 62.4697 61.7949C61.3964 61.7949 60.6038 61.4288 60.125 60.7132C59.7617 60.1639 59.5801 59.4317 59.5801 58.5329C59.5801 57.6176 59.7617 56.8853 60.125 56.3361C60.6038 55.6204 61.3799 55.2709 62.4697 55.2709C63.543 55.2709 64.3191 55.6204 64.7979 56.3361C65.1612 56.8853 65.3428 57.6176 65.3428 58.5329V58.5496ZM76.8024 52.9909H79.081V64.4412C79.081 66.1221 78.5692 67.4868 77.5784 68.4854C76.5877 69.5006 75.2502 69.9999 73.5825 69.9999C72.4431 69.9999 71.4359 69.7669 70.5937 69.2843C69.7516 68.8016 69.1076 68.1192 68.6618 67.2205L70.7093 66.2053C70.9735 66.7712 71.4028 67.1706 71.9973 67.4202C72.4431 67.6033 72.9715 67.7032 73.566 67.7032C75.7125 67.7032 76.7858 66.6214 76.7858 64.4412V63.193C76.34 63.5757 75.7951 63.842 75.1511 63.9918L75.019 64.0085C74.6723 64.075 74.2925 64.1083 73.9127 64.1083C73.5329 64.1083 73.1531 64.075 72.7899 64.0085L72.6743 63.9918C71.4524 63.7422 70.4947 63.1264 69.8012 62.1777C69.1076 61.2124 68.7609 59.9975 68.7609 58.5496C68.7609 57.1017 69.1076 55.8867 69.8177 54.9214C70.5277 53.9561 71.4854 53.357 72.7073 53.1074L72.8229 53.0907C73.1862 53.0241 73.5494 52.9909 73.9292 52.9909C74.309 52.9909 74.6888 53.0241 75.0355 53.0907L75.1346 53.1074C75.7786 53.2405 76.34 53.5068 76.8024 53.9062V52.9909ZM73.9127 61.8282C74.986 61.8282 75.7621 61.4621 76.2409 60.7464C76.6207 60.1972 76.8024 59.4816 76.7858 58.5662V58.5163C76.7858 57.6009 76.6042 56.8853 76.2409 56.3361C75.7621 55.6204 74.986 55.2709 73.9127 55.2709C72.8229 55.2709 72.0468 55.6371 71.568 56.3527C71.2047 56.9019 71.0231 57.6342 71.0231 58.5496C71.0231 59.4649 71.2047 60.1972 71.568 60.7464C72.0468 61.4621 72.8394 61.8282 73.9127 61.8282ZM88.8893 55.4041C88.4435 54.522 87.7995 53.8729 86.9904 53.4569C86.3464 53.124 85.6364 52.9742 84.8603 52.9742C84.0677 52.9742 83.3577 53.1406 82.7302 53.4569L82.433 53.6566V52.9908H80.1543V64.1083H82.433V58.4664C82.433 57.5676 82.5981 56.852 82.9119 56.3194C83.3247 55.6204 83.9687 55.2709 84.8768 55.2709C85.785 55.2709 86.4455 55.6371 86.8583 56.3527C87.172 56.9019 87.3206 57.6342 87.3206 58.5496V64.1083H89.5993V58.5496C89.5663 57.3346 89.3517 56.2861 88.8893 55.4041ZM99.5397 54.4887C100.481 55.4873 100.943 56.8354 100.943 58.5329C100.943 60.2305 100.464 61.5786 99.5397 62.5772C98.5985 63.5924 97.3436 64.0917 95.7749 64.0917C94.2063 64.0917 92.9513 63.5924 92.0101 62.5772C91.0689 61.5786 90.6066 60.2305 90.6066 58.5329C90.6066 56.852 91.0689 55.4873 92.0101 54.4887C92.9513 53.4735 94.2063 52.9742 95.7749 52.9742C97.3436 52.9742 98.5985 53.4735 99.5397 54.4887ZM95.7749 61.8116C96.8648 61.8116 97.6408 61.4621 98.1197 60.7464C98.4829 60.1806 98.6646 59.4483 98.6646 58.5496C98.6646 57.6342 98.4829 56.9019 98.1197 56.3527C97.6408 55.6371 96.8482 55.2876 95.7749 55.2876C94.6851 55.2876 93.9091 55.6371 93.4302 56.3527C93.0669 56.9019 92.8853 57.6342 92.8853 58.5496C92.8853 59.4649 93.0669 60.1972 93.4302 60.7464C93.9091 61.4621 94.7016 61.8116 95.7749 61.8116ZM110.57 60.6799C110.57 59.7812 110.256 59.0156 109.612 58.3831C108.836 57.6342 107.73 57.2681 106.277 57.2681C106.062 57.2681 105.864 57.2514 105.699 57.2348C105.468 57.2015 105.269 57.1682 105.104 57.1016C104.659 56.9352 104.427 56.6523 104.427 56.2695C104.427 55.8867 104.659 55.6038 105.104 55.4374C105.269 55.3708 105.468 55.3375 105.699 55.3042C105.88 55.2876 106.079 55.2709 106.277 55.2709C106.475 55.2709 106.673 55.2876 106.855 55.3042C107.086 55.3209 107.267 55.3708 107.433 55.4374C107.878 55.6038 108.11 55.8534 108.126 56.2196L110.405 56.0365C110.339 55.2044 110.008 54.5054 109.398 53.9561C108.654 53.2904 107.631 52.9742 106.293 52.9742C104.89 52.9742 103.816 53.3403 103.09 54.056C102.479 54.6551 102.165 55.3874 102.165 56.2695C102.165 57.1516 102.479 57.8839 103.09 58.4996C103.833 59.2153 104.89 59.5814 106.293 59.5814C106.524 59.5814 106.723 59.5981 106.921 59.6147C107.168 59.648 107.4 59.6979 107.581 59.7812C108.06 59.9642 108.308 60.2638 108.308 60.6965C108.308 61.1292 108.06 61.4454 107.581 61.6285C107.4 61.7117 107.168 61.7617 106.921 61.7949C106.723 61.8116 106.508 61.8282 106.293 61.8282C106.062 61.8282 105.864 61.8116 105.666 61.7949C105.418 61.7617 105.187 61.7117 105.005 61.6285C104.526 61.4454 104.279 61.1459 104.279 60.7132L102 60.8962C102.05 61.7783 102.396 62.5106 103.04 63.0764C103.816 63.7754 104.906 64.125 106.31 64.125C107.763 64.125 108.886 63.7588 109.645 63.0099C110.256 62.3608 110.57 61.5952 110.57 60.6799ZM115.788 61.6119C115.936 61.745 116.168 61.8116 116.481 61.8116H117.076V64.1083H116.481C115.491 64.1083 114.698 63.7755 114.104 63.143C113.509 62.5106 113.212 61.6618 113.212 60.6299V59.7645V55.4706L111.61 55.2709V52.9742L113.212 53.1739V49.4459H115.491V53.1739L117.092 52.9742V55.2709L115.491 55.4706V59.7645V60.6299C115.491 61.0959 115.59 61.4288 115.788 61.6119ZM119.387 51.5596C119.734 51.5596 120.031 51.4264 120.263 51.1934C120.51 50.9438 120.626 50.6442 120.626 50.2947C120.626 49.9452 120.494 49.6456 120.263 49.396C120.015 49.163 119.734 49.0299 119.387 49.0299C119.041 49.0299 118.744 49.1463 118.496 49.396C118.248 49.6456 118.133 49.9452 118.133 50.2947C118.133 50.6442 118.265 50.9438 118.496 51.1934C118.744 51.4431 119.041 51.5596 119.387 51.5596ZM118.248 64.1083V52.9742H120.527V64.1083H118.248ZM131.475 61.2957L129.41 60.347C128.965 61.329 128.122 61.8116 126.851 61.8116C125.778 61.8116 125.002 61.4621 124.506 60.7464C124.143 60.1972 123.961 59.4649 123.961 58.5496C123.961 57.6342 124.143 56.9019 124.506 56.3527C125.002 55.6371 125.778 55.2876 126.851 55.2876C128.106 55.2876 128.948 55.7702 129.394 56.7355L131.458 55.7702C131.045 54.8882 130.451 54.2058 129.642 53.7232C128.833 53.2405 127.908 52.9909 126.851 52.9909C125.282 52.9909 124.027 53.4901 123.086 54.5054C122.145 55.5039 121.683 56.8687 121.683 58.5496C121.683 60.2472 122.145 61.5952 123.086 62.5938C124.027 63.609 125.282 64.1083 126.851 64.1083C127.924 64.1083 128.849 63.8587 129.658 63.376C130.451 62.8767 131.062 62.1944 131.475 61.2957ZM146.732 62.1611C146.022 63.1264 145.064 63.7255 143.842 63.9752L143.727 63.9918C143.363 64.0584 143 64.0917 142.62 64.0917C142.241 64.0917 141.861 64.0584 141.514 63.9918L141.415 63.9752C140.754 63.842 140.193 63.5757 139.731 63.1763V69.3175H137.452V52.9742H139.731V53.8896C140.193 53.5068 140.738 53.2405 141.382 53.0907L141.497 53.0741C141.861 53.0075 142.241 52.9742 142.62 52.9742C143 52.9742 143.38 53.0075 143.743 53.0741L143.875 53.0907C145.097 53.3404 146.055 53.9561 146.748 54.9048C147.442 55.8701 147.789 57.085 147.789 58.5329C147.789 59.9809 147.442 61.1958 146.732 62.1611ZM139.747 58.5662C139.747 59.4816 139.929 60.2139 140.292 60.7464C140.771 61.4454 141.547 61.8116 142.62 61.7949C143.71 61.7949 144.486 61.4288 144.965 60.7132C145.328 60.1806 145.51 59.4483 145.51 58.5329C145.51 57.6176 145.328 56.8853 144.965 56.3361C144.486 55.6204 143.694 55.2543 142.62 55.2543C141.547 55.2543 140.771 55.6038 140.292 56.3194C139.929 56.8686 139.747 57.6009 139.747 58.5163V58.5662ZM156.87 52.9908V53.8896C156.408 53.4901 155.847 53.2405 155.203 53.0907L155.104 53.0574C154.757 52.9909 154.377 52.9742 153.997 52.9742C153.617 52.9742 153.254 53.0075 152.891 53.0574L152.775 53.0907C151.553 53.3404 150.596 53.9395 149.886 54.8881C149.176 55.8534 148.829 57.0684 148.829 58.5329C148.829 59.9809 149.176 61.1958 149.886 62.1444C150.579 63.1097 151.52 63.7089 152.742 63.9752L152.874 63.9918C153.238 64.0584 153.601 64.0917 153.997 64.0917C154.393 64.0917 154.757 64.0584 155.12 63.9918L155.252 63.9752C155.88 63.8254 156.424 63.5591 156.887 63.1763V64.0917H159.166V52.9742H156.87V52.9908ZM156.87 58.5496C156.87 59.4649 156.689 60.1972 156.325 60.7298C155.847 61.4454 155.07 61.7949 153.997 61.7949C152.924 61.7949 152.131 61.4288 151.652 60.7132C151.289 60.1639 151.108 59.4317 151.108 58.5329C151.108 57.6176 151.289 56.8853 151.652 56.3361C152.131 55.6204 152.907 55.2709 153.997 55.2709C155.07 55.2709 155.847 55.6204 156.325 56.3361C156.689 56.8853 156.87 57.6176 156.87 58.5329V58.5496ZM164.416 61.6119C164.565 61.745 164.796 61.8116 165.11 61.8116H165.704V64.1083H165.11C164.119 64.1083 163.327 63.7755 162.732 63.143C162.138 62.5106 161.841 61.6618 161.841 60.6299V59.7645V55.4706L160.239 55.2709V52.9742L161.841 53.1739V49.4459H164.119V53.1739L165.721 52.9742V55.2709L164.119 55.4706V59.7645V60.6299C164.119 61.0959 164.218 61.4288 164.416 61.6119ZM175.876 55.4041C175.43 54.522 174.786 53.8729 173.977 53.4569C173.333 53.124 172.623 52.9742 171.847 52.9742C171.054 52.9742 170.344 53.1406 169.717 53.4569L169.42 53.6566V47.765H167.141V64.1083H169.42V58.4664C169.42 57.5676 169.585 56.852 169.898 56.3194C170.311 55.6204 170.955 55.2709 171.863 55.2709C172.772 55.2709 173.432 55.6371 173.845 56.3527C174.159 56.9019 174.307 57.6342 174.307 58.5496V64.1083H176.586V58.5496C176.553 57.3346 176.322 56.2861 175.876 55.4041ZM186.708 54.4887C187.649 55.4873 188.112 56.8354 188.112 58.5329C188.112 60.2305 187.649 61.5786 186.708 62.5772C185.767 63.5924 184.512 64.0917 182.943 64.0917C181.375 64.0917 180.12 63.5924 179.178 62.5772C178.237 61.5786 177.775 60.2305 177.775 58.5329C177.775 56.852 178.237 55.4873 179.178 54.4887C180.12 53.4735 181.375 52.9742 182.943 52.9742C184.512 52.9742 185.767 53.4735 186.708 54.4887ZM182.943 61.8116C184.033 61.8116 184.809 61.4621 185.288 60.7464C185.651 60.1806 185.833 59.4483 185.833 58.5496C185.833 57.6342 185.651 56.9019 185.288 56.3527C184.809 55.6371 184.017 55.2876 182.943 55.2876C181.853 55.2876 181.077 55.6371 180.599 56.3527C180.235 56.9019 180.054 57.6342 180.054 58.5496C180.054 59.4649 180.235 60.1972 180.599 60.7464C181.077 61.4621 181.87 61.8116 182.943 61.8116ZM191.728 47.765H189.449V64.1083H191.728V47.765ZM202.015 54.4887C202.956 55.4873 203.418 56.8354 203.418 58.5329C203.418 60.2305 202.956 61.5786 202.015 62.5772C201.074 63.5924 199.819 64.0917 198.25 64.0917C196.681 64.0917 195.426 63.5924 194.485 62.5772C193.544 61.5786 193.082 60.2305 193.082 58.5329C193.082 56.852 193.544 55.4873 194.485 54.4887C195.426 53.4735 196.681 52.9742 198.25 52.9742C199.819 52.9742 201.074 53.4735 202.015 54.4887ZM198.25 61.8116C199.34 61.8116 200.116 61.4621 200.595 60.7464C200.958 60.1806 201.156 59.4483 201.14 58.5496C201.14 57.6342 200.958 56.9019 200.595 56.3527C200.116 55.6371 199.323 55.2876 198.25 55.2876C197.16 55.2876 196.384 55.6371 195.905 56.3527C195.542 56.9019 195.36 57.6342 195.36 58.5496C195.36 59.4649 195.542 60.1972 195.905 60.7464C196.384 61.4621 197.177 61.8116 198.25 61.8116ZM214.861 52.9909H212.583V53.9062C212.12 53.5068 211.559 53.2405 210.915 53.1074L210.816 53.0907C210.469 53.0241 210.089 52.9909 209.71 52.9909C209.33 52.9909 208.967 53.0241 208.603 53.0907L208.488 53.1074C207.266 53.357 206.308 53.9561 205.598 54.9214C204.888 55.8867 204.541 57.1017 204.541 58.5496C204.541 59.9975 204.888 61.2124 205.582 62.1777C206.275 63.1264 207.233 63.7422 208.455 63.9918L208.57 64.0085C208.934 64.075 209.313 64.1083 209.693 64.1083C210.073 64.1083 210.453 64.075 210.799 64.0085L210.932 63.9918C211.575 63.842 212.12 63.5757 212.566 63.193V64.4412C212.566 66.6214 211.493 67.7032 209.346 67.7032C208.752 67.7032 208.223 67.6033 207.778 67.4202C207.183 67.1706 206.754 66.7712 206.49 66.2053L204.442 67.2205C204.888 68.1192 205.532 68.8016 206.374 69.2843C207.216 69.7669 208.223 69.9999 209.363 69.9999C211.031 69.9999 212.368 69.5006 213.359 68.4854C214.35 67.4868 214.861 66.1221 214.861 64.4412V52.9909ZM212.021 60.7464C211.542 61.4621 210.766 61.8282 209.693 61.8282C208.62 61.8282 207.827 61.4621 207.348 60.7464C206.985 60.1972 206.803 59.4649 206.803 58.5496C206.803 57.6342 206.985 56.9019 207.348 56.3527C207.827 55.6371 208.603 55.2709 209.693 55.2709C210.766 55.2709 211.542 55.6204 212.021 56.3361C212.385 56.8853 212.566 57.6009 212.566 58.5163V58.5662C212.566 59.4816 212.385 60.1972 212.021 60.7464ZM223.58 52.9909H225.859V64.6742C225.859 66.222 225.396 67.4702 224.472 68.4022C223.563 69.3342 222.341 69.8002 220.789 69.8002C219.749 69.8002 218.824 69.5838 218.048 69.1511C217.256 68.7018 216.678 68.0693 216.265 67.2372L218.312 66.222C218.544 66.7046 218.907 67.0541 219.419 67.2705C219.799 67.4202 220.261 67.5035 220.773 67.5035C222.639 67.5035 223.563 66.5548 223.563 64.6742V63.4426C223.464 63.5092 223.365 63.5757 223.266 63.6257C222.639 63.9419 221.912 64.1083 221.136 64.1083C220.36 64.1083 219.65 63.9585 219.006 63.6257C218.197 63.2096 217.553 62.5772 217.107 61.6951C216.645 60.813 216.414 59.7645 216.414 58.5496V52.9909H218.692V58.5496C218.692 59.4649 218.841 60.1972 219.155 60.7464C219.567 61.4621 220.228 61.8116 221.136 61.8116C222.044 61.8116 222.688 61.4621 223.101 60.7797C223.415 60.2472 223.58 59.5315 223.58 58.6328V52.9909ZM24.0733 13.7068H30.0917V43.0385H24.0733V13.7068Z" fill="#033572"/>
<path fill-rule="evenodd" clip-rule="evenodd" d="M159.271 0H165.958V10.8928L170.647 10.3195V17.0776L165.958 17.6509V30.2636V32.8C165.958 34.1725 166.269 35.1454 166.855 35.7013C167.303 36.0835 167.975 36.2746 168.871 36.2746H170.612V43.0327H168.871C165.993 43.0327 163.666 42.0945 161.908 40.2009C160.15 38.3246 159.271 35.8577 159.271 32.8174V30.281V17.6682L154.582 17.0949V10.3369L159.271 10.9102V0ZM138.449 22.9669C137.828 22.9669 137.259 22.9322 136.725 22.8627C136.036 22.7758 135.467 22.6368 134.984 22.4631C133.657 21.9767 133.002 21.1601 133.002 20.0309C133.002 18.9017 133.657 18.0851 134.984 17.5987C135.467 17.425 136.053 17.286 136.725 17.1991C137.259 17.1296 137.828 17.0949 138.449 17.0949C139.035 17.0949 139.604 17.1296 140.138 17.1991C140.793 17.2686 141.362 17.3902 141.862 17.5987C143.154 18.0678 143.827 18.8322 143.878 19.8919L150.549 19.3533C150.376 16.8864 149.377 14.8538 147.584 13.2207C145.43 11.2923 142.396 10.3194 138.466 10.3194C134.347 10.3194 131.209 11.3792 129.055 13.4813C127.245 15.236 126.349 17.4076 126.349 19.9961C126.349 22.5673 127.245 24.7389 129.055 26.511C131.209 28.6131 134.347 29.6728 138.466 29.6728C139.121 29.6728 139.742 29.7076 140.31 29.7771C141.052 29.8639 141.707 30.0203 142.258 30.2462C143.671 30.7847 144.378 31.6707 144.378 32.939C144.378 34.2072 143.671 35.1106 142.258 35.6665C141.707 35.8923 141.052 36.0487 140.31 36.1356C139.742 36.2051 139.121 36.2398 138.466 36.2398C137.811 36.2398 137.191 36.2051 136.622 36.1356C135.881 36.0487 135.226 35.8923 134.674 35.6665C133.261 35.1279 132.554 34.2419 132.519 32.9737L125.849 33.5123C126.004 36.1008 127.021 38.2551 128.883 39.9402C131.158 41.9729 134.347 42.9979 138.466 42.9979C142.741 42.9979 145.998 41.9034 148.274 39.697C150.135 37.8729 151.083 35.6318 151.083 32.939C151.083 30.2809 150.152 28.0398 148.274 26.2156C145.981 24.0614 142.723 22.9669 138.449 22.9669ZM105.803 10.3542C109.819 10.3542 113.163 11.5008 115.8 13.8114C118.437 16.1046 120.075 19.2491 120.695 23.2275C120.868 24.2525 120.954 25.2949 120.954 26.3894V26.6847V29.6207H97.6155C98.4601 34.0508 101.304 36.2746 106.13 36.2746C108.095 36.2746 109.802 35.9097 111.284 35.1801C112.732 34.433 113.783 33.3907 114.421 32.0877L120.437 35.0585C119.213 37.5602 117.351 39.5233 114.818 40.9131C112.284 42.3377 109.388 43.05 106.13 43.05C101.425 43.05 97.6672 41.5559 94.8749 38.5852C92.0653 35.6318 90.6519 31.6707 90.6519 26.7021C90.6519 21.7335 92.0136 17.7724 94.7715 14.819C97.5293 11.8483 101.201 10.3542 105.803 10.3542ZM105.786 17.1296C101.339 17.1296 98.6497 19.1623 97.7017 23.2449H113.87C112.922 19.1623 110.233 17.1296 105.786 17.1296ZM68.9856 10.389L75.2252 32.0877L81.4993 10.389H88.4629L79.0173 43.0326H71.3987L64.9867 20.778L58.5575 43.0326H51.5767L42.2 10.389H49.1636L55.0757 30.9932L61.0223 10.389H68.9856ZM199.345 13.8114C196.708 11.5008 193.364 10.3542 189.348 10.3542C184.746 10.3542 181.075 11.8483 178.317 14.819C175.559 17.7724 174.197 21.7335 174.197 26.7021C174.197 31.6707 175.611 35.6318 178.42 38.5852C181.213 41.5559 184.97 43.05 189.676 43.05C192.933 43.05 195.829 42.3377 198.363 40.9131C200.897 39.5233 202.758 37.5602 203.982 35.0585L197.967 32.0877C197.329 33.3907 196.277 34.433 194.829 35.1801C193.347 35.9097 191.641 36.2746 189.676 36.2746C184.85 36.2746 182.006 34.0508 181.161 29.6207H204.499V26.6847V26.3894C204.499 25.2949 204.413 24.2525 204.241 23.2275C203.62 19.2491 202 16.1046 199.345 13.8114ZM181.247 23.2449C182.195 19.1623 184.884 17.1296 189.331 17.1296C193.778 17.1296 196.467 19.1623 197.415 23.2449H181.247ZM216.082 13.1165C217.427 11.9873 219.03 11.2055 220.908 10.7538L221.236 10.6669C222.305 10.4758 223.408 10.3716 224.545 10.3716V17.1296C221.391 17.1296 219.116 18.172 217.702 20.2568C216.616 21.8551 216.082 23.9919 216.082 26.6847V43.0326H209.377V10.4237H216.082V13.1165ZM256.485 17.4771C255.157 14.9059 253.296 13.0123 250.9 11.7788C249.021 10.8233 246.936 10.3542 244.626 10.3542C242.316 10.3542 240.231 10.8406 238.352 11.7788C238.042 11.9525 237.749 12.1436 237.455 12.3521V10.3889H230.75V43.0326H237.455V26.4589C237.473 23.8182 237.955 21.7161 238.869 20.1699C240.058 18.1199 241.971 17.1123 244.609 17.1123C247.298 17.1123 249.228 18.172 250.417 20.2741C251.314 21.8724 251.779 24.0093 251.779 26.7021V43.05H258.484V26.7021C258.501 23.1407 257.829 20.083 256.485 17.4771ZM18.0554 13.7069H12.0371V25.3397H18.0554V13.7069ZM18.0554 31.4057H12.0371V43.0386H18.0554V31.4057Z" fill="#ED255C"/>
</svg>
