<svg width="259" height="90" viewBox="0 0 259 90" fill="none" xmlns="http://www.w3.org/2000/svg">
<path fill-rule="evenodd" clip-rule="evenodd" d="M7.76438 18.3076H0.0861816V55.6008H7.76438V18.3076ZM38.4772 18.3076H30.799V55.6008H38.4772V18.3076ZM61.4526 69.7171L61.6105 69.7369C63.0514 70.0541 64.1962 70.7679 65.0449 71.898C65.8739 73.0479 66.2884 74.4952 66.2884 76.2201C66.2884 77.945 65.8739 79.3923 65.0252 80.5422C64.1764 81.6921 63.0316 82.4059 61.571 82.7033L61.4328 82.7231C60.9986 82.8024 60.5643 82.8421 60.1104 82.8421C59.6564 82.8421 59.2024 82.8024 58.7879 82.7231L58.6695 82.7033C57.8799 82.5447 57.2088 82.2274 56.6562 81.7516V89.0675H53.9323V69.5981H56.6562V70.6886C57.2088 70.2326 57.8602 69.9153 58.63 69.7369L58.7681 69.7171C59.2024 69.6378 59.6564 69.5981 60.1104 69.5981C60.5643 69.5981 61.0183 69.6378 61.4526 69.7171ZM60.1104 80.1259C61.4131 80.1259 62.3408 79.6897 62.9132 78.8372C63.3474 78.1829 63.5646 77.3105 63.5646 76.2201C63.5646 75.1297 63.3474 74.2573 62.9132 73.603C62.3408 72.7505 61.3933 72.3143 60.1104 72.3143C58.8274 72.3143 57.8997 72.7307 57.3273 73.5832C56.893 74.2375 56.6759 75.1098 56.6759 76.2003V76.2597C56.6759 77.3502 56.893 78.2225 57.3273 78.857C57.8997 79.7095 58.8274 80.1259 60.1104 80.1259ZM77.1445 70.6886C76.5918 70.2127 75.9207 69.9153 75.1509 69.7369L75.0127 69.6973C74.5982 69.618 74.1443 69.5981 73.6903 69.5981C73.2363 69.5981 72.8021 69.6378 72.3678 69.6973L72.2296 69.7369C70.769 70.0343 69.6242 70.748 68.7754 71.8781C67.9267 73.0281 67.5122 74.4754 67.5122 76.2201C67.5122 77.945 67.9267 79.3923 68.7754 80.5224C69.6044 81.6723 70.7295 82.3861 72.1902 82.7033L72.3481 82.7231C72.7823 82.8024 73.2166 82.8421 73.6903 82.8421C74.164 82.8421 74.5982 82.8024 75.0325 82.7231L75.1904 82.7033C75.9404 82.5248 76.5918 82.2076 77.1445 81.7516V82.8421H79.8684V69.5981H77.1445V70.6886ZM77.1445 76.2399C77.1445 77.3304 76.9274 78.2027 76.4931 78.8372C75.9207 79.6897 74.993 80.106 73.71 80.106C72.427 80.106 71.4796 79.6699 70.9072 78.8173C70.4729 78.1829 70.2558 77.3105 70.2558 76.2201C70.2558 75.1297 70.4729 74.2573 70.9072 73.603C71.4796 72.7505 72.4073 72.3342 73.71 72.3342C74.993 72.3342 75.9207 72.7505 76.4931 73.603C76.9274 74.2573 77.1445 75.1297 77.1445 76.2201V76.2399ZM83.0857 65.395H85.8096V69.836L87.7242 69.5981V72.3341L85.8096 72.572V77.6872V78.7182C85.8096 79.2733 85.928 79.6698 86.1649 79.8879C86.3425 80.0465 86.6189 80.1258 86.9939 80.1258H87.7045V82.8619H86.9939C85.8096 82.8619 84.8622 82.4653 84.1516 81.7119C83.441 80.9585 83.0857 79.9474 83.0857 78.7182V77.6872V72.572L81.1711 72.3341V69.5981L83.0857 69.836V65.395ZM97.5736 70.1731C96.8038 69.7765 95.9551 69.5981 95.0274 69.5981C94.08 69.5981 93.2312 69.7964 92.4812 70.1731L92.1259 70.411V63.3925H89.402V82.8618H92.1259V76.1408C92.1259 75.0701 92.3233 74.2176 92.6983 73.5832C93.1917 72.7505 93.9615 72.3341 95.0471 72.3341C96.1327 72.3341 96.9223 72.7703 97.4157 73.6228C97.7908 74.2771 97.9684 75.1494 97.9684 76.2399V82.8618H100.692V76.2399C100.692 74.7926 100.416 73.5435 99.8633 72.4927C99.3106 71.4419 98.5605 70.6687 97.5736 70.1731ZM103.811 71.4023C104.936 70.1929 106.436 69.5981 108.311 69.5981C110.186 69.5981 111.687 70.1929 112.812 71.4023C113.937 72.5919 114.489 74.1978 114.489 76.2201C114.489 78.2225 113.937 79.8483 112.812 81.0379C111.687 82.2473 110.186 82.8421 108.311 82.8421C106.436 82.8421 104.936 82.2473 103.811 81.0379C102.686 79.8483 102.133 78.2424 102.133 76.2201C102.133 74.2176 102.686 72.5919 103.811 71.4023ZM108.311 80.1259C109.614 80.1259 110.542 79.7095 111.114 78.857C111.548 78.2027 111.765 77.3105 111.765 76.2399C111.765 75.1495 111.548 74.2771 111.114 73.6229C110.542 72.7703 109.594 72.354 108.311 72.354C107.009 72.354 106.081 72.7703 105.508 73.6229C105.074 74.2771 104.857 75.1495 104.857 76.2399C104.857 77.3304 105.074 78.2027 105.508 78.857C106.081 79.7095 107.028 80.1259 108.311 80.1259ZM118.812 63.3925H116.088V82.8618H118.812V63.3925ZM122.108 71.4023C123.233 70.1929 124.734 69.5981 126.609 69.5981C128.484 69.5981 129.984 70.1929 131.109 71.4023C132.234 72.5919 132.787 74.1978 132.787 76.2201C132.787 78.2225 132.234 79.8483 131.109 81.0379C129.984 82.2473 128.484 82.8421 126.609 82.8421C124.734 82.8421 123.233 82.2473 122.108 81.0379C120.983 79.8483 120.431 78.2424 120.431 76.2201C120.431 74.2176 120.983 72.5919 122.108 71.4023ZM126.609 80.1259C127.911 80.1259 128.839 79.7095 129.412 78.857C129.846 78.2027 130.063 77.3105 130.063 76.2399C130.063 75.1495 129.846 74.2771 129.412 73.6229C128.839 72.7703 127.892 72.354 126.609 72.354C125.306 72.354 124.378 72.7703 123.806 73.6229C123.372 74.2771 123.155 75.1495 123.155 76.2399C123.155 77.3304 123.372 78.2027 123.806 78.857C124.378 79.7095 125.326 80.1259 126.609 80.1259ZM143.722 70.7084C143.169 70.2326 142.498 69.9153 141.728 69.7567L141.61 69.7369C141.195 69.6576 140.741 69.618 140.287 69.618C139.833 69.618 139.399 69.6576 138.965 69.7369L138.827 69.7567C137.366 70.0541 136.221 70.7679 135.372 71.9178C134.524 73.0677 134.109 74.515 134.109 76.2399C134.109 77.9648 134.524 79.4121 135.353 80.562C136.182 81.6921 137.327 82.4257 138.787 82.7231L138.925 82.7429C139.36 82.8222 139.814 82.8619 140.268 82.8619C140.722 82.8619 141.176 82.8222 141.59 82.7429L141.748 82.7231C142.518 82.5447 143.169 82.2274 143.702 81.7714V83.2584C143.702 85.8556 142.419 87.1443 139.853 87.1443C139.143 87.1443 138.511 87.0254 137.978 86.8073C137.267 86.5099 136.754 86.0341 136.438 85.36L133.991 86.5694C134.524 87.64 135.294 88.4529 136.3 89.0278C137.307 89.6028 138.511 89.8804 139.873 89.8804C141.866 89.8804 143.465 89.2856 144.65 88.0762C145.834 86.8866 146.446 85.2609 146.446 83.2584V69.5981H143.722V70.7084ZM143.722 76.2597C143.722 77.3502 143.505 78.2225 143.07 78.857C142.498 79.7095 141.57 80.1457 140.287 80.1457C139.004 80.1457 138.057 79.7095 137.484 78.857C137.05 78.2027 136.833 77.3304 136.833 76.2399C136.833 75.1495 137.05 74.2771 137.484 73.6229C138.057 72.7703 138.985 72.3342 140.287 72.3342C141.57 72.3342 142.498 72.7505 143.07 73.603C143.505 74.2573 143.722 75.1098 143.722 76.2003V76.2597ZM156.887 76.339V69.6179H159.611V83.536C159.611 85.3798 159.058 86.8668 157.953 87.977C156.867 89.0873 155.407 89.6424 153.551 89.6424C152.308 89.6424 151.203 89.3847 150.275 88.8692C149.327 88.3339 148.637 87.5805 148.143 86.5892L150.591 85.3798C150.867 85.9548 151.301 86.3711 151.913 86.6289C152.367 86.8073 152.92 86.9064 153.532 86.9064C155.762 86.9064 156.867 85.7763 156.867 83.536V82.0688C156.749 82.1481 156.631 82.2274 156.512 82.2869C155.762 82.6636 154.894 82.8619 153.966 82.8619C153.038 82.8619 152.189 82.6834 151.42 82.2869C150.452 81.7913 149.683 81.0379 149.15 79.9871C148.597 78.9363 148.321 77.6872 148.321 76.2399V69.6179H151.045V76.2399C151.045 77.3303 151.222 78.2027 151.597 78.857C152.091 79.7095 152.88 80.1258 153.966 80.1258C155.052 80.1258 155.821 79.7095 156.315 78.8966C156.69 78.2622 156.887 77.4097 156.887 76.339Z" fill="#033572"/>
<path fill-rule="evenodd" clip-rule="evenodd" d="M116.759 18.605L117.134 18.724C121.24 19.5369 124.477 21.5591 126.865 24.771C129.234 28.0027 130.418 32.0869 130.418 36.9641C130.418 41.8216 129.254 45.8661 126.905 49.078C124.576 52.2898 121.358 54.3319 117.272 55.1844L116.858 55.2638C115.634 55.4818 114.391 55.6008 113.068 55.6008C111.746 55.6008 110.482 55.4818 109.278 55.2638L108.903 55.1844C106.752 54.7086 104.916 53.8164 103.377 52.5277V55.6206H95.6985V0.880371H103.377V21.3807C104.936 20.0722 106.811 19.18 109.002 18.724L109.338 18.605C110.522 18.4068 111.765 18.3076 113.048 18.3076C114.331 18.3076 115.575 18.4068 116.759 18.605ZM113.048 47.9082C116.661 47.9082 119.286 46.6988 120.904 44.2998C122.108 42.4758 122.72 40.0174 122.72 36.9641C122.72 33.8911 122.108 31.4326 120.904 29.5888C119.306 27.2096 116.68 26.02 113.048 26.02C109.436 26.02 106.831 27.2096 105.212 29.5888C103.969 31.4128 103.357 33.8712 103.357 36.9245V37.0038C103.357 40.0768 103.969 42.5155 105.212 44.3395C106.831 46.7186 109.436 47.9082 113.048 47.9082ZM15.4426 18.3076H23.1208V33.098H15.4426V18.3076ZM15.4426 40.8104H23.1208V55.6008H15.4426V40.8104ZM80.8751 21.3807C79.3158 20.0722 77.4407 19.18 75.2694 18.724L74.8944 18.605C73.7101 18.4067 72.4666 18.3076 71.1836 18.3076C69.9006 18.3076 68.6571 18.4067 67.4728 18.605L67.0978 18.724C62.9922 19.5368 59.7551 21.5393 57.3865 24.771C55.0179 28.0026 53.8337 32.0869 53.8337 36.9641C53.8337 41.8215 55.0179 45.8661 57.3865 49.0779C59.6959 52.2898 62.9133 54.3319 66.9991 55.1844L67.4136 55.2637C68.6176 55.4818 69.8809 55.6008 71.2034 55.6008C72.5258 55.6008 73.7693 55.4818 74.9931 55.2637L75.4076 55.1844C77.5196 54.7086 79.3553 53.8164 80.8949 52.5277V55.6008H88.5731V18.3473H80.8949V21.3807H80.8751ZM80.8751 37.0038C80.8751 40.0768 80.2632 42.5155 79.0197 44.3395C77.4012 46.7186 74.7957 47.9082 71.2034 47.9082C67.5715 47.9082 64.9463 46.6988 63.3475 44.2998C62.1435 42.4758 61.5316 40.0372 61.5316 36.9641C61.5316 33.891 62.1435 31.4326 63.3475 29.5887C64.9661 27.2096 67.5715 26.02 71.2034 26.02C74.8155 26.02 77.4209 27.2096 79.0197 29.5887C80.2632 31.4128 80.8751 33.8514 80.8751 36.9245V37.0038ZM158.979 18.724L158.604 18.605C157.42 18.4068 156.177 18.3076 154.894 18.3076C153.611 18.3076 152.367 18.4068 151.183 18.6249L150.847 18.7438C148.656 19.1998 146.781 20.092 145.222 21.4005V0.880371H137.544V55.6206H145.222V52.5277C146.761 53.8164 148.597 54.7086 150.749 55.1844L151.124 55.2638C152.328 55.4818 153.591 55.6008 154.913 55.6008C156.236 55.6008 157.479 55.4818 158.703 55.2638L159.118 55.1844C163.203 54.3319 166.421 52.2898 168.75 49.078C171.099 45.8661 172.263 41.8216 172.263 36.9641C172.263 32.0869 171.079 28.0027 168.71 24.771C166.322 21.5591 163.085 19.5369 158.979 18.724ZM162.749 44.2998C161.131 46.6988 158.506 47.9082 154.894 47.9082C151.282 47.9082 148.676 46.7186 147.058 44.3395C145.814 42.5155 145.202 40.0768 145.202 37.0038V36.9245C145.202 33.8712 145.814 31.4128 147.058 29.5888C148.676 27.2096 151.282 26.02 154.894 26.02C158.525 26.02 161.151 27.2096 162.749 29.5888C163.954 31.4326 164.565 33.8911 164.565 36.9641C164.565 40.0174 163.973 42.4758 162.749 44.2998ZM182.547 23.403C185.705 20.0127 189.91 18.3076 195.18 18.3076C200.45 18.3076 204.674 20.0127 207.812 23.403C210.97 26.7734 212.549 31.2938 212.549 36.9641C212.549 42.6344 210.97 47.1548 207.812 50.5253C204.654 53.9156 200.45 55.6206 195.18 55.6206C189.91 55.6206 185.705 53.9156 182.547 50.5253C179.409 47.1548 177.83 42.6344 177.83 36.9641C177.83 31.2938 179.389 26.7734 182.547 23.403ZM195.18 47.8884C198.811 47.8884 201.437 46.6988 203.055 44.3197C204.299 42.4758 204.911 40.0174 204.911 36.9443C204.911 33.8712 204.299 31.4128 203.055 29.5689C201.437 27.1898 198.811 26.0002 195.18 26.0002C191.568 26.0002 188.942 27.1898 187.324 29.5689C186.12 31.4128 185.508 33.8712 185.508 36.9443C185.508 40.0174 186.12 42.4758 187.324 44.3197C188.923 46.6988 191.548 47.8884 195.18 47.8884ZM229.603 6.4912H221.945V18.9421L216.576 18.2878V26.0002L221.945 26.6545V41.0483V43.943C221.945 47.4126 222.951 50.2279 224.965 52.3691C226.978 54.5104 229.643 55.6008 232.939 55.6008H234.932V47.8884H232.939C231.913 47.8884 231.143 47.6703 230.63 47.2341C229.958 46.5997 229.603 45.4894 229.603 43.9231V41.0285V26.6347L234.972 25.9804V18.268L229.603 18.9223V6.4912ZM258.994 26.0201L253.625 26.6743H253.605V41.0484V43.943C253.605 45.5093 253.941 46.6195 254.631 47.254C255.145 47.6902 255.914 47.9082 256.941 47.9082H258.954V55.6207H256.941C253.644 55.6207 250.98 54.55 248.966 52.389C246.953 50.2477 245.947 47.4324 245.947 43.9628V41.0682V26.6743L240.578 26.0201V18.3077L245.947 18.9619V6.51105H253.625V18.9619L258.994 18.3077V26.0201Z" fill="#ED255C"/>
</svg>
