<svg width="335" height="90" viewBox="0 0 335 90" fill="none" xmlns="http://www.w3.org/2000/svg">
<path fill-rule="evenodd" clip-rule="evenodd" d="M7.74073 17.6191H0V55.3229H7.74073V17.6191ZM38.7037 17.6191H30.963V55.3229H38.7037V17.6191ZM65.4679 80.5591C64.6122 81.7216 63.4581 82.4432 61.9855 82.7439L61.8462 82.764C61.4085 82.8441 60.9707 82.8842 60.513 82.8842C60.0553 82.8842 59.5976 82.8441 59.1798 82.764L59.0604 82.7439C58.2644 82.5836 57.5878 82.2628 57.0307 81.7818V89.1782H54.2846V69.4945H57.0307V70.5969C57.5878 70.1359 58.2445 69.8152 59.0206 69.6348L59.1599 69.6147C59.5976 69.5346 60.0553 69.4945 60.513 69.4945C60.9707 69.4945 61.4284 69.5346 61.8661 69.6147L62.0253 69.6348C63.4979 69.9354 64.652 70.6771 65.4878 71.8196C66.3235 72.9822 66.7414 74.4455 66.7414 76.1893C66.7414 77.9332 66.3235 79.3965 65.4679 80.5591ZM57.0506 76.2094C57.0506 77.3118 57.2695 78.1938 57.7072 78.8352C58.2843 79.6771 59.2196 80.1181 60.513 80.098C61.8263 80.098 62.7616 79.6571 63.3387 78.7951C63.7764 78.1537 63.9953 77.2718 63.9953 76.1693C63.9953 75.0669 63.7764 74.1849 63.3387 73.5234C62.7616 72.6615 61.8064 72.2205 60.513 72.2205C59.2196 72.2205 58.2843 72.6415 57.7072 73.5034C57.2695 74.1648 57.0506 75.0468 57.0506 76.1493V76.2094ZM77.6859 69.4944V70.5769C77.1287 70.0958 76.4521 69.7951 75.6761 69.6147L75.5368 69.5746C75.1189 69.4944 74.6612 69.4744 74.2036 69.4744C73.7459 69.4744 73.3081 69.5145 72.8703 69.5746L72.731 69.6147C71.2585 69.9154 70.1044 70.637 69.2487 71.7795C68.393 72.9421 67.9752 74.4054 67.9752 76.1693C67.9752 77.9132 68.393 79.3764 69.2487 80.5189C70.0845 81.6815 71.2187 82.4031 72.6912 82.7238L72.8504 82.7439C73.2882 82.8241 73.726 82.8642 74.2036 82.8642C74.6811 82.8642 75.1189 82.8241 75.5567 82.7439L75.7159 82.7238C76.4721 82.5434 77.1287 82.2227 77.6859 81.7617V82.8642H80.432V69.4744H77.6859V69.4944ZM77.6859 76.1893C77.6859 77.2918 77.467 78.1737 77.0292 78.8152C76.4522 79.6771 75.5169 80.098 74.2235 80.098C72.93 80.098 71.9749 79.657 71.3978 78.7951C70.96 78.1537 70.7411 77.2918 70.7411 76.1893C70.7411 75.0869 70.96 74.2049 71.3978 73.5434C71.9749 72.6815 72.9101 72.2606 74.2235 72.2606C75.5169 72.2606 76.4522 72.6815 77.0292 73.5434C77.467 74.2049 77.6859 75.0869 77.6859 76.1893ZM86.7797 79.8775C86.9588 80.0379 87.2374 80.118 87.6155 80.118H88.3319V82.8842H87.6155C86.4216 82.8842 85.4664 82.4833 84.75 81.7216C84.0337 80.9599 83.6755 79.9376 83.6755 78.6949V77.6526V72.4811L81.7453 72.2405V69.4744L83.6755 69.7149V65.2249H86.4216V69.7149L88.3518 69.4744V72.2405L86.4216 72.4811V77.6526V78.6949C86.4216 79.2561 86.541 79.657 86.7797 79.8775ZM100.59 72.4009C100.052 71.3385 99.2764 70.5568 98.3013 70.0557C97.5252 69.6548 96.6696 69.4744 95.7343 69.4744C94.7792 69.4744 93.9235 69.6748 93.1673 70.0557L92.8092 70.2962V63.2004H90.0631V82.8842H92.8092V76.0891C92.8092 75.0067 93.0081 74.1448 93.3862 73.5033C93.8837 72.6615 94.6598 72.2405 95.7542 72.2405C96.8487 72.2405 97.6446 72.6815 98.1421 73.5434C98.5202 74.2049 98.6993 75.0868 98.6993 76.1893V82.8842H101.445V76.1893C101.406 74.726 101.127 73.4632 100.59 72.4009ZM113.643 71.3185C114.778 72.5212 115.335 74.1448 115.335 76.1893C115.335 78.2138 114.758 79.8375 113.643 81.0602C112.509 82.2829 110.997 82.8842 109.106 82.8842C107.216 82.8842 105.704 82.2829 104.569 81.0602C103.435 79.8575 102.878 78.2339 102.878 76.1893C102.878 74.1648 103.435 72.5212 104.569 71.3185C105.704 70.0958 107.216 69.4945 109.106 69.4945C110.997 69.4945 112.509 70.0958 113.643 71.3185ZM109.106 80.1181C110.42 80.1181 111.355 79.6971 111.932 78.8352C112.37 78.1738 112.589 77.2918 112.589 76.1893C112.589 75.0869 112.37 74.2049 111.932 73.5435C111.355 72.6816 110.4 72.2606 109.106 72.2606C107.793 72.2606 106.858 72.6816 106.281 73.5435C105.843 74.2049 105.624 75.0869 105.624 76.1893C105.624 77.2918 105.843 78.1738 106.281 78.8352C106.858 79.6971 107.813 80.1181 109.106 80.1181ZM119.693 63.2004H116.947V82.8842H119.693V63.2004ZM132.09 71.3185C133.224 72.5212 133.781 74.1448 133.781 76.1893C133.781 78.2138 133.224 79.8375 132.09 81.0602C130.956 82.2829 129.443 82.8842 127.553 82.8842C125.662 82.8842 124.15 82.2829 123.016 81.0602C121.882 79.8575 121.324 78.2339 121.324 76.1893C121.324 74.1648 121.882 72.5212 123.016 71.3185C124.15 70.0958 125.662 69.4945 127.553 69.4945C129.443 69.4945 130.956 70.0958 132.09 71.3185ZM127.553 80.1181C128.866 80.1181 129.801 79.6971 130.379 78.8352C130.816 78.1738 131.035 77.2918 131.035 76.1893C131.035 75.0869 130.816 74.2049 130.379 73.5435C129.801 72.6816 128.846 72.2606 127.553 72.2606C126.24 72.2606 125.304 72.6816 124.727 73.5435C124.289 74.2049 124.071 75.0869 124.071 76.1893C124.071 77.2918 124.289 78.1738 124.727 78.8352C125.304 79.6971 126.259 80.1181 127.553 80.1181ZM147.551 69.4945H144.805V70.5969C144.248 70.1158 143.572 69.7951 142.796 69.6348L142.676 69.6147C142.258 69.5346 141.801 69.4945 141.343 69.4945C140.885 69.4945 140.447 69.5346 140.01 69.6147L139.87 69.6348C138.398 69.9354 137.244 70.6571 136.388 71.8196C135.532 72.9822 135.115 74.4455 135.115 76.1893C135.115 77.9332 135.532 79.3965 136.368 80.5591C137.204 81.7016 138.358 82.4432 139.831 82.7439L139.97 82.764C140.408 82.8441 140.865 82.8842 141.323 82.8842C141.781 82.8842 142.238 82.8441 142.656 82.764L142.815 82.7439C143.592 82.5635 144.248 82.2428 144.785 81.7818V83.3052C144.785 85.931 143.492 87.2339 140.905 87.2339C140.189 87.2339 139.552 87.1136 139.015 86.8931C138.298 86.5925 137.781 86.1114 137.463 85.4299L134.995 86.6526C135.532 87.735 136.308 88.5568 137.323 89.1381C138.338 89.7194 139.552 90 140.925 90C142.935 90 144.547 89.3987 145.741 88.176C146.935 86.9733 147.551 85.3297 147.551 83.3052V69.4945ZM144.149 78.8352C143.572 79.6971 142.636 80.1381 141.343 80.1381C140.05 80.1381 139.094 79.6971 138.517 78.8352C138.079 78.1738 137.861 77.2918 137.861 76.1893C137.861 75.0869 138.079 74.2049 138.517 73.5435C139.094 72.6816 140.03 72.2406 141.343 72.2406C142.636 72.2406 143.572 72.6615 144.149 73.5234C144.586 74.1849 144.805 75.0468 144.805 76.1493V76.2094C144.805 77.3118 144.586 78.1938 144.149 78.8352ZM158.078 69.4945H160.824V83.5657C160.824 85.4299 160.267 86.9332 159.153 88.0557C158.058 89.1782 156.586 89.7395 154.715 89.7395C153.461 89.7395 152.347 89.4789 151.412 88.9577C150.457 88.4165 149.76 87.6548 149.263 86.6526L151.73 85.4299C152.009 86.0112 152.447 86.4321 153.064 86.6927C153.521 86.8731 154.078 86.9733 154.695 86.9733C156.944 86.9733 158.058 85.8308 158.058 83.5657V82.0825C157.939 82.1626 157.819 82.2428 157.7 82.3029C156.944 82.6838 156.068 82.8842 155.133 82.8842C154.198 82.8842 153.342 82.7038 152.566 82.3029C151.591 81.8018 150.815 81.0401 150.278 79.9778C149.72 78.9154 149.442 77.6526 149.442 76.1893V69.4945H152.188V76.1893C152.188 77.2918 152.367 78.1738 152.745 78.8352C153.243 79.6971 154.039 80.1181 155.133 80.1181C156.227 80.1181 157.004 79.6971 157.501 78.8753C157.879 78.2339 158.078 77.372 158.078 76.2896V69.4945Z" fill="#033572"/>
<path fill-rule="evenodd" clip-rule="evenodd" d="M81.4468 20.7461C79.8748 19.4232 77.9844 18.5212 75.7955 18.0601L75.4174 17.9399C74.2234 17.7394 72.9698 17.6392 71.6764 17.6392C70.3829 17.6392 69.1492 17.7394 67.9552 17.9399L67.5772 18.0601C63.4382 18.882 60.1747 20.9065 57.7868 24.1737C55.3989 27.441 54.205 31.5501 54.205 36.5011C54.205 41.412 55.3989 45.5011 57.7868 48.7483C60.115 51.9955 63.3586 54.0601 67.4777 54.922L67.8955 55.0022C69.1094 55.2227 70.3829 55.343 71.7162 55.343C73.0295 55.343 74.303 55.2227 75.5368 55.0022L75.9547 54.922C78.0839 54.441 79.9345 53.539 81.4866 52.2361V55.343H89.2273V0H81.4866V20.7461H81.4468ZM81.4468 36.5212C81.4468 39.608 80.8299 42.0935 79.5763 43.9376C77.9446 46.343 75.3179 47.5457 71.6963 47.5457C68.0348 47.5457 65.3883 46.3229 63.7565 43.8975C62.5427 42.0534 61.9258 39.588 61.9258 36.4811C61.9258 33.3942 62.5427 30.9087 63.7565 29.0245C65.3883 26.6192 68.0348 25.4165 71.6963 25.4165C75.3378 25.4165 77.9645 26.6192 79.5763 29.0245C80.8299 30.8686 81.4468 33.3341 81.4468 36.441V36.5212ZM15.4814 17.6191H23.2222V32.5723H15.4814V17.6191ZM15.4814 40.3697H23.2222V55.3229H15.4814V40.3697ZM94.8189 36.481C94.8189 30.7483 96.3909 26.1781 99.5748 22.7706C102.759 19.3429 106.997 17.6191 112.31 17.6191C117.623 17.6191 121.862 19.3429 125.046 22.7706C128.229 26.1781 129.821 30.7483 129.821 36.481C129.821 42.2138 128.229 46.7839 125.046 50.1915C121.862 53.6191 117.623 55.3429 112.31 55.3429C106.997 55.3429 102.759 53.6191 99.5748 50.1915C96.4108 46.7839 94.8189 42.2138 94.8189 36.481ZM122.12 36.481C122.12 33.3741 121.484 30.8886 120.25 29.0245C118.618 26.6191 115.952 25.4164 112.31 25.4164C108.669 25.4164 106.022 26.6191 104.39 29.0245C103.176 30.9086 102.56 33.3942 102.56 36.481C102.56 39.5879 103.176 42.0734 104.39 43.9376C106.002 46.3429 108.649 47.5456 112.31 47.5456C115.972 47.5456 118.618 46.3429 120.25 43.9376C121.504 42.0534 122.12 39.5879 122.12 36.481ZM133.881 17.6993V55.3229H141.621V36.461C141.621 33.3741 142.238 30.8886 143.492 29.0445C145.124 26.6392 147.75 25.4365 151.392 25.4365V17.6392C150.079 17.6392 148.805 17.7595 147.571 17.9799L147.193 18.0601C145.024 18.5813 143.174 19.4833 141.621 20.7862V17.6793H133.881V17.6993ZM188.882 36.1403V36.4811H188.902V39.8686H161.958C162.933 44.9799 166.217 47.5456 171.788 47.5456C174.057 47.5456 176.027 47.1247 177.738 46.2828C179.41 45.4209 180.624 44.2182 181.36 42.7149L188.305 46.1425C186.892 49.0289 184.743 51.294 181.817 52.8975C178.892 54.5412 175.549 55.363 171.788 55.363C166.356 55.363 162.018 53.6392 158.794 50.2116C155.551 46.804 153.919 42.2338 153.919 36.5011C153.919 30.7684 155.491 26.1982 158.675 22.7906C161.859 19.363 166.097 17.6392 171.41 17.6392C176.047 17.6392 179.907 18.9621 182.952 21.628C185.996 24.2539 187.867 27.8819 188.583 32.4922C188.782 33.6748 188.882 34.8975 188.882 36.1403ZM171.37 25.4165C166.237 25.4165 163.132 27.7817 162.038 32.4922H180.703C179.609 27.7817 176.504 25.4165 171.37 25.4165ZM198.035 17.6592H189.837L203.249 55.3429H211.487L225.018 17.6592H216.78L207.368 43.8975L198.035 17.6592ZM237.575 8.57904C237.575 9.74162 237.157 10.7639 236.321 11.6058C235.525 12.4476 234.53 12.8686 233.356 12.8686C232.162 12.8686 231.167 12.4476 230.351 11.6058C229.516 10.7639 229.098 9.76167 229.098 8.57904C229.098 7.41646 229.516 6.39419 230.351 5.55231C231.147 4.73049 232.162 4.3296 233.356 4.3296C234.51 4.3296 235.505 4.73049 236.321 5.55231C237.157 6.39419 237.575 7.39641 237.575 8.57904ZM237.217 17.6191H229.476V55.3229H237.217V17.6191ZM248.619 18.2782L243.226 17.6192V25.4165L248.638 26.0779V40.6303V43.5568C248.638 47.0646 249.653 49.9109 251.683 52.0757C253.713 54.2405 256.399 55.343 259.722 55.343H261.732V47.5457H259.722C258.688 47.5457 257.911 47.3252 257.394 46.8842C256.717 46.2428 256.359 45.1403 256.359 43.5367V40.6102V26.0579L261.772 25.3964V17.5991L256.359 18.2606V5.67261H248.619V18.2782ZM281.79 25.4165C286.029 25.4165 288.914 27.0401 290.407 30.2873L297.411 27.0201C296.038 24.0334 293.988 21.7082 291.242 20.0646C288.516 18.4209 285.372 17.5991 281.79 17.5991C276.477 17.5991 272.239 19.3229 269.055 22.7506C265.871 26.1581 264.299 30.7283 264.299 36.461C264.299 42.1938 265.891 46.7639 269.055 50.1715C272.239 53.5991 276.477 55.3229 281.79 55.3229C285.392 55.3229 288.576 54.4811 291.322 52.8174C294.048 51.1537 296.098 48.8085 297.451 45.7817L290.427 42.5546C288.934 45.8619 286.049 47.5056 281.771 47.5056C278.129 47.5056 275.502 46.3029 273.851 43.8976C272.637 42.0334 272.02 39.5479 272.02 36.441C272.02 33.3541 272.637 30.8686 273.851 28.9844C275.522 26.6192 278.149 25.4165 281.79 25.4165ZM301.53 55.343V0.0200412H309.251V19.9443C309.589 19.7038 309.928 19.4833 310.286 19.2828C312.455 18.1804 314.863 17.6392 317.529 17.6392C320.195 17.6392 322.623 18.1804 324.772 19.2828C327.538 20.706 329.687 22.8909 331.22 25.8575C332.772 28.8641 333.548 32.412 333.548 36.5011V55.363H325.807V36.5011C325.807 33.3942 325.27 30.9287 324.235 29.0846C322.862 26.6592 320.633 25.4365 317.529 25.4365C314.484 25.4365 312.276 26.6192 310.903 28.9644C309.848 30.7483 309.291 33.1737 309.271 36.2205V55.343H301.53Z" fill="#ED255C"/>
</svg>
