<svg width="266" height="90" viewBox="0 0 266 90" fill="none" xmlns="http://www.w3.org/2000/svg">
<path fill-rule="evenodd" clip-rule="evenodd" d="M7.70494 17.6191H0V55.1174H7.70494V17.6191ZM38.5247 17.6192H30.8198V55.1174H38.5247V17.6192ZM61.5801 69.7258L61.7386 69.7457C63.1845 70.0647 64.3333 70.7824 65.185 71.9187C66.0169 73.0749 66.4329 74.5302 66.4329 76.2646C66.4329 77.9989 66.0169 79.4542 65.1652 80.6105C64.3135 81.7667 63.1647 82.4844 61.699 82.7834L61.5603 82.8033C61.1246 82.8831 60.6888 82.923 60.2333 82.923C59.7777 82.923 59.3221 82.8831 58.9062 82.8033L58.7873 82.7834C57.9951 82.6239 57.3216 82.305 56.767 81.8265V89.1826H54.0337V69.6062H56.767V70.7026C57.3216 70.2441 57.9753 69.9252 58.7477 69.7457L58.8864 69.7258C59.3221 69.6461 59.7777 69.6062 60.2333 69.6062C60.6888 69.6062 61.1444 69.6461 61.5801 69.7258ZM60.2333 80.1918C61.5405 80.1918 62.4715 79.7533 63.0459 78.896C63.4816 78.2382 63.6995 77.361 63.6995 76.2646C63.6995 75.1681 63.4816 74.291 63.0459 73.6331C62.4715 72.7759 61.5207 72.3373 60.2333 72.3373C58.9458 72.3373 58.0149 72.756 57.4405 73.6132C57.0047 74.271 56.7868 75.1482 56.7868 76.2446V76.3045C56.7868 77.4009 57.0047 78.278 57.4405 78.916C58.0149 79.7732 58.9458 80.1918 60.2333 80.1918ZM77.3266 70.7026C76.772 70.2242 76.0986 69.9252 75.3261 69.7457L75.1875 69.7059C74.7715 69.6261 74.316 69.6062 73.8604 69.6062C73.4048 69.6062 72.9691 69.6461 72.5333 69.7059L72.3947 69.7457C70.929 70.0448 69.7802 70.7624 68.9284 71.8988C68.0767 73.055 67.6608 74.5103 67.6608 76.2646C67.6608 77.9989 68.0767 79.4542 68.9284 80.5905C69.7603 81.7468 70.8893 82.4644 72.3551 82.7834L72.5135 82.8033C72.9493 82.8831 73.385 82.923 73.8604 82.923C74.3358 82.923 74.7715 82.8831 75.2073 82.8033L75.3657 82.7834C76.1184 82.604 76.772 82.285 77.3266 81.8265V82.923H80.06V69.6062H77.3266V70.7026ZM77.3266 76.2845C77.3266 77.381 77.1088 78.2581 76.673 78.896C76.0986 79.7533 75.1677 80.1719 73.8802 80.1719C72.5928 80.1719 71.642 79.7333 71.0676 78.8761C70.6319 78.2382 70.414 77.361 70.414 76.2646C70.414 75.1681 70.6319 74.291 71.0676 73.6331C71.642 72.7759 72.5729 72.3573 73.8802 72.3573C75.1677 72.3573 76.0986 72.7759 76.673 73.6331C77.1088 74.291 77.3266 75.1681 77.3266 76.2646V76.2845ZM83.2887 65.3799H86.022V69.8454L87.9433 69.6061V72.3572L86.022 72.5964V77.7397V78.7764C86.022 79.3345 86.1409 79.7333 86.3786 79.9525C86.5568 80.112 86.8341 80.1918 87.2105 80.1918H87.9235V82.9428H87.2105C86.022 82.9428 85.0713 82.5441 84.3583 81.7866C83.6452 81.0291 83.2887 80.0123 83.2887 78.7764V77.7397V72.5964L81.3674 72.3572V69.6061L83.2887 69.8454V65.3799ZM97.8468 70.1844C97.0743 69.7857 96.2226 69.6062 95.2917 69.6062C94.341 69.6062 93.4893 69.8056 92.7366 70.1844L92.3801 70.4236V63.3665H89.6467V82.9429H92.3801V76.1849C92.3801 75.1084 92.5781 74.2511 92.9545 73.6132C93.4497 72.7759 94.2221 72.3573 95.3115 72.3573C96.4009 72.3573 97.1932 72.7959 97.6884 73.6531C98.0647 74.311 98.243 75.1881 98.243 76.2845V82.9429H100.976V76.2845C100.976 74.8293 100.699 73.5733 100.144 72.5168C99.57 71.4602 98.8174 70.6827 97.8468 70.1844ZM104.086 71.4203C105.215 70.2043 106.72 69.6062 108.602 69.6062C110.484 69.6062 111.989 70.2043 113.118 71.4203C114.247 72.6164 114.802 74.2312 114.802 76.2646C114.802 78.278 114.247 79.9127 113.118 81.1088C111.989 82.3249 110.484 82.923 108.602 82.923C106.72 82.923 105.215 82.3249 104.086 81.1088C102.957 79.9127 102.402 78.298 102.402 76.2646C102.402 74.2511 102.957 72.6164 104.086 71.4203ZM108.602 80.1918C109.909 80.1918 110.84 79.7732 111.415 78.916C111.85 78.2382 112.068 77.361 112.068 76.2845C112.068 75.1881 111.85 74.3109 111.415 73.6531C110.84 72.7958 109.889 72.3772 108.602 72.3772C107.295 72.3772 106.364 72.7958 105.789 73.6531C105.354 74.3109 105.136 75.1881 105.136 76.2845C105.136 77.381 105.354 78.2581 105.789 78.916C106.364 79.7732 107.314 80.1918 108.602 80.1918ZM119.139 63.3665H116.406V82.9429H119.139V63.3665ZM122.447 71.4203C123.576 70.2043 125.081 69.6062 126.963 69.6062C128.845 69.6062 130.35 70.2043 131.479 71.4203C132.608 72.6164 133.163 74.2312 133.163 76.2646C133.163 78.278 132.608 79.9127 131.479 81.1088C130.35 82.3249 128.845 82.923 126.963 82.923C125.081 82.923 123.576 82.3249 122.447 81.1088C121.318 79.9127 120.764 78.298 120.764 76.2646C120.764 74.2511 121.318 72.6164 122.447 71.4203ZM126.963 80.1918C128.27 80.1918 129.201 79.7732 129.776 78.916C130.211 78.2382 130.429 77.361 130.429 76.2845C130.429 75.1881 130.211 74.3109 129.776 73.6531C129.201 72.7958 128.251 72.3772 126.963 72.3772C125.656 72.3772 124.725 72.7958 124.151 73.6531C123.715 74.3109 123.497 75.1881 123.497 76.2845C123.497 77.381 123.715 78.2581 124.151 78.916C124.725 79.7732 125.676 80.1918 126.963 80.1918ZM144.136 70.7226C143.581 70.2441 142.908 69.9252 142.135 69.7657L142.016 69.7457C141.6 69.666 141.145 69.6261 140.689 69.6261C140.234 69.6261 139.798 69.666 139.362 69.7457L139.224 69.7657C137.758 70.0647 136.609 70.7824 135.757 71.9386C134.906 73.0949 134.49 74.5501 134.49 76.2845C134.49 78.0189 134.906 79.4742 135.738 80.6304C136.57 81.7667 137.718 82.5043 139.184 82.8033L139.323 82.8233C139.758 82.903 140.214 82.9429 140.67 82.9429C141.125 82.9429 141.581 82.903 141.997 82.8233L142.155 82.8033C142.928 82.6239 143.581 82.305 144.116 81.8465V83.3416C144.116 85.9531 142.829 87.2489 140.254 87.2489C139.541 87.2489 138.907 87.1293 138.372 86.91C137.659 86.611 137.144 86.1325 136.827 85.4547L134.371 86.6708C134.906 87.7473 135.678 88.5646 136.688 89.1428C137.698 89.7209 138.907 90 140.273 90C142.274 90 143.878 89.4019 145.067 88.1859C146.255 86.9898 146.869 85.3551 146.869 83.3416V69.6062H144.136V70.7226ZM144.136 76.3045C144.136 77.4009 143.918 78.278 143.482 78.916C142.908 79.7732 141.977 80.2118 140.689 80.2118C139.402 80.2118 138.451 79.7732 137.877 78.916C137.441 78.2581 137.223 77.381 137.223 76.2845C137.223 75.1881 137.441 74.3109 137.877 73.6531C138.451 72.7958 139.382 72.3573 140.689 72.3573C141.977 72.3573 142.908 72.7759 143.482 73.6331C143.918 74.291 144.136 75.1482 144.136 76.2446V76.3045ZM157.347 76.3643V69.6062H160.08V83.6008C160.08 85.4547 159.526 86.9499 158.417 88.0663C157.327 89.1826 155.862 89.7408 154 89.7408C152.752 89.7408 151.643 89.4817 150.712 88.9633C149.761 88.4251 149.068 87.6675 148.573 86.6708L151.029 85.4547C151.306 86.0329 151.742 86.4515 152.356 86.7107C152.811 86.8901 153.366 86.9898 153.98 86.9898C156.218 86.9898 157.327 85.8534 157.327 83.6008V82.1255L157.327 82.1257C157.208 82.2054 157.09 82.2851 156.971 82.3448C156.218 82.7236 155.347 82.923 154.416 82.923C153.485 82.923 152.633 82.7435 151.861 82.3448C150.89 81.8465 150.118 81.0889 149.583 80.0323C149.028 78.9758 148.751 77.7198 148.751 76.2646V69.6062H151.484V76.2646C151.484 77.361 151.663 78.2382 152.039 78.896C152.534 79.7532 153.326 80.1719 154.416 80.1719C155.505 80.1719 156.278 79.7533 156.773 78.9359C157.149 78.298 157.347 77.4408 157.347 76.3643Z" fill="#033572"/>
<path fill-rule="evenodd" clip-rule="evenodd" d="M53.9346 0H61.6395V55.0413H53.9346V0ZM23.1149 17.6192H15.4099V32.491H23.1149V17.6192ZM23.1149 40.3731H15.4099V55.2448H23.1149V40.3731ZM94.3806 20.6131C92.8159 19.2973 90.9342 18.4002 88.7554 17.9417L88.3791 17.8221C87.1907 17.6228 85.9428 17.5231 84.6554 17.5231C83.3679 17.5231 82.1201 17.6228 80.9317 17.8221L80.5553 17.9417C76.4354 18.7591 73.1871 20.7725 70.8102 24.022C68.4334 27.2914 67.245 31.3781 67.245 36.2822C67.245 41.1663 68.4334 45.2331 70.8102 48.4626C73.1277 51.6921 76.3562 53.7455 80.4563 54.6027L80.8722 54.6824C82.0805 54.9217 83.3481 55.0213 84.6752 55.0213C85.9824 55.0213 87.2501 54.9017 88.4781 54.6824L88.8941 54.6027C91.0134 54.1243 92.8555 53.2272 94.4004 51.9314V55.0213H102.105V17.563H94.3806V20.6131ZM94.3806 36.322C94.3806 39.412 93.7666 41.8641 92.5188 43.6981C90.8946 46.0903 88.2801 47.2864 84.6752 47.2864C81.0307 47.2864 78.3963 46.0704 76.7722 43.6582C75.5639 41.8242 74.9499 39.3722 74.9499 36.2822C74.9499 33.1922 75.5639 30.7402 76.7722 28.8663C78.3963 26.474 81.0307 25.2779 84.6752 25.2779C88.2999 25.2779 90.9144 26.474 92.5188 28.8663C93.7666 30.7003 94.3806 33.1523 94.3806 36.2423V36.322ZM115.851 17.563L125.141 43.6583L134.51 17.563H142.71L129.241 55.0214H121.041L107.691 17.563H115.851ZM172.559 21.4902C169.529 18.8388 165.686 17.5231 161.071 17.5231C155.782 17.5231 151.564 19.2375 148.394 22.6465C145.225 26.0354 143.661 30.5807 143.661 36.2822C143.661 41.9837 145.285 46.5289 148.513 49.9179C151.722 53.3268 156.04 55.0413 161.447 55.0413C165.191 55.0413 168.518 54.2239 171.43 52.5892C174.342 50.9944 176.481 48.7417 177.887 45.871L170.974 42.4621C170.242 43.9573 169.033 45.1534 167.37 46.0106C165.666 46.8479 163.705 47.2665 161.447 47.2665C155.901 47.2665 152.653 44.7148 151.663 39.6313H178.481V36.2622V35.9233C178.481 34.6674 178.382 33.4713 178.184 32.2951C177.471 27.7299 175.609 24.1217 172.559 21.4902ZM151.781 32.3151C152.871 27.6303 155.961 25.2978 161.071 25.2978C166.181 25.2978 169.271 27.6303 170.36 32.3151H151.781ZM191.792 20.6928C193.337 19.397 195.179 18.4999 197.338 17.9816L197.714 17.8819C198.942 17.6627 200.19 17.543 201.517 17.543V25.2979C197.892 25.2979 195.278 26.494 193.654 28.8862C192.406 30.7203 191.792 33.1723 191.792 36.2623V55.0214H184.087V17.6028H191.792V20.6928ZM220.175 5.64169H212.49V18.161L207.102 17.5032V25.258L212.49 25.9159V40.3889V43.2994C212.49 46.7881 213.5 49.6189 215.52 51.7719C217.541 53.9449 220.215 55.0214 223.523 55.0214H225.523V47.2665H223.523C222.493 47.2665 221.72 47.0473 221.205 46.6087C220.532 45.9708 220.175 44.8544 220.175 43.2795V40.3689V25.8959L225.563 25.2381V17.4832L220.175 18.1411V5.64169ZM254.243 43.7978C255.293 41.9837 255.848 39.5715 255.867 36.5414V17.563H263.572V56.9152C263.572 62.1582 262.008 66.3446 258.898 69.4744C255.828 72.6043 251.668 74.1792 246.459 74.1792C242.933 74.1792 239.844 73.4416 237.209 71.9663C234.575 70.4513 232.574 68.2983 231.208 65.5073L238.12 62.0984C238.913 63.6932 240.16 64.8694 241.884 65.607C243.211 66.1452 244.736 66.4044 246.479 66.4044C252.758 66.4044 255.887 63.2347 255.887 56.8953V52.7687C255.55 53.0079 255.214 53.2072 254.857 53.3867C252.698 54.4831 250.302 55.0214 247.647 55.0214C244.993 55.0214 242.577 54.4831 240.438 53.3867C237.685 52.0111 235.545 49.8382 234.02 46.8878C232.475 43.8975 231.703 40.3689 231.703 36.2623V17.543H239.408V36.2623C239.408 39.3722 239.943 41.8441 240.973 43.6782C242.339 46.0704 244.558 47.2665 247.647 47.2665C250.678 47.2665 252.877 46.1103 254.243 43.7978Z" fill="#ED255C"/>
</svg>
