<svg width="162" height="90" viewBox="0 0 162 90" fill="none" xmlns="http://www.w3.org/2000/svg">
<path fill-rule="evenodd" clip-rule="evenodd" d="M143.918 0H151.684V55.3553H143.918V0ZM59.7912 5.67387H67.5371V18.2446L72.9672 17.583V25.3821L67.5371 26.0437V40.5993V43.5264C67.5371 45.1303 67.8965 46.233 68.5752 46.8746C69.0943 47.3157 69.8729 47.5362 70.911 47.5362H72.9473V55.3353H70.911C67.577 55.3353 64.8819 54.2526 62.8456 52.0673C60.8094 49.902 59.7912 47.055 59.7912 43.5464V40.6193V26.0637L54.3611 25.4021V17.603L59.7912 18.2647V5.67387ZM23.2976 17.6231H15.5317V32.5796H23.2976V17.6231ZM23.2976 40.3787H15.5317V55.3353H23.2976V40.3787ZM127.907 19.2871C125.771 18.1844 123.336 17.6431 120.64 17.6431C117.965 17.6431 115.55 18.1844 113.374 19.2871C111.477 20.3096 109.96 21.8333 108.782 23.8583C107.385 21.8533 105.628 20.3296 103.552 19.2871C101.396 18.1844 98.9599 17.6431 96.2848 17.6431C93.6097 17.6431 91.1941 18.1844 89.018 19.2871C88.6587 19.4876 88.3193 19.7081 87.9799 19.9487V17.6832H80.2141V55.3553H87.9799V36.2285C87.9999 33.181 88.5589 30.7551 89.6169 28.9708C90.9944 26.625 93.2104 25.4421 96.2648 25.4421C99.3792 25.4421 101.615 26.6651 102.993 29.091C104.031 30.9356 104.57 33.4016 104.57 36.5092V55.3753H112.336V36.5092V36.3488C112.356 33.2813 112.895 30.8353 113.933 29.0108C115.33 26.625 117.566 25.4421 120.621 25.4421C123.735 25.4421 125.971 26.6651 127.348 29.091C128.426 30.9356 128.945 33.4016 128.945 36.5092V55.3753H136.671V36.5092C136.671 32.4192 135.893 28.8705 134.336 25.8631C132.838 22.8758 130.682 20.6905 127.907 19.2871Z" fill="#ED255C"/>
<path fill-rule="evenodd" clip-rule="evenodd" d="M7.76587 17.623H0V55.3352H7.76587V17.623ZM38.8294 17.623H31.0635V55.3352H38.8294V17.623ZM65.6805 80.5568C64.822 81.7197 63.6642 82.4414 62.1868 82.7422L62.0471 82.7622C61.6079 82.8424 61.1687 82.8825 60.7095 82.8825C60.2504 82.8825 59.7912 82.8424 59.372 82.7622L59.2522 82.7422C58.4536 82.5818 57.7749 82.261 57.2159 81.7798V89.1779H54.4609V69.4898H57.2159V70.5925C57.7749 70.1313 58.4337 69.8106 59.2123 69.6301L59.352 69.6101C59.7912 69.5299 60.2504 69.4898 60.7095 69.4898C61.1687 69.4898 61.6279 69.5299 62.0671 69.6101L62.2268 69.6301C63.7041 69.9309 64.862 70.6727 65.7004 71.8155C66.5389 72.9783 66.9582 74.4419 66.9582 76.1861C66.9582 77.9304 66.5389 79.394 65.6805 80.5568ZM57.2358 76.2262C57.2358 77.3289 57.4555 78.2111 57.8947 78.8527C58.4736 79.6947 59.4119 80.1358 60.7095 80.1158C62.0271 80.1158 62.9654 79.6747 63.5444 78.8126C63.9836 78.171 64.2032 77.2888 64.2032 76.1861C64.2032 75.0835 63.9836 74.2013 63.5444 73.5397C62.9654 72.6776 62.0072 72.2365 60.7095 72.2365C59.4119 72.2365 58.4736 72.6575 57.8947 73.5196C57.4555 74.1812 57.2358 75.0634 57.2358 76.1661V76.2262ZM77.9382 69.5098V70.5925C77.3792 70.1113 76.7004 69.8106 75.9219 69.6301L75.7821 69.59C75.3629 69.5098 74.9037 69.4898 74.4446 69.4898C73.9854 69.4898 73.5462 69.5299 73.107 69.59L72.9672 69.6301C71.4899 69.9309 70.332 70.6526 69.4736 71.7954C68.6152 72.9583 68.1959 74.4218 68.1959 76.1861C68.1959 77.9304 68.6152 79.394 69.4736 80.5368C70.3121 81.6996 71.45 82.4214 72.9273 82.7422L73.087 82.7622C73.5262 82.8424 73.9654 82.8825 74.4446 82.8825C74.9237 82.8825 75.3629 82.8424 75.8021 82.7622L75.9618 82.7422C76.7204 82.5617 77.3792 82.241 77.9382 81.7798V82.8825H80.6932V69.4898H77.9382V69.5098ZM77.9382 76.2062C77.9382 77.3089 77.7186 78.1911 77.2794 78.8326C76.7004 79.6947 75.7622 80.1158 74.4645 80.1158C73.1669 80.1158 72.2086 79.6747 71.6297 78.8126C71.1905 78.171 70.9709 77.2888 70.9709 76.1861C70.9709 75.0835 71.1905 74.2013 71.6297 73.5397C72.2086 72.6776 73.1469 72.2565 74.4645 72.2565C75.7622 72.2565 76.7004 72.6776 77.2794 73.5397C77.7186 74.2013 77.9382 75.0835 77.9382 76.1861V76.2062ZM87.0616 79.8953C87.2413 80.0557 87.5208 80.1359 87.9001 80.1359H88.6188V82.9027H87.9001C86.7023 82.9027 85.744 82.5017 85.0253 81.7398C84.3066 80.978 83.9473 79.9555 83.9473 78.7124V77.6699V72.4972L82.0108 72.2566V69.4899L83.9473 69.7305V65.2395H86.7023V69.7305L88.6387 69.4899V72.2566L86.7023 72.4972V77.6699V78.7124C86.7023 79.2738 86.822 79.6748 87.0616 79.8953ZM100.916 72.417C100.377 71.3544 99.5988 70.5725 98.6205 70.0712C97.842 69.6703 96.9835 69.4898 96.0452 69.4898C95.087 69.4898 94.2285 69.6903 93.4699 70.0712L93.1106 70.3118V63.2145H90.3556V82.9026H93.1106V76.106C93.1106 75.0233 93.3102 74.1612 93.6895 73.5197C94.1886 72.6776 94.9672 72.2566 96.0652 72.2566C97.1632 72.2566 97.9617 72.6977 98.4608 73.5598C98.8401 74.2214 99.0198 75.1035 99.0198 76.2062V82.9026H101.775V76.2062C101.735 74.7427 101.455 73.4796 100.916 72.417ZM114.013 71.3142C115.15 72.5172 115.709 74.1412 115.709 76.1861C115.709 78.2311 115.131 79.8551 114.013 81.0581C112.875 82.2811 111.357 82.8825 109.461 82.8825C107.564 82.8825 106.047 82.2811 104.909 81.0581C103.771 79.8551 103.212 78.2311 103.212 76.1861C103.212 74.1612 103.771 72.5172 104.909 71.3142C106.047 70.0913 107.564 69.4898 109.461 69.4898C111.357 69.4898 112.875 70.0913 114.013 71.3142ZM109.461 80.1358C110.778 80.1358 111.717 79.7148 112.296 78.8527C112.735 78.171 112.954 77.2888 112.954 76.2062C112.954 75.1035 112.735 74.2213 112.296 73.5597C111.717 72.6976 110.758 72.2766 109.461 72.2766C108.143 72.2766 107.205 72.6976 106.626 73.5597C106.187 74.2213 105.967 75.1035 105.967 76.2062C105.967 77.3089 106.187 78.191 106.626 78.8527C107.205 79.7148 108.163 80.1358 109.461 80.1358ZM120.081 63.2145H117.327V82.9026H120.081V63.2145ZM132.519 71.3142C133.657 72.5172 134.216 74.1412 134.216 76.1861C134.216 78.2311 133.657 79.8551 132.519 81.0581C131.381 82.2811 129.864 82.8825 127.967 82.8825C126.071 82.8825 124.553 82.2811 123.415 81.0581C122.278 79.8551 121.719 78.2311 121.719 76.1861C121.719 74.1612 122.278 72.5172 123.415 71.3142C124.553 70.0913 126.071 69.4898 127.967 69.4898C129.864 69.4898 131.381 70.0913 132.519 71.3142ZM127.967 80.1358C129.285 80.1358 130.223 79.7148 130.802 78.8527C131.241 78.171 131.461 77.2888 131.461 76.2062C131.461 75.1035 131.241 74.2213 130.802 73.5597C130.223 72.6976 129.265 72.2766 127.967 72.2766C126.65 72.2766 125.711 72.6976 125.132 73.5597C124.693 74.2213 124.474 75.1035 124.474 76.2062C124.474 77.3089 124.693 78.191 125.132 78.8527C125.711 79.7148 126.67 80.1358 127.967 80.1358ZM148.031 69.5099H145.276V70.6126C144.717 70.1314 144.038 69.8107 143.259 69.6503L143.14 69.6302C142.72 69.55 142.261 69.5099 141.802 69.5099C141.343 69.5099 140.904 69.55 140.464 69.6302L140.325 69.6503C138.847 69.951 137.689 70.6728 136.831 71.8356C135.973 72.9985 135.553 74.462 135.553 76.2063C135.553 77.9506 135.973 79.4141 136.811 80.577C137.65 81.7198 138.807 82.4616 140.285 82.7623L140.424 82.7824C140.864 82.8626 141.323 82.9027 141.782 82.9027C142.241 82.9027 142.7 82.8626 143.12 82.7824L143.279 82.7623C144.058 82.5819 144.717 82.2611 145.256 81.8V83.3036C145.256 85.9301 143.958 87.2333 141.363 87.2333C140.644 87.2333 140.005 87.113 139.466 86.8924C138.748 86.5917 138.228 86.1105 137.909 85.4288L135.434 86.6518C135.973 87.7345 136.751 88.5565 137.769 89.1379C138.787 89.7193 140.005 90 141.383 90C143.399 90 145.016 89.3985 146.214 88.1756C147.412 86.9726 148.031 85.3286 148.031 83.3036V69.5099ZM144.617 78.8528C144.038 79.7149 143.1 80.156 141.802 80.156C140.504 80.156 139.546 79.7149 138.967 78.8528C138.528 78.1911 138.308 77.309 138.308 76.2063C138.308 75.1036 138.528 74.2214 138.967 73.5598C139.546 72.6977 140.484 72.2566 141.802 72.2566C143.1 72.2566 144.038 72.6777 144.617 73.5398C145.056 74.2014 145.276 75.0635 145.276 76.1662V76.2263C145.276 77.329 145.056 78.1911 144.617 78.8528ZM158.591 69.5099H161.346V83.5843C161.346 85.4489 160.787 86.9526 159.669 88.0753C158.571 89.1981 157.094 89.7594 155.218 89.7594C153.96 89.7594 152.842 89.4988 151.904 88.9775C150.945 88.4362 150.247 87.6743 149.747 86.6719L152.223 85.4489C152.502 86.0303 152.942 86.4513 153.561 86.712C154.02 86.8924 154.579 86.9927 155.198 86.9927C157.453 86.9927 158.571 85.8499 158.571 83.5843V82.1007C158.452 82.1809 158.332 82.2611 158.212 82.3212C157.453 82.7022 156.575 82.9027 155.637 82.9027C154.699 82.9027 153.84 82.7222 153.061 82.3212C152.083 81.82 151.305 81.0582 150.766 79.9956C150.207 78.933 149.927 77.6699 149.927 76.2063V69.5099H152.682V76.2063C152.682 77.309 152.862 78.1911 153.241 78.8528C153.74 79.7149 154.539 80.1359 155.637 80.1359C156.735 80.1359 157.513 79.7149 158.012 78.8929C158.392 78.2513 158.591 77.3892 158.591 76.3065V69.5099Z" fill="#033572"/>
</svg>
