<svg width="361" height="85" viewBox="0 0 361 85" fill="none" xmlns="http://www.w3.org/2000/svg">
<path fill-rule="evenodd" clip-rule="evenodd" d="M7.6464 13.0312H0V50.0024H7.6464V13.0312ZM38.232 13.0313H30.5856V50.0025H38.232V13.0313ZM88.9262 77.0281H91.6192V70.3651C91.6192 69.3037 91.8157 68.4585 92.1892 67.8296C92.6806 67.0041 93.4669 66.5913 94.5283 66.5913C95.6291 66.5913 96.3957 67.0237 96.8871 67.8689C97.2606 68.5175 97.4375 69.3823 97.4375 70.4633V77.0281H100.15V70.4633C100.15 69.0285 99.8749 67.7903 99.3245 66.7485C98.7938 65.7068 98.0469 64.9403 97.064 64.4489C96.3171 64.0755 95.4718 63.8789 94.5283 63.8789C93.6045 63.8789 92.7592 64.0558 91.9926 64.4489L91.6388 64.6848V57.7269H88.9262V77.0281ZM82.6558 66.8273L80.7491 66.5914V63.879L82.6558 64.1149V59.7121H85.3684V64.1149L87.2751 63.879V66.5914L85.3684 66.8273V71.8983V72.9203C85.3684 73.4707 85.4863 73.8638 85.7222 74.08C85.8991 74.2372 86.1743 74.3158 86.5478 74.3158H87.2554V77.0282H86.5478C85.388 77.0282 84.4445 76.6548 83.7172 75.8882C82.9899 75.1217 82.6558 74.1389 82.6558 72.9203V71.8983V66.8273ZM58.3603 76.8906L58.4782 76.9103C58.891 76.9889 59.3234 77.0282 59.7952 77.0282C60.2473 77.0282 60.6994 76.9889 61.1122 76.9103L61.2498 76.8906C62.7044 76.5958 63.8444 75.8882 64.6897 74.7482C65.5349 73.6082 65.9477 72.1734 65.9477 70.4634C65.9477 68.7534 65.5349 67.3186 64.7093 66.1786C63.8641 65.0583 62.7437 64.331 61.2891 64.0362L61.1318 64.0165C60.6994 63.9379 60.267 63.8986 59.7952 63.8986C59.3234 63.8986 58.891 63.9379 58.4585 64.0165L58.321 64.0362C57.5544 64.2131 56.9057 64.5276 56.3553 64.9796V63.8986H53.6427V83.1999H56.3553V75.9472C56.9253 76.3992 57.574 76.7137 58.3603 76.8906ZM57.004 73.0579C56.5715 72.4289 56.3553 71.5641 56.3553 70.4831V70.4438C56.3553 69.3627 56.5715 68.4979 57.004 67.8493C57.574 67.0041 58.4979 66.5914 59.7755 66.5914C61.0729 66.5914 61.9967 67.0238 62.5668 67.8689C62.9992 68.4979 63.2154 69.3824 63.2154 70.4634C63.2154 71.5248 62.9992 72.3896 62.5668 73.0382C61.9967 73.8834 61.0532 74.3158 59.7755 74.3158C58.4979 74.3158 57.574 73.903 57.004 73.0579ZM79.4518 63.8986H76.7392V64.9796C76.1888 64.5079 75.5204 64.1934 74.7538 64.0362L74.6162 63.9969C74.1838 63.9379 73.7514 63.8986 73.2993 63.8986C72.8472 63.8986 72.3951 63.9183 71.9823 63.9969L71.8447 64.0362C70.3901 64.3114 69.25 65.019 68.4048 66.159C67.5595 67.2989 67.1468 68.7338 67.1468 70.4634C67.1468 72.1734 67.5595 73.5886 68.4048 74.7286C69.2304 75.8686 70.3508 76.5958 71.8054 76.8906L71.9626 76.9103C72.3951 76.9889 72.8472 77.0282 73.2993 77.0282C73.7514 77.0282 74.2035 76.9889 74.6359 76.9103L74.7932 76.8906C75.5401 76.7137 76.1888 76.3992 76.7392 75.9472V77.0282H79.4518V63.8986ZM76.0905 67.8493C76.5229 68.4979 76.7392 69.3627 76.7392 70.4438V70.4831C76.7392 71.5444 76.5229 72.4093 76.0905 73.0579C75.5204 73.903 74.5966 74.3158 73.3189 74.3158C72.0216 74.3158 71.0977 73.8834 70.5277 73.0382C70.0952 72.4093 69.879 71.5444 69.879 70.4634C69.879 69.3824 70.0952 68.5176 70.5277 67.8493C71.0977 67.0041 72.0412 66.5914 73.3189 66.5914C74.5966 66.5914 75.5204 67.0041 76.0905 67.8493ZM107.777 63.8789C109.644 63.8789 111.138 64.4686 112.259 65.6675C113.379 66.8468 113.929 68.4585 113.929 70.4437C113.929 72.4485 113.379 74.0406 112.259 75.2199C111.138 76.4188 109.644 77.0085 107.777 77.0085C105.909 77.0085 104.416 76.4188 103.295 75.2199C102.175 74.0406 101.624 72.4289 101.624 70.4437C101.624 68.4389 102.175 66.8468 103.295 65.6675C104.416 64.4882 105.909 63.8789 107.777 63.8789ZM107.777 74.3157C109.055 74.3157 109.998 73.903 110.568 73.0578C111.001 72.4092 111.217 71.5444 111.217 70.4633C111.217 69.3823 111.001 68.5175 110.568 67.8689C109.998 67.0237 109.074 66.611 107.777 66.611C106.499 66.611 105.556 67.0237 104.986 67.8689C104.553 68.5175 104.337 69.3823 104.337 70.4633C104.337 71.5444 104.553 72.4092 104.986 73.0578C105.556 73.903 106.499 74.3157 107.777 74.3157ZM118.234 77.0281V57.7269H115.522V77.0281H118.234ZM125.998 63.8789C127.866 63.8789 129.36 64.4686 130.48 65.6675C131.601 66.8468 132.151 68.4585 132.151 70.4437C132.151 72.4485 131.601 74.0406 130.48 75.2199C129.36 76.4188 127.866 77.0085 125.998 77.0085C124.131 77.0085 122.637 76.4188 121.517 75.2199C120.396 74.0406 119.846 72.4289 119.846 70.4437C119.846 68.4389 120.396 66.8468 121.517 65.6675C122.657 64.4882 124.131 63.8789 125.998 63.8789ZM125.998 74.3157C127.276 74.3157 128.22 73.903 128.79 73.0578C129.222 72.4092 129.438 71.5444 129.438 70.4633C129.438 69.3823 129.222 68.5175 128.79 67.8689C128.22 67.0237 127.296 66.611 125.998 66.611C124.721 66.611 123.777 67.0237 123.207 67.8689C122.775 68.5175 122.559 69.3823 122.559 70.4633C122.559 71.5444 122.775 72.4092 123.207 73.0578C123.797 73.903 124.721 74.3157 125.998 74.3157ZM133.468 70.4634C133.468 72.1734 133.881 73.6082 134.706 74.7482C135.532 75.8686 136.672 76.5958 138.127 76.8906L138.264 76.9103C138.697 76.9889 139.149 77.0282 139.601 77.0282C140.053 77.0282 140.505 76.9889 140.918 76.9103L141.075 76.8906C141.822 76.7137 142.471 76.3992 143.021 75.9472V77.441C143.021 80.0158 141.743 81.2934 139.188 81.2934C138.48 81.2934 137.851 81.1754 137.321 80.9592C136.613 80.6644 136.102 80.1927 135.787 79.5244L133.35 80.7234C133.881 81.7847 134.647 82.5906 135.65 83.1606C136.652 83.7306 137.832 84.0058 139.208 84.0058C141.173 84.0058 142.766 83.4161 143.965 82.2171C145.164 81.0378 145.753 79.4458 145.753 77.441V63.8986H143.041V64.9796C142.49 64.5276 141.822 64.2131 141.055 64.0362L140.937 64.0165C140.505 63.9379 140.073 63.8986 139.62 63.8986C139.168 63.8986 138.716 63.9379 138.303 64.0165L138.166 64.0362C136.711 64.331 135.571 65.0386 134.726 66.1786C133.881 67.3186 133.468 68.7534 133.468 70.4634ZM136.829 67.8689C137.399 67.0238 138.343 66.5914 139.62 66.5914C140.898 66.5914 141.822 67.0238 142.392 67.8493C142.824 68.4979 143.041 69.3431 143.041 70.4241V70.4831C143.041 71.5641 142.824 72.4289 142.392 73.0579C141.822 73.903 140.898 74.3355 139.62 74.3355C138.323 74.3355 137.399 73.903 136.829 73.0579C136.397 72.4093 136.181 71.5444 136.181 70.4634C136.181 69.3824 136.397 68.5176 136.829 67.8689ZM156.152 63.8986H158.864V77.6965C158.864 79.544 158.314 80.9985 157.213 82.0992C156.132 83.1999 154.658 83.7502 152.83 83.7502C151.572 83.7502 150.491 83.4947 149.567 82.9837C148.643 82.453 147.935 81.7061 147.444 80.7234L149.881 79.5244C150.156 80.0944 150.608 80.5071 151.198 80.7627C151.67 80.9592 152.201 81.0378 152.81 81.0378C155.031 81.0378 156.132 79.9175 156.132 77.6965V76.242C156.014 76.3206 155.896 76.3992 155.778 76.4582C155.012 76.8513 154.166 77.0282 153.242 77.0282C152.319 77.0282 151.454 76.8316 150.707 76.4582C149.724 75.9668 148.977 75.2199 148.446 74.1782C147.896 73.1365 147.621 71.8982 147.621 70.4634V63.8986H150.333V70.4634C150.333 71.5444 150.51 72.4093 150.884 73.0579C151.375 73.903 152.142 74.3158 153.242 74.3158C154.304 74.3158 155.09 73.903 155.582 73.0972C155.955 72.4682 156.152 71.6231 156.152 70.5617V63.8986Z" fill="#033572"/>
<path fill-rule="evenodd" clip-rule="evenodd" d="M282.347 7.1343C283.133 7.95981 284.135 8.37257 285.315 8.37257C286.474 8.37257 287.457 7.95981 288.243 7.1343C289.069 6.30879 289.482 5.32603 289.482 4.16638C289.482 3.02639 289.069 2.02398 288.243 1.19847C287.438 0.392611 286.474 -0.000488281 285.315 -0.000488281C284.135 -0.000488281 283.152 0.392611 282.347 1.19847C281.521 2.02398 281.108 3.00674 281.108 4.16638C281.108 5.30638 281.521 6.30879 282.347 7.1343ZM289.128 13.0308H281.482V50.002H289.128V13.0308ZM131.62 21.3252L126.274 20.6766V13.0308L131.62 13.6794V1.33601H139.267V13.6794L144.613 13.0308V20.6766L139.267 21.3252V35.5948V38.4644C139.267 40.0172 139.601 41.1179 140.289 41.7468C140.8 42.1792 141.566 42.3955 142.589 42.3955H144.574V50.0413H142.569C139.286 50.0413 136.633 48.9799 134.628 46.8375C132.623 44.7147 131.62 41.9237 131.62 38.4841V35.6145V21.3252ZM15.2927 13.0308H22.9391V27.6934H15.2927V13.0308ZM15.2927 35.3393H22.9391V50.002H15.2927V35.3393ZM88.2775 13.07L74.911 50.0019H66.7732L53.5247 13.07H61.6232L70.8421 38.7789L80.1397 13.07H88.2775ZM97.1622 34.8479H123.758V31.5262V31.1921C123.758 29.9538 123.659 28.7745 123.463 27.6149C122.775 23.0942 120.907 19.5563 117.9 16.9618C114.892 14.3674 111.099 13.0505 106.499 13.0505C101.251 13.0505 97.064 14.7408 93.9189 18.1018C90.7935 21.4432 89.221 25.9245 89.221 31.5459C89.221 37.1672 90.8328 41.6486 94.0368 44.99C97.2212 48.351 101.506 50.0413 106.873 50.0413C110.588 50.0413 113.89 49.2355 116.779 47.6237C119.669 46.0513 121.812 43.8303 123.188 41L116.327 37.639C115.6 39.1131 114.401 40.2924 112.75 41.1376C111.059 41.9631 109.113 42.3758 106.873 42.3758C101.388 42.3758 98.1451 39.86 97.1622 34.8479ZM106.519 20.6963C111.59 20.6963 114.657 22.9959 115.738 27.6149H97.2998C98.3613 22.9959 101.447 20.6963 106.519 20.6963ZM179.504 21.109C177.99 18.1804 175.867 16.038 173.135 14.6621C171.012 13.5811 168.614 13.0308 165.999 13.0308C163.366 13.0308 160.987 13.5614 158.845 14.6425C158.491 14.8587 158.157 15.0749 157.822 15.2911V13.0701H150.176V50.0216H157.822V31.2707C157.842 28.2831 158.373 25.9048 159.434 24.1555C160.79 21.8559 162.972 20.6962 165.98 20.6962C169.046 20.6962 171.248 21.8952 172.604 24.2735C173.646 26.0817 174.157 28.4993 174.157 31.5458V50.0413H181.803V31.5458C181.803 27.5165 181.037 24.0376 179.504 21.109ZM204.644 13.0308C209.893 13.0308 214.079 14.7211 217.224 18.0821C220.37 21.4235 221.942 25.9048 221.942 31.5262C221.942 37.1475 220.37 41.6289 217.224 44.9702C214.079 48.3313 209.893 50.0216 204.644 50.0216C199.396 50.0216 195.209 48.3313 192.064 44.9702C188.919 41.6289 187.366 37.1475 187.366 31.5262C187.366 25.9048 188.939 21.4235 192.064 18.0821C195.209 14.7211 199.396 13.0308 204.644 13.0308ZM204.644 42.3758C208.261 42.3758 210.875 41.1965 212.487 38.8379C213.706 37.0099 214.335 34.5727 214.335 31.5262C214.335 28.4796 213.726 26.0621 212.487 24.2145C210.875 21.8559 208.261 20.6766 204.644 20.6766C201.027 20.6766 198.413 21.8559 196.821 24.2145C195.622 26.0424 195.013 28.4796 195.013 31.5262C195.013 34.5531 195.622 36.9903 196.821 38.8379C198.433 41.1965 201.027 42.3758 204.644 42.3758ZM242.444 42.2579C241.795 42.3365 241.087 42.3758 240.341 42.3758C239.824 42.3758 239.326 42.357 238.847 42.3389L238.847 42.3389C238.633 42.3308 238.424 42.3229 238.218 42.3169C237.372 42.2186 236.625 42.0417 235.996 41.7862C234.385 41.1965 233.559 40.1745 233.539 38.7396L225.932 39.349C226.109 42.2972 227.269 44.7148 229.392 46.6213C231.986 48.921 235.623 50.0806 240.321 50.0806C245.196 50.0806 248.911 48.8227 251.505 46.3462C253.648 44.2824 254.709 41.7469 254.709 38.7003C254.709 35.6931 253.628 33.1576 251.505 31.0938C248.911 28.5976 245.196 27.3594 240.321 27.3594C239.613 27.3594 238.965 27.3201 238.355 27.2414C237.589 27.1432 236.92 26.9859 236.37 26.7894C234.856 26.239 234.109 25.3152 234.109 24.0377C234.109 22.7601 234.856 21.8363 236.37 21.2859C236.92 21.0894 237.569 20.9322 238.355 20.8339C238.965 20.7553 239.613 20.716 240.321 20.716C241.009 20.716 241.638 20.7553 242.247 20.8339C243.014 20.9125 243.663 21.0501 244.213 21.2859C245.687 21.8166 246.454 22.6815 246.513 23.8804L254.12 23.2711C253.923 20.4801 252.803 18.1608 250.739 16.3329C248.282 14.1512 244.803 13.0505 240.341 13.0505C235.643 13.0505 232.065 14.2494 229.608 16.6277C227.544 18.5932 226.522 21.0697 226.522 23.9983C226.522 26.9073 227.544 29.3642 229.608 31.369C232.065 33.7473 235.643 34.9462 240.341 34.9462C241.087 34.9462 241.795 34.9855 242.444 35.0642C243.289 35.1624 244.036 35.3393 244.665 35.5948C246.277 36.1845 247.083 37.2066 247.083 38.6414C247.083 40.0762 246.277 41.0983 244.665 41.7272C244.036 41.9827 243.289 42.1596 242.444 42.2579ZM262.552 21.3252L257.206 20.6766V13.0308L262.552 13.6794V1.33601H270.199V13.6794L275.545 13.0308V20.6766L270.199 21.3252V35.5948V38.4644C270.199 40.0172 270.533 41.1179 271.221 41.7468C271.712 42.1792 272.479 42.3955 273.521 42.3955H275.506V50.0413H273.521C270.238 50.0413 267.584 48.9799 265.58 46.8375C263.575 44.7147 262.572 41.9237 262.572 38.4841V35.6145V21.3252H262.552ZM312.342 50.0216C307.094 50.0216 302.907 48.3313 299.762 44.9702C296.617 41.6289 295.064 37.1475 295.064 31.5262C295.064 25.9048 296.637 21.4235 299.762 18.0821C302.907 14.7211 307.094 13.0308 312.342 13.0308C315.881 13.0308 318.986 13.8366 321.679 15.4483C324.392 17.06 326.417 19.3204 327.773 22.2686L320.834 25.4724C319.36 22.2883 316.51 20.6962 312.323 20.6962C308.726 20.6962 306.111 21.8755 304.48 24.2341C303.281 26.0621 302.671 28.4993 302.671 31.5458C302.671 34.5727 303.281 37.0099 304.48 38.8575C306.111 41.2161 308.726 42.3954 312.323 42.3954C316.549 42.3954 319.379 40.7837 320.873 37.5406L327.793 40.7051C326.436 43.673 324.412 45.9727 321.738 47.604C319.045 49.1961 315.92 50.0216 312.342 50.0216ZM348.334 42.2579C347.685 42.3365 346.977 42.3758 346.23 42.3758C345.714 42.3758 345.215 42.357 344.736 42.3389C344.523 42.3308 344.313 42.3229 344.107 42.3169C343.262 42.2186 342.515 42.0417 341.886 41.7862C340.274 41.1965 339.449 40.1745 339.429 38.7396L331.822 39.349C331.999 42.2972 333.159 44.7148 335.282 46.6213C337.876 48.921 341.513 50.0806 346.211 50.0806C351.085 50.0806 354.801 48.8227 357.395 46.3462C359.538 44.2824 360.599 41.7469 360.599 38.7003C360.599 35.6931 359.518 33.1576 357.395 31.0938C354.801 28.5976 351.085 27.3594 346.211 27.3594C345.503 27.3594 344.854 27.3201 344.245 27.2414C343.478 27.1432 342.81 26.9859 342.26 26.7894C340.746 26.239 339.999 25.3152 339.999 24.0377C339.999 22.7601 340.746 21.8363 342.26 21.2859C342.81 21.0894 343.459 20.9322 344.245 20.8339C344.854 20.7553 345.503 20.716 346.211 20.716C346.899 20.716 347.528 20.7553 348.137 20.8339C348.904 20.9125 349.552 21.0501 350.103 21.2859C351.577 21.8166 352.344 22.6815 352.402 23.8804L360.01 23.2711C359.813 20.4801 358.693 18.1608 356.629 16.3329C354.172 14.1512 350.692 13.0505 346.23 13.0505C341.532 13.0505 337.955 14.2494 335.498 16.6277C333.434 18.5932 332.412 21.0697 332.412 23.9983C332.412 26.9073 333.434 29.3642 335.498 31.369C337.955 33.7473 341.532 34.9462 346.23 34.9462C346.977 34.9462 347.685 34.9855 348.334 35.0642C349.179 35.1624 349.926 35.3393 350.555 35.5948C352.167 36.1845 352.973 37.2066 352.973 38.6414C352.973 40.0762 352.167 41.0983 350.555 41.7272C349.926 41.9827 349.179 42.1596 348.334 42.2579Z" fill="#ED255C"/>
</svg>
