<svg width="334" height="90" viewBox="0 0 334 90" fill="none" xmlns="http://www.w3.org/2000/svg">
<path fill-rule="evenodd" clip-rule="evenodd" d="M7.73785 17.623H0V55.3352H7.73785V17.623ZM64.8415 61.4121V69.2866C64.247 68.7731 63.5252 68.4521 62.6973 68.2595L62.5486 68.2167C62.1028 68.1311 61.6145 68.1097 61.1262 68.1097C60.6379 68.1097 60.1709 68.1525 59.7038 68.2167L59.5552 68.2595C57.9842 68.5805 56.7528 69.3508 55.8399 70.5705C54.9271 71.8116 54.4812 73.3736 54.4812 75.2567C54.4812 77.1183 54.9271 78.6803 55.8399 79.9C56.7316 81.1411 57.9417 81.9114 59.5127 82.2538L59.6826 82.2752C60.1496 82.3608 60.6167 82.4036 61.1262 82.4036C61.6357 82.4036 62.1028 82.3608 62.5699 82.2752L62.7397 82.2538C63.5465 82.0612 64.247 81.7189 64.8415 81.2267V82.4036H67.7712V61.3907H64.8415V61.4121ZM64.8415 75.278C64.8415 76.4549 64.608 77.3965 64.1409 78.0812C63.5252 79.0013 62.5274 79.4507 61.1475 79.4507C59.7675 79.4507 58.7485 78.9799 58.1328 78.0598C57.6657 77.3537 57.4322 76.4121 57.4322 75.2567C57.4322 74.0798 57.6657 73.1383 58.1328 72.4321C58.7485 71.512 59.7463 71.0626 61.1475 71.0626C62.5274 71.0626 63.5252 71.512 64.1409 72.4321C64.608 73.1383 64.8415 74.0798 64.8415 75.2567V75.278ZM72.187 68.1097H69.2573V82.425H72.187V68.1097ZM71.8474 65.8202C71.5502 66.1197 71.1681 66.2909 70.7222 66.2909C70.2764 66.2909 69.8943 66.1411 69.5758 65.8202C69.2786 65.4992 69.1088 65.114 69.1088 64.6647C69.1088 64.2153 69.2574 63.8301 69.5758 63.5092C69.8943 63.1882 70.2764 63.0384 70.7222 63.0384C71.1681 63.0384 71.529 63.2096 71.8474 63.5092C72.1447 63.8301 72.3145 64.2153 72.3145 64.6647C72.3145 65.114 72.1659 65.4992 71.8474 65.8202ZM84.0122 68.1311V69.2866C83.4178 68.7731 82.6959 68.4521 81.868 68.2595L81.7194 68.2167C81.2735 68.1311 80.7852 68.1097 80.297 68.1097C79.8087 68.1097 79.3416 68.1525 78.8745 68.2167L78.7259 68.2595C77.1549 68.5805 75.9236 69.3508 75.0107 70.5705C74.0978 71.8116 73.6519 73.3736 73.6519 75.2567C73.6519 77.1183 74.0978 78.6803 75.0107 79.9C75.9023 81.1411 77.1124 81.9114 78.6835 82.2538L78.8533 82.2752C79.3204 82.3608 79.7874 82.4036 80.297 82.4036C80.8065 82.4036 81.2735 82.3608 81.7406 82.2752L81.9104 82.2538C82.7172 82.0612 83.4178 81.7189 84.0122 81.2267V82.4036H86.942V68.1097H84.0122V68.1311ZM84.0122 75.2781C84.0122 76.4549 83.7787 77.3965 83.3116 78.0812C82.6959 79.0013 81.6981 79.4507 80.3182 79.4507C78.9382 79.4507 77.9192 78.9799 77.3035 78.0598C76.8364 77.3537 76.6029 76.4122 76.6029 75.2567C76.6029 74.0798 76.8364 73.1383 77.3035 72.4321C77.9192 71.512 78.917 71.0627 80.3182 71.0627C81.6981 71.0627 82.6959 71.512 83.3116 72.4321C83.7787 73.1383 84.0122 74.0798 84.0122 75.2567V75.2781ZM98.7459 68.1311H101.676V82.853C101.676 85.0142 101.018 86.7688 99.7437 88.0527C98.4699 89.358 96.7503 89.9999 94.606 89.9999C93.1411 89.9999 91.8461 89.7003 90.7634 89.0798C89.6806 88.4593 88.8527 87.5819 88.2795 86.4264L90.912 85.1212C91.2517 85.8487 91.8036 86.3623 92.5679 86.6832C93.1411 86.9186 93.8205 87.047 94.5848 87.047C97.3447 87.047 98.7247 85.6561 98.7247 82.853V81.2481C98.1514 81.7403 97.4509 82.0826 96.6229 82.2752L96.453 82.2966C96.0072 82.3822 95.5189 82.425 95.0306 82.425C94.5423 82.425 94.054 82.3822 93.587 82.2966L93.4384 82.2752C91.8673 81.9543 90.636 81.1625 89.7443 79.9428C88.8527 78.7018 88.4068 77.1397 88.4068 75.2781C88.4068 73.4165 88.8527 71.8544 89.7656 70.6133C90.6785 69.3722 91.9098 68.6019 93.4808 68.2809L93.6294 68.2595C94.0965 68.1739 94.5636 68.1311 95.0518 68.1311C95.5401 68.1311 96.0284 68.1739 96.4743 68.2595L96.6016 68.2809C97.4296 68.4521 98.1514 68.7945 98.7459 69.308V68.1311ZM95.0306 79.4935C96.4106 79.4935 97.4084 79.0227 98.0241 78.1026C98.5124 77.3965 98.7459 76.4764 98.7247 75.2995V75.2353C98.7247 74.0584 98.4911 73.1383 98.0241 72.4321C97.4084 71.512 96.4106 71.0627 95.0306 71.0627C93.6294 71.0627 92.6316 71.5334 92.016 72.4535C91.5489 73.1597 91.3154 74.1012 91.3154 75.2781C91.3154 76.455 91.5489 77.3965 92.016 78.1026C92.6316 79.0227 93.6507 79.4935 95.0306 79.4935ZM114.286 71.2338C113.713 70.0997 112.885 69.2652 111.845 68.7303C111.017 68.3023 110.104 68.1097 109.106 68.1097C108.087 68.1097 107.174 68.3237 106.367 68.7303L105.985 68.9871V68.1311H103.056V82.425H105.985V75.1711C105.985 74.0156 106.198 73.0955 106.601 72.4107C107.132 71.512 107.96 71.0627 109.127 71.0627C110.295 71.0627 111.144 71.5334 111.675 72.4535C112.078 73.1597 112.269 74.1012 112.269 75.2781V82.425H115.199V75.2781C115.157 73.716 114.881 72.3679 114.286 71.2338ZM127.98 70.057C129.19 71.3408 129.784 73.0741 129.784 75.2567C129.784 77.4393 129.169 79.1725 127.98 80.4564C126.77 81.7617 125.156 82.4036 123.139 82.4036C121.122 82.4036 119.509 81.7617 118.299 80.4564C117.089 79.1725 116.494 77.4393 116.494 75.2567C116.494 73.0955 117.089 71.3408 118.299 70.057C119.509 68.7517 121.122 68.1097 123.139 68.1097C125.156 68.1097 126.77 68.7517 127.98 70.057ZM123.139 79.4721C124.54 79.4721 125.538 79.0227 126.154 78.1026C126.621 77.3751 126.854 76.4336 126.854 75.2781C126.854 74.1012 126.621 73.1597 126.154 72.4535C125.538 71.5334 124.519 71.0841 123.139 71.0841C121.738 71.0841 120.74 71.5334 120.125 72.4535C119.657 73.1597 119.424 74.1012 119.424 75.2781C119.424 76.4549 119.657 77.3965 120.125 78.1026C120.74 79.0227 121.759 79.4721 123.139 79.4721ZM142.161 78.017C142.161 76.8615 141.758 75.8772 140.93 75.0641C139.932 74.1012 138.51 73.6304 136.642 73.6304C136.366 73.6304 136.111 73.609 135.898 73.5876C135.601 73.5448 135.346 73.502 135.134 73.4164C134.561 73.2025 134.264 72.8387 134.264 72.3465C134.264 71.8544 134.561 71.4906 135.134 71.2766C135.346 71.191 135.601 71.1482 135.898 71.1054C136.132 71.084 136.387 71.0627 136.642 71.0627C136.896 71.0627 137.151 71.084 137.385 71.1054C137.682 71.1268 137.915 71.191 138.128 71.2766C138.701 71.4906 138.998 71.8116 139.019 72.2823L141.949 72.047C141.864 70.9771 141.439 70.0783 140.654 69.3722C139.699 68.5163 138.382 68.1097 136.663 68.1097C134.858 68.1097 133.478 68.5805 132.544 69.5006C131.759 70.2709 131.355 71.2124 131.355 72.3465C131.355 73.4806 131.759 74.4221 132.544 75.2139C133.499 76.134 134.858 76.6047 136.663 76.6047C136.96 76.6047 137.215 76.6261 137.469 76.6475C137.788 76.6903 138.085 76.7545 138.319 76.8615C138.934 77.0969 139.253 77.4821 139.253 78.0384C139.253 78.5947 138.934 79.0013 138.319 79.2367C138.085 79.3437 137.788 79.4079 137.469 79.4507C137.215 79.4721 136.939 79.4935 136.663 79.4935C136.366 79.4935 136.111 79.4721 135.856 79.4507L135.856 79.4507C135.538 79.4079 135.24 79.3437 135.007 79.2367C134.391 79.0013 134.073 78.6161 134.073 78.0598L131.143 78.2952C131.207 79.4293 131.652 80.3708 132.48 81.0983C133.478 81.997 134.879 82.4464 136.684 82.4464C138.552 82.4464 139.996 81.9756 140.972 81.0127C141.758 80.1782 142.161 79.1939 142.161 78.017ZM148.87 79.2153C149.061 79.3865 149.358 79.4721 149.762 79.4721H150.526V82.425H149.762C148.488 82.425 147.469 81.997 146.705 81.1839C145.94 80.3708 145.558 79.2795 145.558 77.9528V76.8401V71.3194L143.499 71.0627V68.1097L145.558 68.3665V63.5734H148.488V68.3665L150.547 68.1097V71.0627L148.488 71.3194V76.8401V77.9528C148.488 78.552 148.615 78.9799 148.87 79.2153ZM153.498 66.2909C153.944 66.2909 154.326 66.1197 154.623 65.8202C154.942 65.4992 155.09 65.114 155.09 64.6647C155.09 64.2153 154.921 63.8301 154.623 63.5092C154.305 63.2096 153.944 63.0384 153.498 63.0384C153.052 63.0384 152.67 63.1882 152.352 63.5092C152.033 63.8301 151.885 64.2153 151.885 64.6647C151.885 65.114 152.055 65.4992 152.352 65.8202C152.67 66.1411 153.052 66.2909 153.498 66.2909ZM152.033 82.425V68.1097H154.963V82.425H152.033ZM169.039 78.8087L166.385 77.5891C165.812 78.8515 164.729 79.4721 163.094 79.4721C161.714 79.4721 160.716 79.0227 160.08 78.1026C159.612 77.3965 159.379 76.455 159.379 75.2781C159.379 74.1012 159.612 73.1597 160.08 72.4535C160.716 71.5334 161.714 71.0841 163.094 71.0841C164.708 71.0841 165.79 71.7046 166.364 72.9457L169.017 71.7046C168.487 70.5705 167.722 69.6932 166.682 69.0727C165.642 68.4521 164.453 68.1311 163.094 68.1311C161.077 68.1311 159.464 68.7731 158.254 70.0784C157.044 71.3622 156.449 73.1169 156.449 75.2781C156.449 77.4607 157.044 79.1939 158.254 80.4778C159.464 81.7831 161.077 82.425 163.094 82.425C164.474 82.425 165.663 82.104 166.703 81.4835C167.722 80.8416 168.508 79.9642 169.039 78.8087ZM188.655 79.9214C187.742 81.1625 186.511 81.9328 184.94 82.2538L184.791 82.2752C184.324 82.3608 183.857 82.4036 183.369 82.4036C182.881 82.4036 182.392 82.3608 181.947 82.2752L181.819 82.2538C180.97 82.0826 180.248 81.7403 179.654 81.2267V89.1226H176.724V68.1097H179.654V69.2866C180.248 68.7945 180.949 68.4521 181.777 68.2595L181.925 68.2381C182.392 68.1525 182.881 68.1097 183.369 68.1097C183.857 68.1097 184.346 68.1525 184.813 68.2381L184.982 68.2595C186.553 68.5805 187.785 69.3722 188.676 70.5919C189.568 71.833 190.014 73.395 190.014 75.2567C190.014 77.1183 189.568 78.6803 188.655 79.9214ZM179.675 75.2995C179.675 76.4764 179.908 77.4179 180.375 78.1026C180.991 79.0013 181.989 79.4721 183.369 79.4507C184.77 79.4507 185.768 78.9799 186.384 78.0598C186.851 77.3751 187.084 76.4336 187.084 75.2567C187.084 74.0798 186.851 73.1383 186.384 72.4321C185.768 71.512 184.749 71.0413 183.369 71.0413C181.989 71.0413 180.991 71.4906 180.375 72.4107C179.908 73.1169 179.675 74.0584 179.675 75.2353V75.2995ZM201.69 68.1311V69.2866C201.096 68.7731 200.374 68.4521 199.546 68.2595L199.419 68.2167C198.973 68.1311 198.485 68.1097 197.996 68.1097C197.508 68.1097 197.041 68.1525 196.574 68.2167L196.425 68.2595C194.854 68.5805 193.623 69.3508 192.71 70.5705C191.797 71.8116 191.351 73.3736 191.351 75.2567C191.351 77.1183 191.797 78.6803 192.71 79.9C193.602 81.1411 194.812 81.9114 196.383 82.2538L196.553 82.2752C197.02 82.3608 197.487 82.4036 197.996 82.4036C198.506 82.4036 198.973 82.3608 199.44 82.2752L199.61 82.2538C200.417 82.0612 201.117 81.7189 201.712 81.2267V82.4036H204.641V68.1097H201.69V68.1311ZM201.69 75.2781C201.69 76.4549 201.457 77.3965 200.99 78.0812C200.374 79.0013 199.376 79.4507 197.996 79.4507C196.616 79.4507 195.597 78.9799 194.982 78.0598C194.515 77.3537 194.281 76.4122 194.281 75.2567C194.281 74.0798 194.515 73.1383 194.982 72.4321C195.597 71.512 196.595 71.0627 197.996 71.0627C199.376 71.0627 200.374 71.512 200.99 72.4321C201.457 73.1383 201.69 74.0798 201.69 75.2567V75.2781ZM211.393 79.2153C211.584 79.3865 211.881 79.4721 212.284 79.4721H213.049V82.425H212.284C211.01 82.425 209.991 81.997 209.227 81.1839C208.463 80.3708 208.081 79.2795 208.081 77.9528V76.8401V71.3194L206.021 71.0627V68.1097L208.081 68.3665V63.5734H211.01V68.3665L213.07 68.1097V71.0627L211.01 71.3194V76.8401V77.9528C211.01 78.552 211.138 78.9799 211.393 79.2153ZM226.126 71.2338C225.553 70.0997 224.725 69.2652 223.685 68.7303C222.857 68.3023 221.944 68.1097 220.946 68.1097C219.927 68.1097 219.014 68.3237 218.207 68.7303L217.825 68.9871V61.4122H214.895V82.425H217.825V75.1711C217.825 74.0156 218.038 73.0955 218.441 72.4107C218.972 71.512 219.8 71.0627 220.967 71.0627C222.135 71.0627 222.984 71.5334 223.515 72.4535C223.918 73.1597 224.109 74.1012 224.109 75.2781V82.425H227.039V75.2781C226.997 73.716 226.699 72.3679 226.126 71.2338ZM240.053 70.057C241.263 71.3408 241.858 73.0741 241.858 75.2567C241.858 77.4393 241.263 79.1725 240.053 80.4564C238.843 81.7617 237.23 82.4036 235.213 82.4036C233.196 82.4036 231.582 81.7617 230.372 80.4564C229.162 79.1725 228.568 77.4393 228.568 75.2567C228.568 73.0955 229.162 71.3408 230.372 70.057C231.582 68.7517 233.196 68.1097 235.213 68.1097C237.23 68.1097 238.843 68.7517 240.053 70.057ZM235.213 79.4721C236.614 79.4721 237.612 79.0227 238.227 78.1026C238.694 77.3751 238.928 76.4336 238.928 75.2781C238.928 74.1012 238.694 73.1597 238.227 72.4535C237.612 71.5334 236.593 71.0841 235.213 71.0841C233.812 71.0841 232.814 71.5334 232.198 72.4535C231.731 73.1597 231.497 74.1012 231.497 75.2781C231.497 76.4549 231.731 77.3965 232.198 78.1026C232.814 79.0227 233.833 79.4721 235.213 79.4721ZM246.507 61.4122H243.577V82.425H246.507V61.4122ZM259.733 70.057C260.944 71.3408 261.538 73.0741 261.538 75.2567C261.538 77.4393 260.944 79.1725 259.733 80.4564C258.523 81.7617 256.91 82.4036 254.893 82.4036C252.876 82.4036 251.263 81.7617 250.053 80.4564C248.842 79.1725 248.248 77.4393 248.248 75.2567C248.248 73.0955 248.842 71.3408 250.053 70.057C251.263 68.7517 252.876 68.1097 254.893 68.1097C256.91 68.1097 258.523 68.7517 259.733 70.057ZM254.893 79.4721C256.294 79.4721 257.292 79.0227 257.908 78.1026C258.375 77.3751 258.629 76.4336 258.608 75.2781C258.608 74.1012 258.375 73.1597 257.908 72.4535C257.292 71.5334 256.273 71.0841 254.893 71.0841C253.492 71.0841 252.494 71.5334 251.878 72.4535C251.411 73.1597 251.178 74.1012 251.178 75.2781C251.178 76.4549 251.411 77.3965 251.878 78.1026C252.494 79.0227 253.513 79.4721 254.893 79.4721ZM276.25 68.1311H273.321V69.308C272.726 68.7945 272.004 68.4521 271.176 68.2809L271.049 68.2595C270.603 68.1739 270.115 68.1311 269.627 68.1311C269.138 68.1311 268.671 68.1739 268.204 68.2595L268.056 68.2809C266.485 68.6019 265.253 69.3722 264.34 70.6133C263.427 71.8544 262.982 73.4165 262.982 75.2781C262.982 77.1397 263.427 78.7018 264.319 79.9428C265.211 81.1625 266.442 81.9543 268.013 82.2752L268.162 82.2966C268.629 82.3822 269.117 82.425 269.605 82.425C270.094 82.425 270.582 82.3822 271.028 82.2966L271.198 82.2752C272.026 82.0826 272.726 81.7403 273.299 81.2481V82.853C273.299 85.6561 271.919 87.047 269.16 87.047C268.395 87.047 267.716 86.9186 267.143 86.6832C266.378 86.3623 265.826 85.8487 265.487 85.1212L262.854 86.4264C263.427 87.5819 264.255 88.4593 265.338 89.0798C266.421 89.7003 267.716 89.9999 269.181 89.9999C271.325 89.9999 273.045 89.358 274.318 88.0527C275.592 86.7688 276.25 85.0142 276.25 82.853V68.1311ZM272.599 78.1026C271.983 79.0227 270.985 79.4935 269.605 79.4935C268.225 79.4935 267.206 79.0227 266.591 78.1026C266.124 77.3965 265.89 76.455 265.89 75.2781C265.89 74.1012 266.124 73.1597 266.591 72.4535C267.206 71.5334 268.204 71.0627 269.605 71.0627C270.985 71.0627 271.983 71.512 272.599 72.4321C273.066 73.1383 273.299 74.0584 273.299 75.2353V75.2995C273.299 76.4764 273.066 77.3965 272.599 78.1026ZM287.46 68.1311H290.39V83.1525C290.39 85.1426 289.795 86.7474 288.606 87.9457C287.439 89.144 285.868 89.7431 283.872 89.7431C282.534 89.7431 281.346 89.465 280.348 88.9086C279.329 88.3309 278.586 87.5177 278.055 86.4478L280.687 85.1426C280.985 85.7631 281.452 86.2125 282.11 86.4906C282.598 86.6832 283.193 86.7902 283.851 86.7902C286.25 86.7902 287.439 85.5705 287.439 83.1525V81.5691C287.311 81.6547 287.184 81.7403 287.056 81.8045C286.25 82.211 285.316 82.425 284.318 82.425C283.32 82.425 282.407 82.2324 281.579 81.8045C280.539 81.2695 279.711 80.4564 279.138 79.3223C278.543 78.1882 278.246 76.8401 278.246 75.2781V68.1311H281.176V75.2781C281.176 76.455 281.367 77.3965 281.77 78.1026C282.301 79.0227 283.15 79.4721 284.318 79.4721C285.485 79.4721 286.313 79.0227 286.844 78.1454C287.248 77.4607 287.46 76.5406 287.46 75.3851V68.1311ZM30.9514 17.623H38.6893V55.3352H30.9514V17.623Z" fill="#033572"/>
<path fill-rule="evenodd" clip-rule="evenodd" d="M204.776 0H213.375V14.005L219.402 13.2679V21.9569L213.375 22.694V38.9103V42.1715C213.375 43.9361 213.773 45.1869 214.527 45.9017C215.103 46.3931 215.967 46.6388 217.12 46.6388H219.358V55.3277H217.12C213.419 55.3277 210.427 54.1215 208.167 51.6868C205.906 49.2745 204.776 46.1027 204.776 42.1938V38.9327V22.7163L198.748 21.9792V13.2903L204.776 14.0274V0ZM178.005 29.5289C177.207 29.5289 176.476 29.4842 175.789 29.3949C174.903 29.2832 174.171 29.1045 173.551 28.8811C171.844 28.2557 171.002 27.2059 171.002 25.754C171.002 24.3021 171.844 23.2523 173.551 22.6269C174.171 22.4035 174.925 22.2248 175.789 22.1131C176.476 22.0238 177.207 21.9791 178.005 21.9791C178.759 21.9791 179.49 22.0238 180.177 22.1131C181.019 22.2025 181.75 22.3588 182.393 22.6269C184.055 23.23 184.919 24.2128 184.986 25.5753L193.562 24.8829C193.341 21.7111 192.055 19.0977 189.751 16.9981C186.98 14.5187 183.08 13.2678 178.027 13.2678C172.731 13.2678 168.697 14.6304 165.927 17.3331C163.6 19.5891 162.448 22.3812 162.448 25.7093C162.448 29.0151 163.6 31.8072 165.927 34.0855C168.697 36.7883 172.731 38.1508 178.027 38.1508C178.869 38.1508 179.667 38.1955 180.399 38.2848C181.351 38.3965 182.194 38.5975 182.903 38.8879C184.72 39.5803 185.629 40.7195 185.629 42.3501C185.629 43.9807 184.72 45.1422 182.903 45.8569C182.194 46.1473 181.351 46.3483 180.399 46.46C179.667 46.5494 178.869 46.594 178.027 46.594C177.185 46.594 176.387 46.5494 175.656 46.46C174.703 46.3483 173.861 46.1473 173.152 45.8569C171.335 45.1645 170.426 44.0253 170.382 42.3947L161.805 43.0872C162.005 46.4153 163.312 49.1851 165.706 51.3517C168.631 53.9651 172.731 55.283 178.027 55.283C183.523 55.283 187.712 53.8758 190.637 51.039C193.03 48.6937 194.249 45.8123 194.249 42.3501C194.249 38.9326 193.053 36.0512 190.637 33.7058C187.69 30.9361 183.501 29.5289 178.005 29.5289ZM136.032 13.3125C141.195 13.3125 145.495 14.7868 148.885 17.7575C152.276 20.706 154.381 24.7489 155.179 29.864C155.401 31.1818 155.512 32.522 155.512 33.9292V34.3089V38.0838H125.505C126.591 43.7796 130.248 46.6387 136.453 46.6387C138.979 46.6387 141.173 46.1697 143.079 45.2315C144.941 44.271 146.292 42.9309 147.112 41.2556L154.847 45.0752C153.273 48.2916 150.88 50.8157 147.622 52.6026C144.364 54.4342 140.641 55.35 136.453 55.35C130.403 55.35 125.572 53.4291 121.982 49.6095C118.369 45.8123 116.552 40.7195 116.552 34.3313C116.552 27.943 118.303 22.8503 121.849 19.053C125.394 15.2335 130.115 13.3125 136.032 13.3125ZM136.01 22.0238C130.292 22.0238 126.835 24.6372 125.616 29.8863H146.403C145.184 24.6372 141.727 22.0238 136.01 22.0238ZM88.6953 13.3572L96.7177 41.2556L104.784 13.3572H113.738L101.593 55.3277H91.7979L83.5539 26.7145L75.2878 55.3277H66.3125L54.2567 13.3572H63.2099L70.8112 39.8484L78.4568 13.3572H88.6953ZM256.301 17.7575C252.91 14.7868 248.611 13.3125 243.447 13.3125C237.53 13.3125 232.81 15.2335 229.264 19.053C225.718 22.8503 223.968 27.943 223.968 34.3313C223.968 40.7195 225.785 45.8123 229.397 49.6095C232.987 53.4291 237.818 55.35 243.868 55.35C248.057 55.35 251.78 54.4342 255.038 52.6026C258.295 50.8157 260.689 48.2916 262.262 45.0752L254.528 41.2556C253.708 42.9309 252.356 44.271 250.495 45.2315C248.589 46.1697 246.395 46.6387 243.868 46.6387C237.663 46.6387 234.007 43.7796 232.921 38.0838H262.927V34.3089V33.9292C262.927 32.522 262.816 31.1818 262.595 29.864C261.797 24.7489 259.714 20.706 256.301 17.7575ZM233.032 29.8863C234.25 24.6372 237.708 22.0238 243.425 22.0238C249.143 22.0238 252.6 24.6372 253.819 29.8863H233.032ZM277.819 16.8641C279.548 15.4122 281.609 14.407 284.025 13.8263L284.446 13.7146C285.82 13.4689 287.238 13.3349 288.701 13.3349V22.0238C284.645 22.0238 281.72 23.364 279.903 26.0444C278.506 28.0994 277.819 30.8468 277.819 34.3089V55.3277H269.199V13.4019H277.819V16.8641ZM329.765 22.4705C328.059 19.1647 325.666 16.73 322.585 15.1441C320.17 13.9156 317.488 13.3125 314.518 13.3125C311.549 13.3125 308.867 13.938 306.452 15.1441C306.053 15.3675 305.676 15.6132 305.299 15.8813V13.3572H296.679V55.3277H305.299V34.0186C305.322 30.6234 305.942 27.9207 307.117 25.9327C308.646 23.297 311.106 22.0015 314.496 22.0015C317.953 22.0015 320.436 23.364 321.965 26.0667C323.117 28.1217 323.715 30.8691 323.715 34.3313V55.35H332.336V34.3313C332.358 29.7523 331.494 25.821 329.765 22.4705ZM23.2137 17.6231H15.4758V32.5797H23.2137V17.6231ZM23.2137 40.3787H15.4758V55.3353H23.2137V40.3787Z" fill="#ED255C"/>
</svg>
