<svg width="49" height="54" viewBox="0 0 49 54" fill="none" xmlns="http://www.w3.org/2000/svg">
<path d="M18.85 47.52C8.61 45.06 1 35.83 1 24.84C1 11.95 11.45 1.5 24.34 1.5C37.23 1.5 47.68 11.95 47.68 24.84C47.68 35.84 40.07 45.06 29.83 47.53" stroke="white" stroke-width="2" stroke-linecap="round" stroke-linejoin="round"/>
<path d="M14.0996 14.5998C19.7496 8.9498 28.9296 8.9498 34.5796 14.5998" stroke="white" stroke-width="2" stroke-linecap="round" stroke-linejoin="round"/>
<path d="M15.7402 31.5799C14.2802 29.7199 13.4102 27.3799 13.4102 24.8299C13.4102 18.7899 18.3002 13.8999 24.3402 13.8999C30.3802 13.8999 35.2702 18.7899 35.2702 24.8299C35.2702 27.3799 34.4002 29.7199 32.9402 31.5799" stroke="white" stroke-width="2" stroke-linecap="round" stroke-linejoin="round"/>
<path d="M33.8705 36.13V33.75C33.8705 32.11 32.5405 30.79 30.9105 30.79H17.7705C16.1305 30.79 14.8105 32.12 14.8105 33.75V36.13" stroke="white" stroke-width="2" stroke-linecap="round" stroke-linejoin="round"/>
<path d="M28.9908 41.9499L33.8708 39.5099V36.1299H14.8008V39.5099L19.6808 41.9499V47.0999L14.8008 49.5499V52.9299H33.8708V49.5499L28.9908 47.0999V41.9499Z" stroke="white" stroke-width="2" stroke-linecap="round" stroke-linejoin="round"/>
<path d="M1.26953 21.2798H5.86953" stroke="white" stroke-width="2" stroke-linecap="round" stroke-linejoin="round"/>
<path d="M1 24.8398H5.87" stroke="white" stroke-width="2" stroke-linecap="round" stroke-linejoin="round"/>
<path d="M1.26953 28.3901H5.86953" stroke="white" stroke-width="2" stroke-linecap="round" stroke-linejoin="round"/>
<path d="M42.8008 21.2798H47.4008" stroke="white" stroke-width="2" stroke-linecap="round" stroke-linejoin="round"/>
<path d="M42.8008 24.8398H47.6708" stroke="white" stroke-width="2" stroke-linecap="round" stroke-linejoin="round"/>
<path d="M42.8008 28.3901H47.4008" stroke="white" stroke-width="2" stroke-linecap="round" stroke-linejoin="round"/>
</svg>
