<svg width="50" height="54" viewBox="0 0 50 54" fill="none" xmlns="http://www.w3.org/2000/svg">
<path d="M35.2858 52.4286C37.9982 52.4286 40.6498 51.6242 42.9051 50.1173C45.1604 48.6104 46.9182 46.4685 47.9562 43.9625C48.9942 41.4566 49.2658 38.6991 48.7366 36.0388C48.2074 33.3785 46.9013 30.9348 44.9833 29.0168C43.0653 27.0988 40.6217 25.7927 37.9613 25.2635C35.301 24.7344 32.5435 25.0059 30.0376 26.0439C27.5316 27.0819 25.3898 28.8397 23.8828 31.095C22.3759 33.3503 21.5715 36.0019 21.5715 38.7143C21.5715 42.3515 23.0164 45.8398 25.5884 48.4118C28.1603 50.9837 31.6486 52.4286 35.2858 52.4286Z" stroke="white" stroke-width="2" stroke-linecap="round" stroke-linejoin="round"/>
<path d="M41.153 34.7366L34.7781 43.5915C34.64 43.7867 34.4607 43.9492 34.253 44.0677C34.0453 44.1861 33.8142 44.2577 33.5758 44.2772C33.3389 44.2936 33.1014 44.2574 32.8801 44.1712C32.6588 44.0851 32.4593 43.9511 32.2958 43.7789L29.0044 40.3503" stroke="white" stroke-width="2" stroke-linecap="round" stroke-linejoin="round"/>
<path d="M18.5862 51.5051C17.2793 52.1662 15.8249 52.4814 14.3616 52.4208C12.8982 52.3601 11.4749 51.9256 10.2271 51.1588C8.97938 50.3919 7.94889 49.3181 7.23391 48.0399C6.51892 46.7618 6.14329 45.3217 6.14282 43.8571V1H23.2857V22.1794" stroke="white" stroke-width="2" stroke-linecap="round" stroke-linejoin="round"/>
<path d="M28.4286 1H1" stroke="white" stroke-width="2" stroke-linecap="round" stroke-linejoin="round"/>
<path d="M23.2857 11.2857H6.14282" stroke="white" stroke-width="2" stroke-linecap="round" stroke-linejoin="round"/>
<path d="M35.2865 52.4286C37.999 52.4286 40.6505 51.6242 42.9058 50.1173C45.1611 48.6104 46.9189 46.4685 47.9569 43.9625C48.9949 41.4566 49.2665 38.6991 48.7373 36.0388C48.2081 33.3785 46.902 30.9348 44.984 29.0168C43.066 27.0988 40.6224 25.7927 37.9621 25.2635C35.3018 24.7344 32.5443 25.0059 30.0383 26.0439C27.5324 27.0819 25.3905 28.8397 23.8835 31.095C22.3766 33.3503 21.5723 36.0019 21.5723 38.7143C21.5723 42.3515 23.0172 45.8398 25.5891 48.4118C28.161 50.9837 31.6493 52.4286 35.2865 52.4286Z" stroke="white" stroke-width="2" stroke-linecap="round" stroke-linejoin="round"/>
<path d="M41.1525 34.7363L34.7776 43.5912C34.6395 43.7864 34.4603 43.9489 34.2525 44.0674C34.0448 44.1859 33.8137 44.2574 33.5753 44.2769C33.3384 44.2933 33.1009 44.2571 32.8796 44.171C32.6583 44.0848 32.4588 43.9508 32.2953 43.7786L29.0039 40.35" stroke="white" stroke-width="2" stroke-linecap="round" stroke-linejoin="round"/>
<path d="M28.4286 1H1" stroke="white" stroke-width="2" stroke-linecap="round" stroke-linejoin="round"/>
<path d="M23.2854 11.2861H6.14258" stroke="white" stroke-width="2" stroke-linecap="round" stroke-linejoin="round"/>
</svg>
