<svg width="34" height="34" viewBox="0 0 34 34" fill="none" xmlns="http://www.w3.org/2000/svg">
<path d="M25.309 8.69102C24.4465 7.82856 24.4465 6.43262 25.309 5.57905L21.1567 1.42679C20.5877 0.857738 19.6541 0.857738 19.0761 1.42679L1.42679 19.0761C0.857738 19.6452 0.857738 20.5788 1.42679 21.1567L5.57905 25.309C6.44151 24.4465 7.83745 24.4465 8.69102 25.309C9.5446 26.1714 9.55349 27.5674 8.69102 28.4209L12.8433 32.5732C13.4123 33.1423 14.3459 33.1423 14.9239 32.5732L32.5732 14.9239C33.1423 14.3548 33.1423 13.4212 32.5732 12.8433L28.4209 8.69102C27.5585 9.55349 26.1625 9.55349 25.309 8.69102Z" stroke="#043673" stroke-width="1.5" stroke-linecap="round" stroke-linejoin="round"/>
<path d="M7.14453 17.5107L16.4893 26.8556" stroke="#043673" stroke-width="1.5" stroke-linecap="round" stroke-linejoin="round"/>
<path d="M15.1929 16.4884C16.2045 16.4884 17.0246 15.6684 17.0246 14.6568C17.0246 13.6452 16.2045 12.8252 15.1929 12.8252C14.1814 12.8252 13.3613 13.6452 13.3613 14.6568C13.3613 15.6684 14.1814 16.4884 15.1929 16.4884Z" stroke="#043673" stroke-width="1.5" stroke-miterlimit="10"/>
<path d="M24.0094 15.9748C25.0209 15.9748 25.841 15.1547 25.841 14.1431C25.841 13.1316 25.0209 12.3115 24.0094 12.3115C22.9978 12.3115 22.1777 13.1316 22.1777 14.1431C22.1777 15.1547 22.9978 15.9748 24.0094 15.9748Z" stroke="#043673" stroke-width="1.5" stroke-miterlimit="10"/>
<path d="M20.6411 19.5931L18.5605 9.20801" stroke="#043673" stroke-width="1.5" stroke-miterlimit="10" stroke-linecap="round"/>
</svg>
