<svg width="34" height="34" viewBox="0 0 34 34" fill="none" xmlns="http://www.w3.org/2000/svg">
<path d="M19.7511 29.3383V32.0495C19.7511 32.5739 19.3334 33.0006 18.8091 33.0006H1.942C1.42656 33.0006 1 32.5739 1 32.0495V11.7466C1 11.5511 1.08887 11.3555 1.24883 11.24L5.8344 7.74652C5.94104 7.66652 6.07435 7.62207 6.20765 7.62207H9.70903" stroke="#043673" stroke-width="1.5" stroke-linecap="round" stroke-linejoin="round"/>
<path d="M14.2402 10.1647V5.12457C14.2402 4.92901 14.3291 4.73344 14.4891 4.61789L19.0746 1.12445C19.1813 1.04445 19.3146 1 19.4479 1H32.0582C32.5736 1 33.0002 1.42668 33.0002 1.95114V25.4274C33.0002 25.9519 32.5825 26.3785 32.0582 26.3785H15.1822C14.6668 26.3785 14.2402 25.9519 14.2402 25.4274V23.5607" stroke="#043673" stroke-width="1.5" stroke-linecap="round" stroke-linejoin="round"/>
<path d="M6.39453 20.2639L8.99906 13.7393" stroke="#043673" stroke-width="1.5" stroke-linecap="round" stroke-linejoin="round"/>
<path d="M11.7326 20.2639L9.11914 13.7393" stroke="#043673" stroke-width="1.5" stroke-linecap="round" stroke-linejoin="round"/>
<path d="M7.3457 17.8799H10.776" stroke="#043673" stroke-width="1.5" stroke-linecap="round" stroke-linejoin="round"/>
<path d="M19.0665 14.4148C18.5156 13.9882 17.8224 13.7393 17.0759 13.7393C15.2719 13.7393 13.8145 15.1971 13.8145 17.0016C13.8145 18.8061 15.2719 20.2639 17.0759 20.2639C18.8799 20.2639 20.3373 18.8061 20.3373 17.0016H17.0759" stroke="#043673" stroke-width="1.5" stroke-linecap="round" stroke-linejoin="round"/>
<path d="M22.5742 20.4669V13.4355L24.867 15.8801L27.5952 13.5333V20.5646" stroke="#043673" stroke-width="1.5" stroke-linecap="round" stroke-linejoin="round"/>
</svg>
