<svg width="20" height="16" viewBox="0 0 20 16" fill="none" xmlns="http://www.w3.org/2000/svg">
<path d="M18.7513 0.0830078H1.2513C0.791065 0.0830078 0.417969 0.456104 0.417969 0.916341V1.74967C0.417969 2.20991 0.791065 2.58301 1.2513 2.58301H18.7513C19.2115 2.58301 19.5846 2.20991 19.5846 1.74967V0.916341C19.5846 0.456104 19.2115 0.0830078 18.7513 0.0830078Z" fill="#033572"/>
<path d="M18.7513 6.75H1.2513C0.791065 6.75 0.417969 7.1231 0.417969 7.58333V8.41667C0.417969 8.8769 0.791065 9.25 1.2513 9.25H18.7513C19.2115 9.25 19.5846 8.8769 19.5846 8.41667V7.58333C19.5846 7.1231 19.2115 6.75 18.7513 6.75Z" fill="#033572"/>
<path d="M18.7513 13.416H1.2513C0.791065 13.416 0.417969 13.7891 0.417969 14.2493V15.0827C0.417969 15.5429 0.791065 15.916 1.2513 15.916H18.7513C19.2115 15.916 19.5846 15.5429 19.5846 15.0827V14.2493C19.5846 13.7891 19.2115 13.416 18.7513 13.416Z" fill="#033572"/>
</svg>
