<svg width="50" height="54" viewBox="0 0 50 54" fill="none" xmlns="http://www.w3.org/2000/svg">
<path d="M35.2865 52.2473C37.999 52.2473 40.6505 51.4458 42.9058 49.9442C45.1611 48.4425 46.9189 46.3082 47.9569 43.8111C48.9949 41.314 49.2665 38.5662 48.7373 35.9153C48.2081 33.2643 46.902 30.8293 44.984 28.9181C43.066 27.0069 40.6224 25.7053 37.9621 25.178C35.3018 24.6507 32.5443 24.9213 30.0383 25.9557C27.5324 26.99 25.3905 28.7416 23.8835 30.989C22.3766 33.2363 21.5723 35.8785 21.5723 38.5814C21.5723 42.2058 23.0172 45.6818 25.5891 48.2446C28.161 50.8075 31.6493 52.2473 35.2865 52.2473Z" stroke="#ED255C" stroke-width="2" stroke-linecap="round" stroke-linejoin="round"/>
<path d="M41.1525 34.6174L34.7776 43.4411C34.6395 43.6356 34.4603 43.7976 34.2525 43.9156C34.0448 44.0337 33.8137 44.1049 33.5753 44.1244C33.3384 44.1407 33.1009 44.1047 32.8796 44.0188C32.6583 43.933 32.4588 43.7995 32.2953 43.6278L29.0039 40.2114" stroke="#ED255C" stroke-width="2" stroke-linecap="round" stroke-linejoin="round"/>
<path d="M18.586 51.3271C17.2791 51.9858 15.8246 52.2999 14.3613 52.2395C12.898 52.1791 11.4746 51.7461 10.2269 50.982C8.97913 50.2178 7.94864 49.1478 7.23366 47.8741C6.51868 46.6004 6.14305 45.1655 6.14258 43.7061V1H23.2854V22.1048" stroke="#ED255C" stroke-width="2" stroke-linecap="round" stroke-linejoin="round"/>
<path d="M28.4286 1H1" stroke="#ED255C" stroke-width="2" stroke-linecap="round" stroke-linejoin="round"/>
<path d="M23.2854 11.2499H6.14258" stroke="#ED255C" stroke-width="2" stroke-linecap="round" stroke-linejoin="round"/>
</svg>
