<svg width="53" height="59" viewBox="0 0 53 59" fill="none" xmlns="http://www.w3.org/2000/svg">
<path d="M15.896 12.7288C21.8331 12.7288 27.0749 10.8922 30.2971 8.08301C31.0603 9.27299 32.0251 10.282 33.1362 11.0523C34.2473 11.8225 35.4828 12.3387 36.7719 12.5714" stroke="#ED255C" stroke-width="2" stroke-linejoin="round"/>
<path d="M50.0225 46.4854C49.8075 44.7937 49.1853 43.2 48.223 41.8764C47.2607 40.5528 45.995 39.5495 44.5623 38.9747L32.602 33.8422V28.257C33.8576 27.0607 34.8774 25.5835 35.5966 23.9198C36.3157 22.256 36.7183 20.4422 36.7787 18.594V12.7293C36.7787 9.61853 35.6786 6.63512 33.7204 4.43545C31.7621 2.23577 29.1062 1 26.3369 1C23.5675 1 20.9116 2.23577 18.9533 4.43545C16.9951 6.63512 15.895 9.61853 15.895 12.7293V18.594C15.9557 20.4422 16.3584 22.2559 17.0775 23.9196C17.7966 25.5833 18.8164 27.0605 20.0717 28.257V33.8422L8.11144 38.9747C6.6789 39.5496 5.4133 40.553 4.4512 41.8766C3.4891 43.2002 2.86702 44.7938 2.65208 46.4854L1.27637 57.3009H51.3973L50.0225 46.4854Z" stroke="#ED255C" stroke-width="2" stroke-linejoin="round"/>
<path d="M20.0718 33.8418L26.4161 49.2835" stroke="#ED255C" stroke-width="2" stroke-linejoin="round"/>
<path d="M32.4296 34.0371L22.8579 57.4958" stroke="#ED255C" stroke-width="2" stroke-linejoin="round"/>
</svg>
