<svg width="148" height="48" viewBox="0 0 148 48" fill="none" xmlns="http://www.w3.org/2000/svg">
<path d="M98.5918 0H94.4297V29.5389H98.5918V0Z" fill="white"/>
<path d="M124.163 19.626C124.217 20.9799 123.912 22.3241 123.28 23.5225C122.876 24.1036 122.337 24.5773 121.709 24.9025C121.081 25.2276 120.383 25.3943 119.675 25.388C118.968 25.3817 118.273 25.2027 117.65 24.8665C117.028 24.5303 116.497 24.0472 116.104 23.459C115.489 22.2269 115.201 20.8573 115.267 19.4816V9.41406H111.105V19.4759C111.057 21.4495 111.485 23.4057 112.352 25.1793C113.107 26.6742 114.321 27.888 115.816 28.6429C117.032 29.2224 118.362 29.5232 119.709 29.5232C121.057 29.5232 122.387 29.2224 123.603 28.6429C123.806 28.544 123.999 28.4261 124.18 28.2908V29.503H128.342V9.41406H124.18L124.163 19.626Z" fill="white"/>
<path d="M145.531 19.2161C144.123 17.8614 142.092 17.1841 139.441 17.1841C139.084 17.1847 138.727 17.1635 138.373 17.1206C138.003 17.0806 137.639 16.9993 137.288 16.8782C136.943 16.8068 136.634 16.6189 136.411 16.346C136.189 16.0732 136.068 15.732 136.068 15.3801C136.068 15.0283 136.189 14.6871 136.411 14.4143C136.634 14.1414 136.943 13.9535 137.288 13.8821C137.639 13.761 138.003 13.6796 138.373 13.6397C138.727 13.5968 139.084 13.5756 139.441 13.5762C139.79 13.576 140.139 13.5972 140.486 13.6397C140.851 13.6697 141.211 13.7513 141.554 13.8821C142.356 14.1708 142.777 14.6441 142.801 15.2964L146.945 14.9732C146.906 14.2523 146.722 13.5468 146.404 12.8983C146.087 12.2498 145.643 11.6716 145.098 11.1978C143.759 10.0087 141.873 9.41406 139.441 9.41406C136.882 9.41406 134.934 10.0625 133.599 11.3595C133.05 11.8772 132.617 12.5045 132.326 13.2007C132.036 13.8968 131.895 14.6463 131.913 15.4004C131.898 16.1541 132.04 16.9028 132.33 17.5986C132.62 18.2943 133.052 18.9219 133.599 19.4412C134.938 20.7189 136.885 21.3578 139.441 21.3578C139.827 21.3571 140.212 21.3783 140.595 21.4213C141.008 21.4632 141.414 21.5583 141.802 21.7041C142.173 21.7973 142.504 22.0111 142.741 22.3119C142.978 22.6127 143.108 22.9837 143.112 23.3667C143.112 23.7527 142.983 24.1276 142.746 24.432C142.509 24.7363 142.176 24.9526 141.802 25.0465C141.414 25.1944 141.008 25.2915 140.595 25.3352C139.828 25.4207 139.054 25.4207 138.286 25.3352C137.872 25.2914 137.464 25.1944 137.074 25.0465C136.699 24.9566 136.365 24.7443 136.125 24.4432C135.884 24.1421 135.751 23.7693 135.746 23.384L131.602 23.713C131.632 24.4665 131.815 25.206 132.139 25.8867C132.464 26.5674 132.923 27.1752 133.489 27.6731C134.898 28.9277 136.88 29.555 139.435 29.555C142.085 29.555 144.117 28.8796 145.525 27.5288C146.077 26.9876 146.516 26.3418 146.815 25.6291C147.114 24.9164 147.268 24.1512 147.268 23.3782C147.268 22.6052 147.114 21.84 146.815 21.1274C146.516 20.4147 146.077 19.7688 145.525 19.2277L145.531 19.2161Z" fill="white"/>
<path d="M106.943 9.40625H102.781V29.5357H106.943V9.40625Z" fill="white"/>
<path d="M104.871 0.000515514C104.571 -0.00595433 104.273 0.0485331 103.996 0.160669C103.718 0.272804 103.466 0.440248 103.254 0.65283C103.033 0.867114 102.859 1.12504 102.743 1.41025C102.626 1.69545 102.571 2.00171 102.579 2.30959C102.575 2.61169 102.633 2.91134 102.75 3.19024C102.866 3.46914 103.037 3.72144 103.254 3.93172C103.462 4.15071 103.713 4.32392 103.991 4.44023C104.27 4.55654 104.569 4.61339 104.871 4.60713C105.17 4.61275 105.466 4.55554 105.742 4.43919C106.017 4.32284 106.265 4.14996 106.47 3.93172C106.689 3.72257 106.862 3.47061 106.979 3.19153C107.096 2.91246 107.155 2.61225 107.151 2.30959C107.155 2.00694 107.096 1.70673 106.979 1.42766C106.862 1.14858 106.689 0.896624 106.47 0.687467C106.265 0.469386 106.017 0.295857 105.742 0.177676C105.467 0.0594945 105.17 -0.000809687 104.871 0.000515514Z" fill="white"/>
<path d="M41.6439 10.2927C40.4273 9.71109 39.0959 9.40921 37.7474 9.40921C36.3988 9.40921 35.0674 9.71109 33.8508 10.2927C33.6622 10.4043 33.4698 10.5198 33.2735 10.6391V0H29.1172V29.5447H33.2735V19.3328C33.2235 17.9865 33.5281 16.6508 34.1568 15.4593C34.516 14.8431 35.0405 14.3397 35.671 14.0061C36.3015 13.6725 37.0127 13.522 37.7243 13.5716C38.4482 13.5204 39.1718 13.6762 39.8106 14.0206C40.4494 14.365 40.9772 14.884 41.3322 15.517C41.9478 16.743 42.238 18.1067 42.175 19.4771V29.5447H46.3371V19.4771C46.3851 17.5102 45.9553 15.561 45.0845 13.7968C44.3449 12.2887 43.1382 11.0598 41.6439 10.2927Z" fill="white"/>
<path d="M65.0975 11.5484C63.3618 10.0899 61.1459 9.3286 58.8803 9.41252C56.0286 9.41252 53.7465 10.3285 52.0339 12.1603C50.3214 13.9922 49.4689 16.4321 49.4766 19.4801C49.4766 22.5396 50.3521 24.9796 52.1032 26.7999C53.8542 28.6202 56.1845 29.5342 59.0939 29.5419C60.9743 29.5789 62.832 29.1274 64.4856 28.2315C65.9926 27.4253 67.2052 26.1622 67.9493 24.6236L64.2143 22.7994C63.7949 23.6324 63.1106 24.3025 62.2689 24.7044C61.2781 25.1774 60.1918 25.4164 59.0939 25.4029C56.0998 25.4029 54.3372 24.0348 53.8061 21.2985H68.3014V19.2954C68.2975 18.6332 68.2357 17.9726 68.1167 17.3211C67.85 15.0925 66.7759 13.0388 65.0975 11.5484ZM53.8639 17.3211C54.4527 14.8119 56.1268 13.5554 58.8861 13.5515C61.6455 13.5477 63.3215 14.8042 63.9141 17.3211H53.8639Z" fill="white"/>
<path d="M86.0782 11.0706C85.2013 10.3465 84.1577 9.85251 83.0418 9.63323L82.8397 9.56973C81.5016 9.35176 80.137 9.35176 78.7989 9.56973L78.591 9.63323C76.479 9.99918 74.5904 11.1679 73.3206 12.8948C71.9848 14.8227 71.3103 17.1319 71.3983 19.4757C71.3107 21.8069 71.9856 24.1031 73.3206 26.0162C74.5654 27.7407 76.4254 28.9208 78.516 29.3124L78.7411 29.3586C80.0969 29.5972 81.484 29.5972 82.8397 29.3586L83.0649 29.3124C84.1575 29.0838 85.1779 28.5924 86.0378 27.8807V29.5375H90.1999V9.43118H86.0378L86.0782 11.0706ZM86.0782 19.493C86.1491 20.884 85.7991 22.264 85.0738 23.4531C84.1963 24.7346 82.7647 25.3812 80.8308 25.3812C78.897 25.3812 77.4365 24.7288 76.5648 23.43C75.8536 22.238 75.5121 20.8619 75.5835 19.4757C75.5137 18.0824 75.855 16.6993 76.5648 15.4983C77.4365 14.211 78.8739 13.5702 80.8308 13.5702C82.7878 13.5702 84.1963 14.211 85.0738 15.4983C85.798 16.6857 86.148 18.0635 86.0782 19.4526V19.493Z" fill="white"/>
<path d="M4.16212 9.40625H0V29.5357H4.16212V9.40625Z" fill="white"/>
<path d="M20.8106 9.40625H16.6484V29.5357H20.8106V9.40625Z" fill="white"/>
<path fill-rule="evenodd" clip-rule="evenodd" d="M8.32422 9.40625H12.4863V17.3899H8.32422V9.40625ZM8.32422 21.5469H12.4863V29.5305H8.32422V21.5469Z" fill="white"/>
</svg>
