<svg width="34" height="34" viewBox="0 0 34 34" fill="none" xmlns="http://www.w3.org/2000/svg">
<path d="M22.1631 19.4528C22.6697 19.5416 23.1852 19.5772 23.7097 19.5772C28.8384 19.5772 32.9983 15.4173 32.9983 10.2886C32.9983 5.15987 28.8384 1 23.7097 1C21.2209 1 18.9543 1.97775 17.2832 3.5777" stroke="#043673" stroke-width="1.5" stroke-linecap="round" stroke-linejoin="round"/>
<path d="M24.2266 5.64941V6.68049" stroke="#043673" stroke-width="1.5" stroke-linecap="round" stroke-linejoin="round"/>
<path d="M24.2266 13.9062V14.9373" stroke="#043673" stroke-width="1.5" stroke-linecap="round" stroke-linejoin="round"/>
<path d="M21.6387 12.0938C21.6387 13.0894 22.4475 13.8982 23.4431 13.8982H24.9897C25.9852 13.8982 26.7941 13.0894 26.7941 12.0938C26.7941 11.0983 25.9852 10.2894 24.9897 10.2894H23.4431C22.4475 10.2894 21.6387 9.48058 21.6387 8.48505C21.6387 7.48953 22.4475 6.68066 23.4431 6.68066H24.9897C25.7097 6.68066 26.3319 7.10732 26.6163 7.71174" stroke="#043673" stroke-width="1.5" stroke-linecap="round" stroke-linejoin="round"/>
<path d="M11.8184 33.0002C11.8184 31.338 12.8761 27.3204 12.8761 27.3204C11.6317 26.076 12.6539 24.2627 12.6539 24.2627C12.6539 24.2627 13.8983 24.6805 15.1516 24.2627C15.1516 24.2627 16.1916 26.076 14.9472 27.3204C14.9472 27.3204 15.9871 31.338 15.9871 33.0002" stroke="#043673" stroke-width="1.5" stroke-linecap="round" stroke-linejoin="round"/>
<path d="M10.8041 20.4756V22.1644C10.8041 22.1644 10.9819 23.8533 12.6441 24.271C12.6441 24.271 11.9685 27.0176 8.22644 27.8442V23.1955L4.9821 24.2266C3.31104 24.7599 2.07552 26.191 1.79997 27.9242L1 32.9996" stroke="#043673" stroke-width="1.5" stroke-linecap="round" stroke-linejoin="round"/>
<path d="M17.0003 20.4668V22.1645C17.0003 22.1645 16.8047 23.8534 15.1426 24.2711C15.1426 24.2711 15.8359 27.0177 19.578 27.8443V23.1956L22.8135 24.2267C24.4845 24.76 25.72 26.1911 25.9867 27.9243L26.7867 32.9997" stroke="#043673" stroke-width="1.5" stroke-linecap="round" stroke-linejoin="round"/>
<path d="M11.8173 21.0182C10.2351 20.4493 9.20404 19.0449 8.90183 16.3428L8.48406 11.7651C8.27962 9.57854 9.94179 8.64523 10.7684 8.64523C10.7684 8.22747 11.3906 7.1875 13.4706 7.1875H14.3061C16.1372 7.1875 19.6748 8.36969 19.2393 12.0407L18.8837 16.3339C18.5815 19.0271 17.5504 20.4315 15.9683 21.0004" stroke="#043673" stroke-width="1.5" stroke-linecap="round" stroke-linejoin="round"/>
<path d="M12.2363 10.5381C12.2363 10.5381 13.4807 13.4624 19.1694 13.0358" stroke="#043673" stroke-width="1.5" stroke-linecap="round" stroke-linejoin="round"/>
<path d="M10.9849 12.2002C10.9849 12.2002 10.336 13.7913 8.67383 13.7913" stroke="#043673" stroke-width="1.5" stroke-linecap="round" stroke-linejoin="round"/>
</svg>
