<svg width="36" height="34" viewBox="0 0 36 34" fill="none" xmlns="http://www.w3.org/2000/svg">
<path d="M27.1773 33.0001C31.193 33.0001 34.4484 29.7448 34.4484 25.7291C34.4484 21.7134 31.193 18.458 27.1773 18.458C23.1616 18.458 19.9062 21.7134 19.9062 25.7291C19.9062 29.7448 23.1616 33.0001 27.1773 33.0001Z" stroke="#043673" stroke-width="1.5" stroke-miterlimit="10"/>
<path d="M24.3496 26.1297L25.9674 27.7474L30.0118 23.7119" stroke="#043673" stroke-width="1.5" stroke-linecap="round" stroke-linejoin="round"/>
<path d="M27.5605 11.1777H31.5427" stroke="#043673" stroke-width="1.5" stroke-miterlimit="10" stroke-linecap="round"/>
<path d="M1 11.1777H22.8221" stroke="#043673" stroke-width="1.5" stroke-miterlimit="10" stroke-linecap="round"/>
<path d="M23.1875 6.82227H23.9075C24.7126 6.82227 25.3652 6.1696 25.3652 5.3645V2.45785C25.3652 1.65275 24.7126 1.00008 23.9075 1.00008H23.1875C22.3824 1.00008 21.7297 1.65275 21.7297 2.45785V5.3645C21.7297 6.1696 22.3824 6.82227 23.1875 6.82227Z" stroke="#043673" stroke-width="1.5" stroke-miterlimit="10" stroke-linecap="round"/>
<path d="M8.6445 6.82227H9.3645C10.1696 6.82227 10.8223 6.1696 10.8223 5.3645V2.45785C10.8223 1.65275 10.1696 1.00008 9.3645 1.00008H8.6445C7.8394 1.00008 7.18673 1.65275 7.18673 2.45785V5.3645C7.18673 6.1696 7.8394 6.82227 8.6445 6.82227Z" stroke="#043673" stroke-width="1.5" stroke-miterlimit="10" stroke-linecap="round"/>
<path d="M7.17774 3.90625H3.17776C1.96888 3.90625 1 4.88402 1 6.08401V27.9061C1 29.115 1.97777 30.0839 3.17776 30.0839H17.2399" stroke="#043673" stroke-width="1.5" stroke-miterlimit="10" stroke-linecap="round"/>
<path d="M21.7289 3.90625H10.8223" stroke="#043673" stroke-width="1.5" stroke-miterlimit="10" stroke-linecap="round"/>
<path d="M31.543 16.227V6.09378C31.543 4.8849 30.5652 3.91602 29.3652 3.91602H25.3652" stroke="#043673" stroke-width="1.5" stroke-miterlimit="10" stroke-linecap="round"/>
<path d="M16.2703 17.729C17.0754 17.729 17.728 17.0763 17.728 16.2712C17.728 15.4661 17.0754 14.8135 16.2703 14.8135C15.4652 14.8135 14.8125 15.4661 14.8125 16.2712C14.8125 17.0763 15.4652 17.729 16.2703 17.729Z" fill="#043673"/>
<path d="M7.54175 17.729C8.34686 17.729 8.99952 17.0763 8.99952 16.2712C8.99952 15.4661 8.34686 14.8135 7.54175 14.8135C6.73665 14.8135 6.08398 15.4661 6.08398 16.2712C6.08398 17.0763 6.73665 17.729 7.54175 17.729Z" fill="#043673"/>
<path d="M7.54175 25.729C8.34686 25.729 8.99952 25.0763 8.99952 24.2712C8.99952 23.4661 8.34686 22.8135 7.54175 22.8135C6.73665 22.8135 6.08398 23.4661 6.08398 24.2712C6.08398 25.0763 6.73665 25.729 7.54175 25.729Z" fill="#043673"/>
</svg>
