<svg width="20" height="21" viewBox="0 0 20 21" fill="none" xmlns="http://www.w3.org/2000/svg">
<g clip-path="url(#clip0_440_2720)">
<path d="M6.875 7.375C6.875 8.2038 7.20424 8.99866 7.79029 9.58471C8.37634 10.1708 9.1712 10.5 10 10.5C10.8288 10.5 11.6237 10.1708 12.2097 9.58471C12.7958 8.99866 13.125 8.2038 13.125 7.375C13.125 6.5462 12.7958 5.75134 12.2097 5.16529C11.6237 4.57924 10.8288 4.25 10 4.25C9.1712 4.25 8.37634 4.57924 7.79029 5.16529C7.20424 5.75134 6.875 6.5462 6.875 7.375Z" stroke="#043673" stroke-linecap="round" stroke-linejoin="round"/>
<path d="M10 1.125C11.6576 1.125 13.2473 1.78348 14.4194 2.95558C15.5915 4.12768 16.25 5.7174 16.25 7.375C16.25 10.2142 12.0217 17.3333 10.5208 19.5958C10.4638 19.6818 10.3864 19.7523 10.2955 19.8011C10.2047 19.8498 10.1031 19.8754 10 19.8754C9.89686 19.8754 9.79533 19.8498 9.70445 19.8011C9.61357 19.7523 9.53618 19.6818 9.47917 19.5958C7.97833 17.3333 3.75 10.2142 3.75 7.375C3.75 5.7174 4.40848 4.12768 5.58058 2.95558C6.75268 1.78348 8.3424 1.125 10 1.125V1.125Z" stroke="#043673" stroke-linecap="round" stroke-linejoin="round"/>
</g>
<defs>
<clipPath id="clip0_440_2720">
<rect width="20" height="20" fill="white" transform="translate(0 0.5)"/>
</clipPath>
</defs>
</svg>
