<svg width="148" height="38" viewBox="0 0 148 38" fill="none" xmlns="http://www.w3.org/2000/svg">
<path d="M98.5918 0.222412H94.4297V29.7613H98.5918V0.222412Z" fill="#EE255C"/>
<path d="M124.163 19.8484C124.217 21.2023 123.912 22.5465 123.28 23.7449C122.876 24.326 122.337 24.7997 121.709 25.1249C121.081 25.45 120.383 25.6167 119.675 25.6104C118.968 25.6042 118.273 25.4251 117.65 25.0889C117.028 24.7528 116.497 24.2696 116.104 23.6814C115.489 22.4493 115.201 21.0797 115.267 19.7041V9.63647H111.105V19.6983C111.057 21.6719 111.485 23.6281 112.352 25.4017C113.107 26.8966 114.321 28.1104 115.816 28.8653C117.032 29.4449 118.362 29.7456 119.709 29.7456C121.057 29.7456 122.387 29.4449 123.603 28.8653C123.806 28.7665 123.999 28.6486 124.18 28.5132V29.7255H128.342V9.63647H124.18L124.163 19.8484Z" fill="#EE255C"/>
<path d="M145.531 19.4385C144.123 18.0839 142.092 17.4065 139.441 17.4065C139.084 17.4071 138.727 17.3859 138.373 17.343C138.003 17.3031 137.639 17.2217 137.288 17.1006C136.943 17.0293 136.634 16.8413 136.411 16.5684C136.189 16.2956 136.068 15.9544 136.068 15.6026C136.068 15.2507 136.189 14.9095 136.411 14.6367C136.634 14.3638 136.943 14.1759 137.288 14.1045C137.639 13.9834 138.003 13.9021 138.373 13.8621C138.727 13.8193 139.084 13.798 139.441 13.7986C139.79 13.7984 140.139 13.8196 140.486 13.8621C140.851 13.8921 141.211 13.9737 141.554 14.1045C142.356 14.3932 142.777 14.8665 142.801 15.5189L146.945 15.1956C146.906 14.4747 146.722 13.7692 146.404 13.1207C146.087 12.4722 145.643 11.894 145.098 11.4202C143.759 10.2311 141.873 9.63647 139.441 9.63647C136.882 9.63647 134.934 10.2849 133.599 11.5819C133.05 12.0996 132.617 12.7269 132.326 13.4231C132.036 14.1192 131.895 14.8687 131.913 15.6228C131.898 16.3765 132.04 17.1252 132.33 17.821C132.62 18.5168 133.052 19.1444 133.599 19.6637C134.938 20.9413 136.885 21.5802 139.441 21.5802C139.827 21.5795 140.212 21.6007 140.595 21.6437C141.008 21.6856 141.414 21.7807 141.802 21.9266C142.173 22.0197 142.504 22.2335 142.741 22.5343C142.978 22.8351 143.108 23.2061 143.112 23.5891C143.112 23.9751 142.983 24.35 142.746 24.6544C142.509 24.9587 142.176 25.175 141.802 25.2689C141.414 25.4168 141.008 25.5139 140.595 25.5576C139.828 25.6431 139.054 25.6431 138.286 25.5576C137.872 25.5138 137.464 25.4168 137.074 25.2689C136.699 25.1791 136.365 24.9667 136.125 24.6656C135.884 24.3645 135.751 23.9917 135.746 23.6064L131.602 23.9355C131.632 24.6889 131.815 25.4284 132.139 26.1091C132.464 26.7898 132.923 27.3976 133.489 27.8955C134.898 29.1501 136.88 29.7774 139.435 29.7774C142.085 29.7774 144.117 29.102 145.525 27.7512C146.077 27.21 146.516 26.5642 146.815 25.8515C147.114 25.1388 147.268 24.3736 147.268 23.6006C147.268 22.8277 147.114 22.0624 146.815 21.3498C146.516 20.6371 146.077 19.9913 145.525 19.4501L145.531 19.4385Z" fill="#EE255C"/>
<path d="M106.943 9.63257H102.781V29.762H106.943V9.63257Z" fill="#EE255C"/>
<path d="M104.871 0.222928C104.571 0.216458 104.273 0.270945 103.996 0.383081C103.718 0.495216 103.466 0.66266 103.254 0.875242C103.033 1.08953 102.859 1.34745 102.743 1.63266C102.626 1.91787 102.571 2.22413 102.579 2.53201C102.575 2.8341 102.633 3.13375 102.75 3.41265C102.866 3.69156 103.037 3.94385 103.254 4.15413C103.462 4.37313 103.713 4.54633 103.991 4.66264C104.27 4.77895 104.569 4.8358 104.871 4.82954C105.17 4.83516 105.466 4.77795 105.742 4.6616C106.017 4.54526 106.265 4.37237 106.47 4.15413C106.689 3.94498 106.862 3.69302 106.979 3.41395C107.096 3.13487 107.155 2.83466 107.151 2.53201C107.155 2.22935 107.096 1.92914 106.979 1.65007C106.862 1.371 106.689 1.11904 106.47 0.909879C106.265 0.691798 106.017 0.518269 105.742 0.400088C105.467 0.281907 105.17 0.221602 104.871 0.222928Z" fill="#EE255C"/>
<path d="M41.6439 10.5151C40.4273 9.93351 39.0959 9.63162 37.7474 9.63162C36.3988 9.63162 35.0674 9.93351 33.8508 10.5151C33.6622 10.6267 33.4698 10.7422 33.2735 10.8615V0.222412H29.1172V29.7671H33.2735V19.5552C33.2235 18.2089 33.5281 16.8732 34.1568 15.6817C34.516 15.0655 35.0405 14.5621 35.671 14.2285C36.3015 13.8949 37.0127 13.7444 37.7243 13.794C38.4482 13.7428 39.1718 13.8986 39.8106 14.243C40.4494 14.5875 40.9772 15.1064 41.3322 15.7394C41.9478 16.9655 42.238 18.3291 42.175 19.6995V29.7671H46.3371V19.6995C46.3851 17.7326 45.9553 15.7834 45.0845 14.0192C44.3449 12.5111 43.1382 11.2822 41.6439 10.5151Z" fill="#EE255C"/>
<path d="M65.0975 11.7669C63.3618 10.3084 61.1459 9.54711 58.8803 9.63102C56.0286 9.63102 53.7465 10.547 52.0339 12.3788C50.3214 14.2107 49.4689 16.6506 49.4766 19.6986C49.4766 22.7581 50.3521 25.1981 52.1032 27.0184C53.8542 28.8387 56.1845 29.7527 59.0939 29.7604C60.9743 29.7974 62.832 29.3459 64.4856 28.45C65.9926 27.6439 67.2052 26.3807 67.9493 24.8421L64.2143 23.0179C63.7949 23.8509 63.1106 24.521 62.2689 24.9229C61.2781 25.396 60.1918 25.6349 59.0939 25.6214C56.0998 25.6214 54.3372 24.2533 53.8061 21.517H68.3014V19.5139C68.2975 18.8517 68.2357 18.1911 68.1167 17.5396C67.85 15.311 66.7759 13.2573 65.0975 11.7669ZM53.8639 17.5396C54.4527 15.0304 56.1268 13.7739 58.8861 13.77C61.6455 13.7662 63.3215 15.0227 63.9141 17.5396H53.8639Z" fill="#EE255C"/>
<path d="M86.0782 11.295C85.2013 10.5709 84.1577 10.0769 83.0418 9.85759L82.8397 9.79409C81.5016 9.57612 80.137 9.57612 78.7989 9.79409L78.591 9.85759C76.479 10.2235 74.5904 11.3923 73.3206 13.1192C71.9848 15.0471 71.3103 17.3562 71.3983 19.7001C71.3107 22.0312 71.9856 24.3274 73.3206 26.2405C74.5654 27.9651 76.4254 29.1452 78.516 29.5367L78.7411 29.5829C80.0969 29.8215 81.484 29.8215 82.8397 29.5829L83.0649 29.5367C84.1575 29.3082 85.1779 28.8168 86.0378 28.1051V29.7619H90.1999V9.65555H86.0378L86.0782 11.295ZM86.0782 19.7174C86.1491 21.1084 85.7991 22.4884 85.0738 23.6774C84.1963 24.959 82.7647 25.6055 80.8308 25.6055C78.897 25.6055 77.4365 24.9532 76.5648 23.6544C75.8536 22.4624 75.5121 21.0862 75.5835 19.7001C75.5137 18.3067 75.855 16.9236 76.5648 15.7227C77.4365 14.4353 78.8739 13.7946 80.8308 13.7946C82.7878 13.7946 84.1963 14.4353 85.0738 15.7227C85.798 16.91 86.148 18.2879 86.0782 19.677V19.7174Z" fill="#EE255C"/>
<path d="M4.16212 9.63257H0V29.762H4.16212V9.63257Z" fill="#033572"/>
<path d="M20.8106 9.63257H16.6484V29.762H20.8106V9.63257Z" fill="#033572"/>
<path fill-rule="evenodd" clip-rule="evenodd" d="M8.32812 9.63257H12.4902V17.6162H8.32812V9.63257ZM8.32812 21.7771H12.4902V29.7607H8.32812V21.7771Z" fill="#EE255C"/>
</svg>
