<svg width="33" height="34" viewBox="0 0 33 34" fill="none" xmlns="http://www.w3.org/2000/svg">
<path d="M30.9712 5.03125L27.8574 6.83227" stroke="#043673" stroke-width="1.5" stroke-linecap="round" stroke-linejoin="round"/>
<path d="M31.8334 11.5957L28.3594 10.6592" stroke="#043673" stroke-width="1.5" stroke-linecap="round" stroke-linejoin="round"/>
<path d="M25.7256 1.00488L24.7891 4.48686" stroke="#043673" stroke-width="1.5" stroke-linecap="round" stroke-linejoin="round"/>
<path d="M19.8125 7.32102L23.0303 7.12891L25.1916 10.867L23.4145 13.5566" stroke="#043673" stroke-width="1.5" stroke-linejoin="round"/>
<path d="M30.9712 5.03125L27.8574 6.83227" stroke="#043673" stroke-width="1.5" stroke-linecap="round" stroke-linejoin="round"/>
<path d="M31.8334 11.5957L28.3594 10.6592" stroke="#043673" stroke-width="1.5" stroke-linecap="round" stroke-linejoin="round"/>
<path d="M25.7256 1.00488L24.7891 4.48686" stroke="#043673" stroke-width="1.5" stroke-linecap="round" stroke-linejoin="round"/>
<path d="M9.375 10.8508L14.1297 1.64554C14.698 0.717009 16.0508 0.805059 16.6351 1.81363L26.6008 19.0714C27.1771 20.08 26.5848 21.2967 25.4962 21.3207L15.1463 20.8325" stroke="#043673" stroke-width="1.5" stroke-linecap="round" stroke-linejoin="round"/>
<path d="M19.8125 7.32102L23.0303 7.12891L25.1916 10.867L23.4145 13.5566" stroke="#043673" stroke-width="1.5" stroke-linejoin="round"/>
<path d="M17.7861 32.6159C16.4093 33.4083 14.6483 32.936 13.8478 31.5593L9.52539 24.075L14.5202 21.1934L18.8427 28.6776C19.6351 30.0544 19.1629 31.8154 17.7861 32.6159Z" stroke="#043673" stroke-width="1.5" stroke-linecap="round" stroke-linejoin="round"/>
<path d="M17.7861 32.6159C16.4093 33.4083 14.6483 32.936 13.8478 31.5593L9.52539 24.075L14.5202 21.1934L18.8427 28.6776C19.6351 30.0544 19.1629 31.8154 17.7861 32.6159Z" stroke="#043673" stroke-width="1.5" stroke-linecap="round" stroke-linejoin="round"/>
<path d="M2.96862 17.0451C2.36828 16.0125 2.72849 14.6918 3.76107 14.0915L9.37226 10.8496L15.1355 20.8313L9.52435 24.0731C8.49176 24.6735 7.17101 24.3133 6.57067 23.2807L2.96862 17.0451Z" stroke="#043673" stroke-width="1.5" stroke-linecap="round" stroke-linejoin="round"/>
<path d="M6.57299 23.2816L5.32427 24.002C4.63588 24.4023 3.75538 24.1621 3.35515 23.4737L1.19393 19.7276C0.793697 19.0392 1.03383 18.1587 1.72223 17.7585L2.97094 17.0381" stroke="#043673" stroke-width="1.5" stroke-linecap="round" stroke-linejoin="round"/>
</svg>
