<svg width="20" height="20" viewBox="0 0 20 20" fill="none" xmlns="http://www.w3.org/2000/svg">
<path d="M17.5938 6.575H16.5188V3.8125C16.5188 3.47474 16.244 3.2 15.9062 3.2H14.8313V1.84375C14.8313 1.35091 14.4303 0.95 13.9375 0.95H6.0625C5.56966 0.95 5.16875 1.35091 5.16875 1.84375V3.2H4.09375C3.75599 3.2 3.48125 3.47474 3.48125 3.8125V6.575H2.40625C1.60323 6.575 0.95 7.22823 0.95 8.03125V14.2188C0.95 15.0218 1.60323 15.675 2.40625 15.675H5.16875V18.1562C5.16875 18.6491 5.56966 19.05 6.0625 19.05H13.9375C14.4303 19.05 14.8313 18.6491 14.8313 18.1562V15.675H17.5938C18.3968 15.675 19.05 15.0218 19.05 14.2188V8.03125C19.05 7.22823 18.3968 6.575 17.5938 6.575ZM15.8562 3.8625V6.575H14.8313V3.8625H15.8562ZM5.83125 1.84375C5.83125 1.71629 5.93504 1.6125 6.0625 1.6125H13.9375C14.065 1.6125 14.1687 1.71629 14.1687 1.84375V6.575H5.83125V6.57388V6.5707V6.56743V6.56407V6.56062V6.55708V6.55345V6.54974V6.54593V6.54204V6.53806V6.534V6.52985V6.52561V6.52129V6.51688V6.51238V6.50781V6.50314V6.4984V6.49357V6.48866V6.48366V6.47858V6.47343V6.46819V6.46287V6.45746V6.45198V6.44642V6.44078V6.43506V6.42926V6.42339V6.41743V6.4114V6.40529V6.39911V6.39284V6.38651V6.38009V6.37361V6.36704V6.36041V6.3537V6.34691V6.34005V6.33312V6.32612V6.31905V6.3119V6.30468V6.2974V6.29004V6.28261V6.27511V6.26755V6.25991V6.25221V6.24443V6.23659V6.22869V6.22071V6.21267V6.20457V6.1964V6.18816V6.17986V6.17149V6.16306V6.15457V6.14601V6.13739V6.12871V6.11996V6.11115V6.10229V6.09336V6.08437V6.07532V6.06621V6.05704V6.04781V6.03853V6.02918V6.01978V6.01032V6.0008V5.99123V5.9816V5.97192V5.96217V5.95238V5.94253V5.93262V5.92267V5.91265V5.90259V5.89247V5.8823V5.87208V5.8618V5.85148V5.8411V5.83068V5.8202V5.80968V5.7991V5.78848V5.77781V5.76709V5.75632V5.74551V5.73465V5.72374V5.71279V5.70179V5.69074V5.67965V5.66852V5.65734V5.64612V5.63485V5.62355V5.6122V5.6008V5.58937V5.5779V5.56638V5.55482V5.54323V5.53159V5.51991V5.5082V5.49645V5.48465V5.47282V5.46096V5.44905V5.43711V5.42514V5.41312V5.40108V5.38899V5.37688V5.36472V5.35254V5.34032V5.32807V5.31578V5.30347V5.29112V5.27874V5.26632V5.25388V5.24141V5.22891V5.21638V5.20381V5.19122V5.17861V5.16596V5.15329V5.14058V5.12786V5.1151V5.10232V5.08952V5.07669V5.06383V5.05095V5.03805V5.02512V5.01217V4.99919V4.9862V4.97318V4.96014V4.94707V4.93399V4.92089V4.90777V4.89462V4.88146V4.86828V4.85508V4.84186V4.82863V4.81537V4.8021V4.78882V4.77551V4.7622V4.74886V4.73551V4.72215V4.70877V4.69538V4.68197V4.66856V4.65512V4.64168V4.62823V4.61476V4.60128V4.58779V4.5743V4.56079V4.54727V4.53374V4.52021V4.50666V4.49311V4.47955V4.46598V4.45241V4.43883V4.42524V4.41165V4.39805V4.38445V4.37085V4.35724V4.34362V4.33001V4.31639V4.30276V4.28914V4.27551V4.26189V4.24826V4.23463V4.221V4.20737V4.19374V4.18012V4.16649V4.15287V4.13925V4.12563V4.11201V4.0984V4.08479V4.07119V4.05759V4.044V4.03041V4.01682V4.00325V3.98968V3.97611V3.96256V3.94901V3.93547V3.92194V3.90841V3.8949V3.8814V3.8679V3.85442V3.84095V3.82749V3.81404V3.8006V3.78717V3.77376V3.76036V3.74698V3.73361V3.72025V3.70691V3.69358V3.68027V3.66698V3.6537V3.64044V3.62719V3.61397V3.60076V3.58756V3.57439V3.56124V3.54811V3.53499V3.5219V3.50883V3.49578V3.48275V3.46974V3.45675V3.44379V3.43085V3.41793V3.40504V3.39217V3.37933V3.36651V3.35371V3.34095V3.32821V3.31549V3.3028V3.29014V3.27751V3.2649V3.25233V3.23978V3.22726V3.21478V3.20232V3.18989V3.17749V3.16513V3.15279V3.14049V3.12822V3.11599V3.10378V3.09162V3.07948V3.06738V3.05531V3.04328V3.03129V3.01933V3.00741V2.99552V2.98367V2.97186V2.96009V2.94835V2.93666V2.925V2.91338V2.9018V2.89027V2.87877V2.86732V2.8559V2.84453V2.8332V2.82191V2.81067V2.79947V2.78831V2.7772V2.76613V2.75511V2.74413V2.7332V2.72232V2.71148V2.70069V2.68994V2.67925V2.6686V2.658V2.64745V2.63695V2.62649V2.61609V2.60574V2.59544V2.58519V2.575V2.56485V2.55476V2.54472V2.53473V2.5248V2.51492V2.5051V2.49533V2.48561V2.47596V2.46635V2.45681V2.44732V2.43789V2.42851V2.4192V2.40994V2.40074V2.3916V2.38252V2.3735V2.36454V2.35564V2.3468V2.33802V2.32931V2.32065V2.31206V2.30354V2.29507V2.28667V2.27834V2.27007V2.26186V2.25372V2.24565V2.23764V2.2297V2.22183V2.21402V2.20628V2.19861V2.19101V2.18347V2.17601V2.16861V2.16129V2.15404V2.14685V2.13974V2.1327V2.12574V2.11884V2.11202V2.10527V2.09859V2.09199V2.08547V2.07901V2.07264V2.06634V2.06011V2.05396V2.04789V2.0419V2.03598V2.03014V2.02438V2.0187V2.0131V2.00758V2.00213V1.99677V1.99149V1.98629V1.98117V1.97613V1.97118V1.96631V1.96152V1.95681V1.95219V1.94765V1.9432V1.93883V1.93455V1.93035V1.92624V1.92222V1.91828V1.91443V1.91067V1.907V1.90342V1.89992V1.89651V1.8932V1.88997V1.88684V1.88379V1.88084V1.87798V1.87521V1.87253V1.86995V1.86746V1.86506V1.86276V1.86055V1.85844V1.85642V1.8545V1.85267V1.85094V1.84931V1.84777V1.84633V1.84499V1.84375ZM4.14375 3.8625H5.16875V6.575H4.14375V3.8625ZM14.1687 18.1562C14.1687 18.2837 14.065 18.3875 13.9375 18.3875H6.0625C5.93504 18.3875 5.83125 18.2837 5.83125 18.1562V13.425H14.1687V18.1562ZM18.3875 14.2188C18.3875 14.6564 18.0314 15.0125 17.5938 15.0125H14.8313V13.425H15.3438C15.5267 13.425 15.675 13.2767 15.675 13.0938C15.675 12.9108 15.5267 12.7625 15.3438 12.7625H15.3378H15.3316H15.3252H15.3186H15.3119H15.305H15.2979H15.2906H15.2831H15.2754H15.2676H15.2596H15.2514H15.243H15.2345H15.2258H15.2169H15.2078H15.1985H15.1891H15.1795H15.1697H15.1598H15.1497H15.1394H15.129H15.1183H15.1076H15.0966H15.0855H15.0742H15.0628H15.0512H15.0394H15.0274H15.0153H15.0031H14.9907H14.9781H14.9654H14.9525H14.9394H14.9262H14.9129H14.8993H14.8857H14.8718H14.8579H14.8437H14.8295H14.815H14.8005H14.7857H14.7709H14.7558H14.7407H14.7254H14.7099H14.6943H14.6786H14.6627H14.6467H14.6305H14.6142H14.5977H14.5811H14.5644H14.5476H14.5306H14.5134H14.4962H14.4788H14.4612H14.4436H14.4258H14.4078H14.3898H14.3716H14.3533H14.3348H14.3162H14.2975H14.2787H14.2598H14.2407H14.2215H14.2022H14.1827H14.1631H14.1435H14.1237H14.1037H14.0837H14.0635H14.0432H14.0229H14.0023H13.9817H13.961H13.9401H13.9192H13.8981H13.8769H13.8556H13.8342H13.8127H13.7911H13.7694H13.7476H13.7256H13.7036H13.6814H13.6592H13.6368H13.6144H13.5918H13.5692H13.5464H13.5236H13.5006H13.4776H13.4545H13.4312H13.4079H13.3845H13.361H13.3373H13.3136H13.2899H13.266H13.242H13.2179H13.1938H13.1696H13.1452H13.1208H13.0963H13.0718H13.0471H13.0224H12.9976H12.9727H12.9477H12.9226H12.8975H12.8722H12.8469H12.8216H12.7961H12.7706H12.745H12.7193H12.6936H12.6678H12.6419H12.6159H12.5899H12.5638H12.5376H12.5114H12.4851H12.4588H12.4323H12.4058H12.3793H12.3527H12.326H12.2992H12.2724H12.2456H12.2186H12.1917H12.1646H12.1375H12.1104H12.0832H12.0559H12.0286H12.0012H11.9738H11.9464H11.9188H11.8913H11.8636H11.836H11.8083H11.7805H11.7527H11.7248H11.6969H11.669H11.641H11.613H11.5849H11.5568H11.5287H11.5005H11.4722H11.444H11.4157H11.3873H11.359H11.3306H11.3021H11.2736H11.2451H11.2166H11.188H11.1594H11.1308H11.1021H11.0734H11.0447H11.016H10.9872H10.9584H10.9296H10.9008H10.8719H10.843H10.8141H10.7852H10.7563H10.7273H10.6983H10.6693H10.6403H10.6113H10.5822H10.5532H10.5241H10.495H10.4659H10.4368H10.4077H10.3786H10.3494H10.3203H10.2911H10.262H10.2328H10.2036H10.1745H10.1453H10.1161H10.0869H10.0577H10.0285H9.99935H9.97017H9.94099H9.91181H9.88263H9.85346H9.82429H9.79513H9.76597H9.73682H9.70768H9.67855H9.64942H9.62031H9.59121H9.56211H9.53303H9.50397H9.47492H9.44588H9.41686H9.38785H9.35886H9.32989H9.30094H9.272H9.24309H9.21419H9.18532H9.15647H9.12764H9.09884H9.07006H9.04131H9.01258H8.98388H8.95521H8.92656H8.89795H8.86936H8.8408H8.81228H8.78379H8.75533H8.7269H8.69851H8.67015H8.64183H8.61355H8.5853H8.55709H8.52892H8.50079H8.4727H8.44465H8.41664H8.38868H8.36076H8.33288H8.30505H8.27726H8.24952H8.22183H8.19419H8.16659H8.13905H8.11155H8.08411H8.05671H8.02937H8.00208H7.97485H7.94767H7.92055H7.89348H7.86647H7.83952H7.81263H7.78579H7.75902H7.73231H7.70566H7.67907H7.65254H7.62608H7.59968H7.57335H7.54709H7.52089H7.49476H7.4687H7.4427H7.41678H7.39093H7.36515H7.33944H7.3138H7.28824H7.26275H7.23734H7.212H7.18674H7.16156H7.13646H7.11143H7.08649H7.06163H7.03684H7.01214H6.98753H6.96299H6.93854H6.91418H6.8899H6.86571H6.8416H6.81759H6.79366H6.76982H6.74608H6.72242H6.69885H6.67538H6.65201H6.62872H6.60553H6.58244H6.55944H6.53655H6.51375H6.49104H6.46844H6.44594H6.42354H6.40124H6.37904H6.35695H6.33496H6.31307H6.2913H6.26962H6.24806H6.2266H6.20525H6.18401H6.16288H6.14187H6.12096H6.10016H6.07948H6.05892H6.03847H6.01813H5.99791H5.97781H5.95782H5.93795H5.9182H5.89858H5.87907H5.85968H5.84042H5.82128H5.80227H5.78337H5.76461H5.74597H5.72745H5.70907H5.69081H5.67268H5.65469H5.63682H5.61908H5.60148H5.58401H5.56667H5.54947H5.5324H5.51547H5.49867H5.48201H5.4655H5.44912H5.43287H5.41677H5.40082H5.385H5.36933H5.3538H5.33841H5.32317H5.30807H5.29313H5.27832H5.26367H5.24917H5.23481H5.22061H5.20656H5.19265H5.17891H5.16531H5.15187H5.13858H5.12545H5.11248H5.09966H5.087H5.0745H5.06216H5.04998H5.03797H5.02611H5.01441H5.00288H4.99151H4.98031H4.96927H4.9584H4.9477H4.93716H4.9268H4.9166H4.90657H4.89671H4.88703H4.87751H4.86817H4.85901H4.85002H4.8412H4.83256H4.8241H4.81581H4.80771H4.79978H4.79203H4.78447H4.77708H4.76988H4.76286H4.75602H4.74937H4.7429H4.73662H4.73053H4.72462H4.7189H4.71338H4.70804H4.70289H4.69793H4.69317H4.68859H4.68422H4.68003H4.67604H4.67225H4.66865H4.66525H4.66205H4.65905H4.65625C4.47332 12.7625 4.325 12.9108 4.325 13.0938C4.325 13.2767 4.47332 13.425 4.65625 13.425H5.16875V15.0125H2.40625C1.96864 15.0125 1.6125 14.6564 1.6125 14.2188V8.03125C1.6125 7.59364 1.96864 7.2375 2.40625 7.2375H17.5938C18.0314 7.2375 18.3875 7.59364 18.3875 8.03125V14.2188Z" fill="#043673" stroke="#043673" stroke-width="0.1"/>
<path d="M17.0312 7.7C16.5384 7.7 16.1375 8.10091 16.1375 8.59375C16.1375 9.08659 16.5384 9.4875 17.0312 9.4875C17.5241 9.4875 17.925 9.08659 17.925 8.59375C17.925 8.10091 17.5241 7.7 17.0312 7.7ZM17.0312 8.825C16.9038 8.825 16.8 8.72121 16.8 8.59375C16.8 8.46629 16.9038 8.3625 17.0312 8.3625C17.1587 8.3625 17.2625 8.46629 17.2625 8.59375C17.2625 8.72121 17.1587 8.825 17.0312 8.825Z" fill="#043673" stroke="#043673" stroke-width="0.1"/>
<path d="M14.7812 7.7C14.2884 7.7 13.8875 8.10091 13.8875 8.59375C13.8875 9.08659 14.2884 9.4875 14.7812 9.4875C15.2741 9.4875 15.675 9.08659 15.675 8.59375C15.675 8.10091 15.2741 7.7 14.7812 7.7ZM14.7812 8.825C14.6538 8.825 14.55 8.72121 14.55 8.59375C14.55 8.46629 14.6538 8.3625 14.7812 8.3625C14.9087 8.3625 15.0125 8.46629 15.0125 8.59375C15.0125 8.72121 14.9087 8.825 14.7812 8.825Z" fill="#043673" stroke="#043673" stroke-width="0.1"/>
<path d="M13.0938 14.1687H7.1875C7.00457 14.1687 6.85625 14.3171 6.85625 14.5C6.85625 14.6829 7.00457 14.8313 7.1875 14.8313H13.0938C13.2767 14.8313 13.425 14.6829 13.425 14.5C13.425 14.3171 13.2767 14.1687 13.0938 14.1687Z" fill="#043673" stroke="#043673" stroke-width="0.1"/>
<path d="M13.0938 15.575H7.1875C7.00457 15.575 6.85625 15.7233 6.85625 15.9062C6.85625 16.0892 7.00457 16.2375 7.1875 16.2375H13.0938C13.2767 16.2375 13.425 16.0892 13.425 15.9062C13.425 15.7233 13.2767 15.575 13.0938 15.575Z" fill="#043673" stroke="#043673" stroke-width="0.1"/>
<path d="M13.0938 16.9812H7.1875C7.00457 16.9812 6.85625 17.1296 6.85625 17.3125C6.85625 17.4954 7.00457 17.6438 7.1875 17.6438H13.0938C13.2767 17.6438 13.425 17.4954 13.425 17.3125C13.425 17.1296 13.2767 16.9812 13.0938 16.9812Z" fill="#043673" stroke="#043673" stroke-width="0.1"/>
</svg>
