<svg width="34" height="34" viewBox="0 0 34 34" fill="none" xmlns="http://www.w3.org/2000/svg">
<path d="M31.8978 24.1729H21.8356C21.3289 26.3862 19.3556 28.0306 17 28.0306C14.6445 28.0306 12.6622 26.3773 12.1645 24.1729H2.10222C1.48889 24.1729 1 24.6706 1 25.2751V31.8973C1 32.5106 1.49778 32.9995 2.10222 32.9995H31.8978C32.5112 32.9995 33.0001 32.5018 33.0001 31.8973V25.2751C33.0001 24.6617 32.5023 24.1729 31.8978 24.1729Z" stroke="#043673" stroke-width="1.5" stroke-linecap="round" stroke-linejoin="round"/>
<path d="M3.75586 24.1734V5.41779L8.17364 1" stroke="#043673" stroke-width="1.5" stroke-linecap="round" stroke-linejoin="round"/>
<path d="M8.17383 1H23.0716C23.9872 1 24.725 1.73778 24.725 2.65334V24.1734" stroke="#043673" stroke-width="1.5" stroke-linecap="round" stroke-linejoin="round"/>
<path d="M9.00003 3.2041V6.51966H5.69336" stroke="#043673" stroke-width="1.5" stroke-linecap="round" stroke-linejoin="round"/>
<path d="M27.4785 5.41699H28.5807C29.4963 5.41699 30.2341 6.15477 30.2341 7.07033V24.1726" stroke="#043673" stroke-width="1.5" stroke-linecap="round" stroke-linejoin="round"/>
<path d="M8.72461 18.1025H19.7557" stroke="#043673" stroke-width="1.5" stroke-linecap="round" stroke-linejoin="round"/>
<path d="M8.72461 12.583H19.7557" stroke="#043673" stroke-width="1.5" stroke-linecap="round" stroke-linejoin="round"/>
</svg>
