<svg width="33" height="34" viewBox="0 0 33 34" fill="none" xmlns="http://www.w3.org/2000/svg">
<path d="M26.3848 24.7933V31.8975C26.3848 32.511 25.8869 33 25.2823 33H2.10253C1.48902 33 1 32.5021 1 31.8975V6.4504L6.52153 1H25.2823C25.8958 1 26.3848 1.49792 26.3848 2.10253V7.00167" stroke="#043673" stroke-width="1.5" stroke-miterlimit="10"/>
<path d="M5.9707 26.9365H18.1074" stroke="#043673" stroke-width="1.5" stroke-miterlimit="10" stroke-linecap="round"/>
<path d="M5.9707 21.4229H12.5859" stroke="#043673" stroke-width="1.5" stroke-miterlimit="10" stroke-linecap="round"/>
<path d="M5.9707 15.9014H11.4833" stroke="#043673" stroke-width="1.5" stroke-miterlimit="10" stroke-linecap="round"/>
<path d="M3.20508 7.62506H7.62408V3.20605" stroke="#043673" stroke-width="1.5" stroke-linecap="round" stroke-linejoin="round"/>
<path d="M21.9742 23.0782C25.937 23.0782 29.1495 19.8657 29.1495 15.9029C29.1495 11.94 25.937 8.72754 21.9742 8.72754C18.0113 8.72754 14.7988 11.94 14.7988 15.9029C14.7988 19.8657 18.0113 23.0782 21.9742 23.0782Z" stroke="#043673" stroke-width="1.5" stroke-linecap="round" stroke-linejoin="round"/>
<path d="M27.041 20.9697L31.9046 25.8333" stroke="#043673" stroke-width="1.5" stroke-linecap="round" stroke-linejoin="round"/>
</svg>
