<svg width="18" height="19" viewBox="0 0 18 19" fill="none" xmlns="http://www.w3.org/2000/svg">
<path d="M17.8168 16.8705L13.28 12.3335C14.2747 11.1408 14.875 9.60836 14.875 7.93744C14.875 4.14653 11.7909 1.0625 7.99998 1.0625C4.20906 1.0625 1.125 4.14653 1.125 7.93744C1.125 11.7283 4.20906 14.8124 7.99998 14.8124C9.67092 14.8124 11.2034 14.2121 12.3961 13.2174L16.9331 17.7544C17.0551 17.8764 17.2151 17.9375 17.375 17.9375C17.5348 17.9375 17.6948 17.8764 17.8168 17.7544C18.0611 17.5102 18.0611 17.1145 17.8168 16.8705ZM2.375 7.93744C2.375 4.8359 4.89812 2.31249 7.99998 2.31249C11.1019 2.31249 13.625 4.8359 13.625 7.93744C13.625 11.039 11.1019 13.5624 7.99998 13.5624C4.89812 13.5624 2.375 11.039 2.375 7.93744Z" fill="#043673"/>
</svg>
