<svg width="87" height="57" viewBox="0 0 87 57" fill="none" xmlns="http://www.w3.org/2000/svg">
<path d="M19.6825 4.06571L13.3561 1.3394C13.0206 1.19482 12.6414 1.18943 12.3019 1.32442C11.9624 1.45941 11.6904 1.72372 11.5458 2.05922L1.72917 24.8317C1.58459 25.1672 1.5792 25.5464 1.71419 25.8859C1.84918 26.2254 2.11349 26.4974 2.44899 26.6421L8.77536 29.3693C9.11088 29.5139 9.4901 29.5193 9.8296 29.3843C10.1691 29.2493 10.4411 28.985 10.5857 28.6495L20.4023 5.877C20.4741 5.71082 20.5123 5.53212 20.515 5.35113C20.5176 5.17015 20.4846 4.99041 20.4177 4.8222C20.3509 4.65399 20.2515 4.5006 20.1254 4.3708C19.9992 4.241 19.8487 4.13733 19.6825 4.06571Z" stroke="#ED255C" stroke-width="2" stroke-linecap="round" stroke-linejoin="round"/>
<path d="M47.2437 45.3928L49.6838 47.8329C50.0078 48.1518 50.2654 48.5317 50.4419 48.9506C50.6184 49.3696 50.7101 49.8193 50.712 50.2739C50.7138 50.7286 50.6255 51.179 50.4524 51.5994C50.2793 52.0197 50.0246 52.4016 49.7032 52.7231C49.3817 53.0446 48.9998 53.2992 48.5795 53.4723C48.1591 53.6455 47.7087 53.7337 47.254 53.7319C46.7994 53.7301 46.3497 53.6383 45.9307 53.4618C45.5118 53.2853 45.1319 53.0277 44.813 52.7037" stroke="#ED255C" stroke-width="2" stroke-linecap="round" stroke-linejoin="round"/>
<path d="M51.1403 39.5474L55.524 43.9311C56.1614 44.5788 56.5171 45.4521 56.5135 46.3608C56.5098 47.2695 56.1473 48.14 55.5047 48.7826C54.8621 49.4252 53.9916 49.7878 53.0829 49.7914C52.1742 49.795 51.3008 49.4393 50.6532 48.8019L47.2437 45.3923" stroke="#ED255C" stroke-width="2" stroke-linecap="round" stroke-linejoin="round"/>
<path d="M55.0372 33.702L61.3692 40.034C62.0067 40.6817 62.3624 41.555 62.3587 42.4637C62.3551 43.3725 61.9925 44.2429 61.35 44.8855C60.7074 45.5281 59.8369 45.8907 58.9282 45.8943C58.0195 45.8979 57.1461 45.5422 56.4985 44.9048L51.1406 39.5469" stroke="#ED255C" stroke-width="2" stroke-linecap="round" stroke-linejoin="round"/>
<path d="M55.0367 33.7023L62.3429 41.0085C62.6618 41.3325 63.0416 41.5901 63.4606 41.7666C63.8796 41.9431 64.3293 42.0349 64.7839 42.0367C65.2385 42.0385 65.689 41.9503 66.1093 41.7771C66.5297 41.604 66.9116 41.3493 67.2331 41.0279C67.5545 40.7064 67.8092 40.3245 67.9823 39.9042C68.1554 39.4838 68.2436 39.0334 68.2418 38.5787C68.24 38.1241 68.1482 37.6744 67.9718 37.2554C67.7953 36.8365 67.5376 36.4566 67.2136 36.1377L59.518 28.4421L48.2261 17.1501" stroke="#ED255C" stroke-width="2" stroke-linecap="round" stroke-linejoin="round"/>
<path d="M31.163 54.0776C30.5171 53.4316 30.1543 52.5556 30.1543 51.6422C30.1543 50.7287 30.5171 49.8527 31.163 49.2068L36.0338 44.336C36.3527 44.012 36.7326 43.7544 37.1515 43.5779C37.5705 43.4014 38.0202 43.3096 38.4748 43.3078C38.9294 43.306 39.3799 43.3942 39.8003 43.5674C40.2206 43.7405 40.6025 43.9951 40.924 44.3166C41.2454 44.6381 41.5001 45.02 41.6732 45.4403C41.8464 45.8607 41.9346 46.3111 41.9328 46.7657C41.931 47.2204 41.8392 47.6701 41.6627 48.0891C41.4862 48.508 41.2286 48.8879 40.9046 49.2068L36.0338 54.0776C35.3879 54.7234 34.5118 55.0863 33.5984 55.0863C32.685 55.0863 31.8089 54.7234 31.163 54.0776Z" stroke="#ED255C" stroke-width="2" stroke-linecap="round" stroke-linejoin="round"/>
<path d="M26.2929 49.206C25.647 48.5601 25.2842 47.6841 25.2842 46.7707C25.2842 45.8572 25.647 44.9812 26.2929 44.3353L33.112 37.5162C33.7596 36.8788 34.633 36.5231 35.5417 36.5267C36.4504 36.5303 37.3209 36.8929 37.9635 37.5355C38.6061 38.178 38.9686 39.0485 38.9723 39.9573C38.9759 40.866 38.6202 41.7393 37.9828 42.387L31.1637 49.206C30.5178 49.8519 29.6417 50.2148 28.7283 50.2148C27.8149 50.2148 26.9388 49.8519 26.2929 49.206Z" stroke="#ED255C" stroke-width="2" stroke-linecap="round" stroke-linejoin="round"/>
<path d="M21.4208 44.3351C20.775 43.6892 20.4121 42.8131 20.4121 41.8997C20.4121 40.9863 20.775 40.1102 21.4208 39.4643L28.2399 32.6452C28.5588 32.3212 28.9387 32.0636 29.3576 31.8871C29.7766 31.7106 30.2264 31.6188 30.681 31.617C31.1356 31.6152 31.586 31.7034 32.0064 31.8766C32.4267 32.0497 32.8086 32.3043 33.1301 32.6258C33.4516 32.9473 33.7062 33.3292 33.8793 33.7495C34.0525 34.1699 34.1407 34.6203 34.1389 35.0749C34.1371 35.5296 34.0453 35.9793 33.8688 36.3983C33.6923 36.8172 33.4347 37.1971 33.1107 37.516L26.2916 44.3351C25.6457 44.981 24.7697 45.3438 23.8562 45.3438C22.9428 45.3438 22.0668 44.981 21.4208 44.3351Z" stroke="#ED255C" stroke-width="2" stroke-linecap="round" stroke-linejoin="round"/>
<path d="M16.5507 39.465C15.9048 38.819 15.542 37.943 15.542 37.0296C15.542 36.1161 15.9048 35.2401 16.5507 34.5942L21.4215 29.7234C21.7404 29.3994 22.1203 29.1417 22.5392 28.9653C22.9582 28.7888 23.4079 28.697 23.8625 28.6952C24.3171 28.6934 24.7676 28.7816 25.188 28.9548C25.6083 29.1279 25.9902 29.3825 26.3117 29.704C26.6331 30.0254 26.8878 30.4074 27.0609 30.8277C27.234 31.2481 27.3223 31.6985 27.3205 32.1531C27.3186 32.6077 27.2269 33.0575 27.0504 33.4765C26.8739 33.8954 26.6163 34.2753 26.2923 34.5942L21.4215 39.465C20.7756 40.1108 19.8995 40.4737 18.9861 40.4737C18.0727 40.4737 17.1966 40.1108 16.5507 39.465Z" stroke="#ED255C" stroke-width="2" stroke-linecap="round" stroke-linejoin="round"/>
<path d="M67.0978 9.88759C63.2942 9.63327 59.562 8.73124 56.0621 7.2204L51.5442 5.11348C50.6544 4.69896 49.6701 4.52952 48.693 4.62265L40.9458 5.36031C40.3944 5.41252 39.8592 5.57511 39.372 5.83839C38.8848 6.10168 38.4555 6.46028 38.1097 6.89286L30.4675 16.442C29.975 16.9348 29.6982 17.603 29.6982 18.2998C29.6982 18.9965 29.975 19.6647 30.4675 20.1575C30.9912 20.6814 31.613 21.0971 32.2974 21.3806C32.9818 21.6642 33.7153 21.8102 34.4561 21.8102C35.1969 21.8102 35.9304 21.6642 36.6148 21.3806C37.2992 21.0971 37.921 20.6814 38.4447 20.1575L43.2244 15.4012L43.4816 13.2868" stroke="#ED255C" stroke-width="2" stroke-linecap="round" stroke-linejoin="round"/>
<path d="M67.2761 6.82074L73.6025 4.09349C73.938 3.9489 74.3172 3.94352 74.6567 4.07851C74.9962 4.2135 75.2682 4.47781 75.4129 4.81331L85.2295 27.5867C85.3741 27.9223 85.3794 28.3015 85.2445 28.641C85.1095 28.9805 84.8452 29.2524 84.5097 29.3971L78.1833 32.1243C77.8478 32.2689 77.4685 32.2743 77.129 32.1393C76.7895 32.0043 76.5176 31.74 76.3729 31.4045L66.5563 8.63109C66.4117 8.29557 66.4063 7.91635 66.5413 7.57685C66.6763 7.23735 66.9406 6.96538 67.2761 6.82074Z" stroke="#ED255C" stroke-width="2" stroke-linecap="round" stroke-linejoin="round"/>
<path d="M20.0586 7.77903C22.7511 8.67662 25.6521 8.73975 28.3811 7.96016L31.0802 7.18872" stroke="#ED255C" stroke-width="2" stroke-linecap="round" stroke-linejoin="round"/>
<path d="M10.8511 28.0308L14.2306 29.584" stroke="#ED255C" stroke-width="2" stroke-linecap="round" stroke-linejoin="round"/>
<path d="M75.8918 30.8875L71.3823 32.8911" stroke="#ED255C" stroke-width="2" stroke-linecap="round" stroke-linejoin="round"/>
</svg>
